{
.appVersion = "1225";
copyright = "Copyright 2018 Google Inc. All Rights Reserved.";
customParameters = (
{
name = glyphOrder;
value = (
.notdef,
NULL,
CR,
space,
ZWJ,
uni200C,
uni25CC,
A_iv,
AA_iv,
I_iv,
II_iv,
U_iv,
UU_iv,
R_iv,
Rr_iv,
L_iv,
LL_iv,
E_iv,
AI_iv,
O_iv,
AU_iv,
Ka,
Kha,
Ga,
Gha,
Nga,
Ngha,
Ca,
Cha,
Ja,
Jha,
Nya,
Nyha,
Tta,
Ttha,
Dda,
Ddha,
Nna,
Ta,
Tha,
Da,
Dha,
Na,
Nha,
Pa,
Pha,
Ba,
Bha,
Ma,
Mha,
Ya,
Ra,
Rha,
La,
Lha,
Wa,
Sha,
Ssa,
Sa,
Ha,
AA_dv,
I_dv,
II_dv,
U_dv,
UU_dv,
R_dv,
RR_dv,
L_dv,
LL_dv,
E_dv,
AI_dv,
O_dv,
AU_dv,
Virama,
Candrabindu,
Anusvara,
Visarga,
Nukta,
Avagraha,
Finalanusvara,
Om,
Siddhi,
Danda,
Dbldanda,
Comma,
Gapfiller,
Abbreviation,
Zero_Newa,
One_Newa,
Two_Newa,
Three_Newa,
Four_Newa,
Five_Newa,
Six_Newa,
Seven_Newa,
Eight_Newa,
Nine_Newa,
Placeholder,
Insertion,
sandhiMark,
vedic_anusvara,
deletionMark,
periodcentered,
Ka.nohd,
Kha.nohd,
Gha.nohd,
Nga.nohd,
Ngha.nohd,
Ca.nohd,
Cha.nohd,
Ja.nohd,
Jha.nohd,
Nyha.nohd,
Tta.nohd,
Dda.nohd,
Ddha.nohd,
Ta.nohd,
Da.nohd,
Na.nohd,
Nha.nohd,
Pa.nohd,
Pha.nohd,
Ba.nohd,
Bha.nohd,
Bha.alt.nohd,
Ma.nohd,
Mha.nohd,
Ya.nohd,
Ra.nohd,
Rha.nohd,
La.nohd,
Lha.nohd,
Wa.nohd,
Ssa.nohd,
Sa.nohd,
Ha.nohd,
Ha.alt.nohd,
AA_dv.alt,
AA_dv.alt2,
AA_dv.alt3,
AA_dv.nya,
AA_dv.tall,
AA_dv.ttha,
E_dv.alt,
AI_dv.alt,
O_dv.alt,
AU_dv.alt,
Ha_Nga,
Ha_Nya,
Ha_Nna,
Ha_Na,
Ha_Ma,
Ha_Ra,
Ha_La,
Nga_Ha,
Nya_Ha,
Nna_Ha,
Na_Ha,
Ma_Ha,
Ra_Ha,
La_Ha,
Bha.alt,
Ha.alt,
Ju,
Juu,
Ru,
Ruu,
Ka.icd,
Ka.cd,
Kha.icd,
Kha.cd,
Kha.half,
Ga.icd,
Ga.cd,
Ga.cd.alt,
Ga.half,
Gha.icd,
Gha.cd,
Gha.half,
Nga.icd,
Nga.icd.rt,
Nga.icd.nohd.rt,
Nga.cd,
Ca.icd,
Ca.cd,
Ca.half,
Cha.icd,
Cha.cd,
Ja.icd,
Ja.cd,
Jha.icd,
Jha.cd,
Jha.half,
Nya.icd,
Nya_nostem.icd,
Nya.cd,
Nya_stem.cd,
Nya_low.cd,
Nya_stem.cd.alt,
Tta.icd,
Tta.icd.rt,
Tta.icd.nohd.rt,
Tta.cd,
Ttha.icd,
Ttha.icd.rt,
Ttha.icd.center,
Ttha.cd,
Dda.icd,
Dda.icd.rt,
Dda.icd.nohd.rt,
Dda.cd,
Ddha.icd,
Ddha.icd.rt,
Ddha.icd.nohd.rt,
Ddha.cd,
Nna.icd,
Nna.half,
Nna.post,

glyphs = (
{
glyphname = .notdef;
lastChange = "2019-05-14 14:08:00 +0000";
layers = (
{
layerId = UUID0;
paths = (
{
closed = 1;
nodes = (
"505 0 LINE",
"505 714 LINE",
"94 714 LINE",
"94 0 LINE"
);
},
{
closed = 1;
nodes = (
"145 663 LINE",
"454 663 LINE",
"454 51 LINE",
"145 51 LINE"
);
}
);
width = 600;
}
);
},
{
glyphname = uni25CC;
lastChange = "2019-05-14 14:08:00 +0000";
layers = (
{
layerId = UUID0;
paths = (
{
closed = 1;
nodes = (
"199 522 OFFCURVE",
"187 510 OFFCURVE",
"187 496 CURVE SMOOTH",
"187 482 OFFCURVE",
"199 470 OFFCURVE",
"213 470 CURVE SMOOTH",
"227 470 OFFCURVE",
"239 482 OFFCURVE",
"239 496 CURVE SMOOTH",
"239 510 OFFCURVE",
"227 522 OFFCURVE",
"213 522 CURVE SMOOTH"
);
},
{
closed = 1;
nodes = (
"367 522 OFFCURVE",
"355 510 OFFCURVE",
"355 496 CURVE SMOOTH",
"355 482 OFFCURVE",
"367 470 OFFCURVE",
"381 470 CURVE SMOOTH",
"395 470 OFFCURVE",
"407 482 OFFCURVE",
"407 496 CURVE SMOOTH",
"407 510 OFFCURVE",
"395 522 OFFCURVE",
"381 522 CURVE SMOOTH"
);
},
{
closed = 1;
nodes = (
"199 112 OFFCURVE",
"187 100 OFFCURVE",
"187 86 CURVE SMOOTH",
"187 72 OFFCURVE",
"199 60 OFFCURVE",
"213 60 CURVE SMOOTH",
"227 60 OFFCURVE",
"239 72 OFFCURVE",
"239 86 CURVE SMOOTH",
"239 100 OFFCURVE",
"227 112 OFFCURVE",
"213 112 CURVE SMOOTH"
);
},
{
closed = 1;
nodes = (
"367 112 OFFCURVE",
"355 100 OFFCURVE",
"355 86 CURVE SMOOTH",
"355 72 OFFCURVE",
"367 60 OFFCURVE",
"381 60 CURVE SMOOTH",
"395 60 OFFCURVE",
"407 72 OFFCURVE",
"407 86 CURVE SMOOTH",
"407 100 OFFCURVE",
"395 112 OFFCURVE",
"381 112 CURVE SMOOTH"
);
},
{
closed = 1;
nodes = (
"283 540 OFFCURVE",
"271 528 OFFCURVE",
"271 514 CURVE SMOOTH",
"271 500 OFFCURVE",
"283 488 OFFCURVE",
"297 488 CURVE SMOOTH",
"311 488 OFFCURVE",
"323 500 OFFCURVE",
"323 514 CURVE SMOOTH",
"323 528 OFFCURVE",
"311 540 OFFCURVE",
"297 540 CURVE SMOOTH"
);
},
{
closed = 1;
nodes = (
"283 94 OFFCURVE",
"271 82 OFFCURVE",
"271 68 CURVE SMOOTH",
"271 54 OFFCURVE",
"283 42 OFFCURVE",
"297 42 CURVE SMOOTH",
"311 42 OFFCURVE",
"323 54 OFFCURVE",
"323 68 CURVE SMOOTH",
"323 82 OFFCURVE",
"311 94 OFFCURVE",
"297 94 CURVE SMOOTH"
);
},
{
closed = 1;
nodes = (
"48 277 OFFCURVE",
"60 265 OFFCURVE",
"74 265 CURVE SMOOTH",
"88 265 OFFCURVE",
"100 277 OFFCURVE",
"100 291 CURVE SMOOTH",
"100 305 OFFCURVE",
"88 317 OFFCURVE",
"74 317 CURVE SMOOTH",
"60 317 OFFCURVE",
"48 305 OFFCURVE",
"48 291 CURVE SMOOTH"
);
},
{
closed = 1;
nodes = (
"494 277 OFFCURVE",
"506 265 OFFCURVE",
"520 265 CURVE SMOOTH",
"534 265 OFFCURVE",
"546 277 OFFCURVE",
"546 291 CURVE SMOOTH",
"546 305 OFFCURVE",
"534 317 OFFCURVE",
"520 317 CURVE SMOOTH",
"506 317 OFFCURVE",
"494 305 OFFCURVE",
"494 291 CURVE SMOOTH"
);
},
{
closed = 1;
nodes = (
"113 119 OFFCURVE",
"125 107 OFFCURVE",
"139 107 CURVE SMOOTH",
"153 107 OFFCURVE",
"165 119 OFFCURVE",
"165 133 CURVE SMOOTH",
"165 147 OFFCURVE",
"153 159 OFFCURVE",
"139 159 CURVE SMOOTH",
"125 159 OFFCURVE",
"113 147 OFFCURVE",
"113 133 CURVE SMOOTH"
);
},
{
closed = 1;
nodes = (
"113 435 OFFCURVE",
"125 423 OFFCURVE",
"139 423 CURVE SMOOTH",
"153 423 OFFCURVE",
"165 435 OFFCURVE",
"165 449 CURVE SMOOTH",
"165 463 OFFCURVE",
"153 475 OFFCURVE",
"139 475 CURVE SMOOTH",
"125 475 OFFCURVE",
"113 463 OFFCURVE",
"113 449 CURVE SMOOTH"
);
},
{
closed = 1;
nodes = (
"429 119 OFFCURVE",
"441 107 OFFCURVE",
"455 107 CURVE SMOOTH",
"469 107 OFFCURVE",
"481 119 OFFCURVE",
"481 133 CURVE SMOOTH",
"481 147 OFFCURVE",
"469 159 OFFCURVE",
"455 159 CURVE SMOOTH",
"441 159 OFFCURVE",
"429 147 OFFCURVE",
"429 133 CURVE SMOOTH"
);
},
{
closed = 1;
nodes = (
"429 435 OFFCURVE",
"441 423 OFFCURVE",
"455 423 CURVE SMOOTH",
"469 423 OFFCURVE",
"481 435 OFFCURVE",
"481 449 CURVE SMOOTH",
"481 463 OFFCURVE",
"469 475 OFFCURVE",
"455 475 CURVE SMOOTH",
"441 475 OFFCURVE",
"429 463 OFFCURVE",
"429 449 CURVE SMOOTH"
);
},
{
closed = 1;
nodes = (
"66 193 OFFCURVE",
"78 181 OFFCURVE",
"92 181 CURVE SMOOTH",
"106 181 OFFCURVE",
"118 193 OFFCURVE",
"118 207 CURVE SMOOTH",
"118 221 OFFCURVE",
"106 233 OFFCURVE",
"92 233 CURVE SMOOTH",
"78 233 OFFCURVE",
"66 221 OFFCURVE",
"66 207 CURVE SMOOTH"
);
},
{
closed = 1;
nodes = (
"66 361 OFFCURVE",
"78 349 OFFCURVE",
"92 349 CURVE SMOOTH",
"106 349 OFFCURVE",
"118 361 OFFCURVE",
"118 375 CURVE SMOOTH",
"118 389 OFFCURVE",
"106 401 OFFCURVE",
"92 401 CURVE SMOOTH",
"78 401 OFFCURVE",
"66 389 OFFCURVE",
"66 375 CURVE SMOOTH"
);
},
{
closed = 1;
nodes = (
"476 193 OFFCURVE",
"488 181 OFFCURVE",
"502 181 CURVE SMOOTH",
"516 181 OFFCURVE",
"528 193 OFFCURVE",
"528 207 CURVE SMOOTH",
"528 221 OFFCURVE",
"516 233 OFFCURVE",
"502 233 CURVE SMOOTH",
"488 233 OFFCURVE",
"476 221 OFFCURVE",
"476 207 CURVE SMOOTH"
);
},
{
closed = 1;
nodes = (
"476 361 OFFCURVE",
"488 349 OFFCURVE",
"502 349 CURVE SMOOTH",
"516 349 OFFCURVE",
"528 361 OFFCURVE",
"528 375 CURVE SMOOTH",
"528 389 OFFCURVE",
"516 401 OFFCURVE",
"502 401 CURVE SMOOTH",
"488 401 OFFCURVE",
"476 389 OFFCURVE",
"476 375 CURVE SMOOTH"
);
}
);
width = 594;
}
);
unicode = 25CC;
category = Letter;
},
{
glyphname = A_iv;
lastChange = "2019-05-14 14:08:00 +0000";
layers = (
{
layerId = UUID0;
paths = (
{
closed = 1;
nodes = (
"648 622 LINE",
"0 622 LINE",
"0 551 LINE",
"477 551 LINE",
"477 21 LINE",
"558 43 LINE",
"558 551 LINE",
"648 551 LINE"
);
},
{
closed = 1;
nodes = (
"185 385 LINE",
"195 395 OFFCURVE",
"221 404 OFFCURVE",
"243 404 CURVE SMOOTH",
"306 404 OFFCURVE",
"349 355 OFFCURVE",
"349 281 CURVE SMOOTH",
"349 200 OFFCURVE",
"316 160 OFFCURVE",
"258 160 CURVE SMOOTH",
"179 160 OFFCURVE",
"113 237 OFFCURVE",
"46 396 CURVE",
"-20 364 LINE",
"55 172 OFFCURVE",
"150 88 OFFCURVE",
"267 88 CURVE SMOOTH",
"348 88 OFFCURVE",
"428 152 OFFCURVE",
"428 278 CURVE SMOOTH",
"428 406 OFFCURVE",
"342 470 OFFCURVE",
"248 470 CURVE SMOOTH",
"215 470 OFFCURVE",
"173 463 OFFCURVE",
"145 437 CURVE"
);
},
{
closed = 1;
nodes = (
"357 294 LINE",
"399 277 OFFCURVE",
"450 254 OFFCURVE",
"510 218 CURVE",
"545 284 LINE",
"498 310 OFFCURVE",
"439 338 OFFCURVE",
"382 357 CURVE"
);
},
{
closed = 1;
nodes = (
"507 79 LINE",
"477 49 OFFCURVE",
"480 33 OFFCURVE",
"433 32 CURVE",
"447 -14 LINE",
"491 -37 OFFCURVE",
"537 -52 OFFCURVE",
"630 -168 CURVE",
"687 -118 LINE",
"637 -50 OFFCURVE",
"521 75 OFFCURVE",
"405 75 CURVE SMOOTH",
"358 75 OFFCURVE",
"333 45 OFFCURVE",
"333 15 CURVE SMOOTH",
"333 -21 OFFCURVE",
"371 -46 OFFCURVE",
"418 -46 CURVE SMOOTH",
"497 -46 OFFCURVE",
"558 -20 OFFCURVE",
"558 46 CURVE"
);
}
);
width = 638;
}
);
unicode = 11400;
},
{
glyphname = AA_iv;
lastChange = "2019-05-14 14:08:00 +0000";
layers = (
{
layerId = UUID0;
paths = (
{
closed = 1;
nodes = (
"668 0 LINE",
"749 0 LINE",
"749 622 LINE",
"668 622 LINE"
);
},
{
closed = 1;
nodes = (
"438 622 LINE",
"0 622 LINE",
"0 551 LINE",
"438 551 LINE"
);
},
{
closed = 1;
nodes = (
"357 294 LINE",
"399 277 OFFCURVE",
"450 254 OFFCURVE",
"510 218 CURVE",
"545 284 LINE",
"498 310 OFFCURVE",
"439 338 OFFCURVE",
"382 357 CURVE"
);
},
{
closed = 1;
nodes = (
"507 79 LINE",
"477 49 OFFCURVE",
"480 33 OFFCURVE",
"433 32 CURVE",
"447 -14 LINE",
"491 -37 OFFCURVE",
"537 -52 OFFCURVE",
"630 -168 CURVE",
"687 -118 LINE",
"637 -50 OFFCURVE",
"521 75 OFFCURVE",
"405 75 CURVE SMOOTH",
"358 75 OFFCURVE",
"333 47 OFFCURVE",
"333 17 CURVE SMOOTH",
"333 -19 OFFCURVE",
"368 -46 OFFCURVE",
"431 -46 CURVE SMOOTH",
"498 -46 OFFCURVE",
"558 -18 OFFCURVE",
"558 46 CURVE"
);
},
{
closed = 1;
nodes = (
"839 622 LINE",
"391 622 LINE",
"391 551 LINE",
"477 551 LINE",
"477 21 LINE",
"558 43 LINE",
"558 551 LINE",
"839 551 LINE"
);
},
{
closed = 1;
nodes = (
"185 385 LINE",
"200 395 OFFCURVE",
"221 404 OFFCURVE",
"246 404 CURVE SMOOTH",
"306 404 OFFCURVE",
"349 355 OFFCURVE",
"349 281 CURVE SMOOTH",
"349 200 OFFCURVE",
"304 160 OFFCURVE",
"246 160 CURVE SMOOTH",
"167 160 OFFCURVE",
"113 237 OFFCURVE",
"46 396 CURVE",
"-20 364 LINE",
"55 172 OFFCURVE",
"140 88 OFFCURVE",
"247 88 CURVE SMOOTH",
"338 88 OFFCURVE",
"428 152 OFFCURVE",
"428 278 CURVE SMOOTH",
"428 406 OFFCURVE",
"342 470 OFFCURVE",
"248 470 CURVE SMOOTH",
"215 470 OFFCURVE",
"177 463 OFFCURVE",
"145 437 CURVE"
);
}
);
width = 829;
}
);
unicode = 11401;
category = Letter;
},
{
glyphname = I_iv;
lastChange = "2019-05-14 14:08:00 +0000";
layers = (
{
layerId = UUID0;
paths = (
{
closed = 1;
nodes = (
"303 176 OFFCURVE",
"356 238 OFFCURVE",
"356 316 CURVE SMOOTH",
"356 395 OFFCURVE",
"303 455 OFFCURVE",
"218 455 CURVE SMOOTH",
"129 455 OFFCURVE",
"79 391 OFFCURVE",
"79 316 CURVE SMOOTH",
"79 234 OFFCURVE",
"136 176 OFFCURVE",
"218 176 CURVE SMOOTH"
);
},
{
closed = 1;
nodes = (
"173 242 OFFCURVE",
"149 272 OFFCURVE",
"149 316 CURVE SMOOTH",
"149 356 OFFCURVE",
"169 389 OFFCURVE",
"218 389 CURVE SMOOTH",
"264 389 OFFCURVE",
"286 358 OFFCURVE",
"286 316 CURVE SMOOTH",
"286 272 OFFCURVE",
"264 242 OFFCURVE",
"218 242 CURVE SMOOTH"
);
},
{
closed = 1;
nodes = (
"97 579 OFFCURVE",
"159 551 OFFCURVE",
"236 551 CURVE SMOOTH",
"318 551 OFFCURVE",
"388 588 OFFCURVE",
"405 654 CURVE",
"354 675 LINE",
"326 646 OFFCURVE",
"282 619 OFFCURVE",
"229 619 CURVE SMOOTH",
"183 619 OFFCURVE",
"139 640 OFFCURVE",
"113 681 CURVE",
"56 650 LINE"
);
},
{
closed = 1;
nodes = (
"633 176 OFFCURVE",
"686 238 OFFCURVE",
"686 316 CURVE SMOOTH",
"686 395 OFFCURVE",
"633 455 OFFCURVE",
"548 455 CURVE SMOOTH",
"459 455 OFFCURVE",
"409 391 OFFCURVE",
"409 316 CURVE SMOOTH",
"409 234 OFFCURVE",
"466 176 OFFCURVE",
"548 176 CURVE SMOOTH"
);
},
{
closed = 1;
nodes = (
"503 242 OFFCURVE",
"479 272 OFFCURVE",
"479 316 CURVE SMOOTH",
"479 356 OFFCURVE",
"499 389 OFFCURVE",
"548 389 CURVE SMOOTH",
"594 389 OFFCURVE",
"616 358 OFFCURVE",
"616 316 CURVE SMOOTH",
"616 272 OFFCURVE",
"594 242 OFFCURVE",
"548 242 CURVE SMOOTH"
);
},
{
closed = 1;
nodes = (
"262 99 OFFCURVE",
"198 56 OFFCURVE",
"198 -12 CURVE SMOOTH",
"198 -64 OFFCURVE",
"234 -104 OFFCURVE",
"281 -104 CURVE SMOOTH",
"327 -104 OFFCURVE",
"364 -64 OFFCURVE",
"364 -13 CURVE SMOOTH",
"364 1 OFFCURVE",
"361 14 OFFCURVE",
"356 26 CURVE",
"363 27 OFFCURVE",
"370 27 OFFCURVE",
"378 27 CURVE SMOOTH",
"461 27 OFFCURVE",
"530 -22 OFFCURVE",
"602 -105 CURVE",
"670 -66 LINE",
"589 35 OFFCURVE",
"495 99 OFFCURVE",
"362 99 CURVE SMOOTH"
);
},
{
closed = 1;
nodes = (
"643 681 LINE",
"614 641 OFFCURVE",
"593 619 OFFCURVE",
"537 619 CURVE SMOOTH",
"494 619 OFFCURVE",
"447 637 OFFCURVE",
"414 675 CURVE",
"354 675 LINE",
"371 599 OFFCURVE",
"434 551 OFFCURVE",
"522 551 CURVE SMOOTH",
"603 551 OFFCURVE",
"663 580 OFFCURVE",
"704 651 CURVE"
);
}
);
width = 755;
}
);
unicode = 11402;
},
{
glyphname = II_iv;
lastChange = "2019-05-14 14:08:00 +0000";
layers = (
{
layerId = UUID0;
paths = (
{
closed = 1;
nodes = (
"763 0 LINE",
"844 0 LINE",
"844 603 LINE SMOOTH",
"844 766 OFFCURVE",
"782 793 OFFCURVE",
"734 793 CURVE SMOOTH",
"616 793 OFFCURVE",
"625 619 OFFCURVE",
"514 619 CURVE SMOOTH",
"471 619 OFFCURVE",
"447 637 OFFCURVE",
"414 675 CURVE",
"354 675 LINE",
"371 599 OFFCURVE",
"424 551 OFFCURVE",
"512 551 CURVE SMOOTH",
"662 551 OFFCURVE",
"669 723 OFFCURVE",
"724 723 CURVE SMOOTH",
"754 723 OFFCURVE",
"763 676 OFFCURVE",
"763 598 CURVE SMOOTH"
);
},
{
closed = 1;
nodes = (
"303 176 OFFCURVE",
"356 238 OFFCURVE",
"356 316 CURVE SMOOTH",
"356 395 OFFCURVE",
"303 455 OFFCURVE",
"218 455 CURVE SMOOTH",
"129 455 OFFCURVE",
"79 391 OFFCURVE",
"79 316 CURVE SMOOTH",
"79 234 OFFCURVE",
"136 176 OFFCURVE",
"218 176 CURVE SMOOTH"
);
},
{
closed = 1;
nodes = (
"173 242 OFFCURVE",
"149 272 OFFCURVE",
"149 316 CURVE SMOOTH",
"149 356 OFFCURVE",
"169 389 OFFCURVE",
"218 389 CURVE SMOOTH",
"264 389 OFFCURVE",
"286 358 OFFCURVE",
"286 316 CURVE SMOOTH",
"286 272 OFFCURVE",
"264 242 OFFCURVE",
"218 242 CURVE SMOOTH"
);
},
{
closed = 1;
nodes = (
"633 176 OFFCURVE",
"686 238 OFFCURVE",
"686 316 CURVE SMOOTH",
"686 395 OFFCURVE",
"633 455 OFFCURVE",
"548 455 CURVE SMOOTH",
"459 455 OFFCURVE",
"409 391 OFFCURVE",
"409 316 CURVE SMOOTH",
"409 234 OFFCURVE",
"466 176 OFFCURVE",
"548 176 CURVE SMOOTH"
);
},
{
closed = 1;
nodes = (
"503 242 OFFCURVE",
"479 272 OFFCURVE",
"479 316 CURVE SMOOTH",
"479 356 OFFCURVE",
"499 389 OFFCURVE",
"548 389 CURVE SMOOTH",
"594 389 OFFCURVE",
"616 358 OFFCURVE",
"616 316 CURVE SMOOTH",
"616 272 OFFCURVE",
"594 242 OFFCURVE",
"548 242 CURVE SMOOTH"
);
},
{
closed = 1;
nodes = (
"264 99 OFFCURVE",
"198 59 OFFCURVE",
"198 -13 CURVE SMOOTH",
"198 -64 OFFCURVE",
"234 -104 OFFCURVE",
"281 -104 CURVE SMOOTH",
"327 -104 OFFCURVE",
"364 -64 OFFCURVE",
"364 -13 CURVE SMOOTH",
"364 1 OFFCURVE",
"361 14 OFFCURVE",
"356 26 CURVE",
"363 27 OFFCURVE",
"370 27 OFFCURVE",
"378 27 CURVE SMOOTH",
"461 27 OFFCURVE",
"530 -22 OFFCURVE",
"602 -105 CURVE",
"670 -66 LINE",
"589 35 OFFCURVE",
"495 99 OFFCURVE",
"362 99 CURVE SMOOTH"
);
},
{
closed = 1;
nodes = (
"97 579 OFFCURVE",
"159 551 OFFCURVE",
"236 551 CURVE SMOOTH",
"318 551 OFFCURVE",
"388 588 OFFCURVE",
"405 654 CURVE",
"354 675 LINE",
"326 646 OFFCURVE",
"282 619 OFFCURVE",
"229 619 CURVE SMOOTH",
"183 619 OFFCURVE",
"139 640 OFFCURVE",
"113 681 CURVE",
"56 650 LINE"
);
}
);
width = 924;
}
);
unicode = 11403;
category = Letter;
},
{
glyphname = U_iv;
lastChange = "2019-05-14 14:08:00 +0000";
layers = (
{
layerId = UUID0;
paths = (
{
closed = 1;
nodes = (
"0 551 LINE",
"559 551 LINE",
"559 622 LINE",
"0 622 LINE"
);
},
{
closed = 1;
nodes = (
"203 334 LINE",
"348 311 OFFCURVE",
"400 235 OFFCURVE",
"400 169 CURVE SMOOTH",
"400 94 OFFCURVE",
"361 60 OFFCURVE",
"296 60 CURVE SMOOTH",
"206 60 OFFCURVE",
"138 152 OFFCURVE",
"71 340 CURVE",
"0 317 LINE",
"85 70 OFFCURVE",
"168 -12 OFFCURVE",
"300 -12 CURVE SMOOTH",
"406 -12 OFFCURVE",
"481 51 OFFCURVE",
"481 165 CURVE SMOOTH",
"481 260 OFFCURVE",
"418 345 OFFCURVE",
"296 375 CURVE"
);
},
{
closed = 1;
nodes = (
"348 554 LINE SMOOTH",
"348 488 OFFCURVE",
"312 410 OFFCURVE",
"214 399 CURVE",
"203 334 LINE",
"343 342 OFFCURVE",
"429 449 OFFCURVE",
"429 556 CURVE SMOOTH",
"429 577 LINE",
"348 569 LINE"
);
}
);
width = 549;
}
);
unicode = 11404;
},
{
glyphname = UU_iv;
lastChange = "2019-05-14 14:08:00 +0000";
layers = (
{
layerId = UUID0;
paths = (
{
closed = 1;
nodes = (
"590 -25 LINE",
"618 39 OFFCURVE",
"638 120 OFFCURVE",
"638 214 CURVE SMOOTH",
"638 322 OFFCURVE",
"594 411 OFFCURVE",
"481 411 CURVE SMOOTH",
"433 411 OFFCURVE",
"372 381 OFFCURVE",
"342 357 CURVE",
"397 313 LINE",
"421 331 OFFCURVE",
"447 342 OFFCURVE",
"473 342 CURVE SMOOTH",
"535 342 OFFCURVE",
"560 287 OFFCURVE",
"560 217 CURVE SMOOTH",
"560 130 OFFCURVE",
"541 58 OFFCURVE",
"517 3 CURVE"
);
},
{
closed = 1;
nodes = (
"0 551 LINE",
"716 551 LINE",
"716 622 LINE",
"0 622 LINE"
);
},
{
closed = 1;
nodes = (
"348 554 LINE SMOOTH",
"348 488 OFFCURVE",
"312 410 OFFCURVE",
"214 399 CURVE",
"203 334 LINE",
"343 342 OFFCURVE",
"429 449 OFFCURVE",
"429 556 CURVE SMOOTH",
"429 577 LINE",
"348 569 LINE"
);
},
{
closed = 1;
nodes = (
"203 334 LINE",
"348 311 OFFCURVE",
"400 235 OFFCURVE",
"400 169 CURVE SMOOTH",
"400 94 OFFCURVE",
"361 60 OFFCURVE",
"296 60 CURVE SMOOTH",
"206 60 OFFCURVE",
"138 152 OFFCURVE",
"71 340 CURVE",
"0 317 LINE",
"85 70 OFFCURVE",
"168 -12 OFFCURVE",
"300 -12 CURVE SMOOTH",
"406 -12 OFFCURVE",
"481 51 OFFCURVE",
"481 165 CURVE SMOOTH",
"481 260 OFFCURVE",
"418 345 OFFCURVE",
"296 375 CURVE"
);
}
);
width = 706;
}
);
unicode = 11405;
category = Letter;
},
{
glyphname = R_iv;
lastChange = "2019-05-14 14:08:00 +0000";
layers = (
{
layerId = UUID0;
paths = (
{
closed = 1;
nodes = (
"720 622 LINE",
"0 622 LINE",
"0 551 LINE",
"720 551 LINE"
);
},
{
closed = 1;
nodes = (
"549 0 LINE",
"630 0 LINE",
"630 566 LINE",
"549 566 LINE"
);
},
{
closed = 1;
nodes = (
"-5 265 LINE",
"98 110 OFFCURVE",
"241 15 OFFCURVE",
"279 15 CURVE SMOOTH",
"303 15 OFFCURVE",
"314 46 OFFCURVE",
"314 151 CURVE SMOOTH",
"314 592 LINE",
"233 592 LINE",
"233 137 LINE",
"200 139 OFFCURVE",
"99 243 OFFCURVE",
"53 319 CURVE"
);
},
{
closed = 1;
nodes = (
"122 399 LINE",
"224 303 OFFCURVE",
"309 273 OFFCURVE",
"421 273 CURVE SMOOTH",
"496 273 OFFCURVE",
"572 295 OFFCURVE",
"624 341 CURVE",
"607 405 LINE",
"550 363 OFFCURVE",
"491 345 OFFCURVE",
"423 345 CURVE SMOOTH",
"322 345 OFFCURVE",
"240 382 OFFCURVE",
"165 450 CURVE"
);
},
{
closed = 1;
nodes = (
"715 -126 LINE",
"669 -150 OFFCURVE",
"644 -159 OFFCURVE",
"602 -159 CURVE SMOOTH",
"561 -159 OFFCURVE",
"521 -140 OFFCURVE",
"521 -94 CURVE SMOOTH",
"521 -50 OFFCURVE",
"553 -19 OFFCURVE",
"631 -10 CURVE",
"624 56 LINE",
"507 49 OFFCURVE",
"447 -14 OFFCURVE",
"447 -88 CURVE SMOOTH",
"447 -172 OFFCURVE",
"507 -230 OFFCURVE",
"607 -230 CURVE SMOOTH",
"661 -230 OFFCURVE",
"706 -213 OFFCURVE",
"740 -195 CURVE"
);
}
);
width = 710;
}
);
unicode = 11406;
},
{
glyphname = Rr_iv;
lastChange = "2019-05-14 14:08:00 +0000";
layers = (
{
layerId = UUID0;
paths = (
{
closed = 1;
nodes = (
"720 622 LINE",
"0 622 LINE",
"0 551 LINE",
"720 551 LINE"
);
},
{
closed = 1;
nodes = (
"549 0 LINE",
"630 0 LINE",
"630 566 LINE",
"549 566 LINE"
);
},
{
closed = 1;
nodes = (
"-5 265 LINE",
"98 110 OFFCURVE",
"241 15 OFFCURVE",
"279 15 CURVE SMOOTH",
"303 15 OFFCURVE",
"314 46 OFFCURVE",
"314 151 CURVE SMOOTH",
"314 592 LINE",
"233 592 LINE",
"233 137 LINE",
"200 139 OFFCURVE",
"99 243 OFFCURVE",
"53 319 CURVE"
);
},
{
closed = 1;
nodes = (
"689 -108 LINE",
"657 -121 OFFCURVE",
"627 -124 OFFCURVE",
"602 -124 CURVE SMOOTH",
"554 -124 OFFCURVE",
"521 -114 OFFCURVE",
"521 -77 CURVE SMOOTH",
"521 -44 OFFCURVE",
"553 -17 OFFCURVE",
"631 -10 CURVE",
"624 56 LINE",
"507 50 OFFCURVE",
"447 -6 OFFCURVE",
"447 -69 CURVE SMOOTH",
"447 -155 OFFCURVE",
"525 -193 OFFCURVE",
"607 -193 CURVE SMOOTH",
"645 -193 OFFCURVE",
"679 -185 OFFCURVE",
"708 -174 CURVE"
);
},
{
closed = 1;
nodes = (
"755 -258 LINE",
"709 -278 OFFCURVE",
"683 -286 OFFCURVE",
"641 -286 CURVE SMOOTH",
"591 -286 OFFCURVE",
"560 -270 OFFCURVE",
"560 -233 CURVE SMOOTH",
"560 -215 OFFCURVE",
"568 -193 OFFCURVE",
"587 -177 CURVE",
"512 -150 LINE",
"496 -171 OFFCURVE",
"486 -201 OFFCURVE",
"486 -224 CURVE SMOOTH",
"486 -300 OFFCURVE",
"540 -356 OFFCURVE",
"646 -356 CURVE SMOOTH",
"700 -356 OFFCURVE",
"745 -339 OFFCURVE",
"779 -321 CURVE"
);
},
{
closed = 1;
nodes = (
"122 399 LINE",
"224 303 OFFCURVE",
"309 273 OFFCURVE",
"421 273 CURVE SMOOTH",
"496 273 OFFCURVE",
"572 295 OFFCURVE",
"624 341 CURVE",
"607 405 LINE",
"550 363 OFFCURVE",
"491 345 OFFCURVE",
"423 345 CURVE SMOOTH",
"322 345 OFFCURVE",
"240 382 OFFCURVE",
"165 450 CURVE"
);
}
);
width = 710;
}
);
unicode = 11407;
category = Letter;
},
{
glyphname = L_iv;
lastChange = "2019-05-14 14:08:00 +0000";
layers = (
{
layerId = UUID0;
paths = (
{
closed = 1;
nodes = (
"154 632 OFFCURVE",
"110 572 OFFCURVE",
"110 518 CURVE SMOOTH",
"110 469 OFFCURVE",
"146 429 OFFCURVE",
"193 429 CURVE SMOOTH",
"239 429 OFFCURVE",
"276 469 OFFCURVE",
"276 520 CURVE SMOOTH",
"276 532 OFFCURVE",
"274 544 OFFCURVE",
"270 555 CURVE",
"379 541 OFFCURVE",
"430 433 OFFCURVE",
"430 323 CURVE SMOOTH",
"430 196 OFFCURVE",
"360 66 OFFCURVE",
"261 66 CURVE SMOOTH",
"178 66 OFFCURVE",
"102 162 OFFCURVE",
"67 243 CURVE",
"0 205 LINE",
"49 92 OFFCURVE",
"141 -6 OFFCURVE",
"260 -6 CURVE SMOOTH",
"410 -6 OFFCURVE",
"510 160 OFFCURVE",
"510 323 CURVE SMOOTH",
"510 478 OFFCURVE",
"429 632 OFFCURVE",
"260 632 CURVE SMOOTH"
);
}
);
width = 560;
}
);
unicode = 11408;
},
{
glyphname = LL_iv;
lastChange = "2019-05-14 14:08:00 +0000";
layers = (
{
layerId = UUID0;
paths = (
{
closed = 1;
nodes = (
"413 -271 LINE",
"418 -254 OFFCURVE",
"422 -235 OFFCURVE",
"422 -216 CURVE SMOOTH",
"422 -35 OFFCURVE",
"77 -106 OFFCURVE",
"77 105 CURVE SMOOTH",
"77 119 OFFCURVE",
"78 146 OFFCURVE",
"81 162 CURVE",
"18 195 LINE",
"9 169 OFFCURVE",
"0 136 OFFCURVE",
"0 107 CURVE SMOOTH",
"0 -159 OFFCURVE",
"339 -101 OFFCURVE",
"339 -218 CURVE SMOOTH",
"339 -227 OFFCURVE",
"337 -236 OFFCURVE",
"334 -245 CURVE"
);
},
{
closed = 1;
nodes = (
"178 632 OFFCURVE",
"117 585 OFFCURVE",
"117 520 CURVE SMOOTH",
"117 469 OFFCURVE",
"153 429 OFFCURVE",
"200 429 CURVE SMOOTH",
"246 429 OFFCURVE",
"283 469 OFFCURVE",
"283 520 CURVE SMOOTH",
"283 532 OFFCURVE",
"281 544 OFFCURVE",
"277 555 CURVE",
"386 541 OFFCURVE",
"437 433 OFFCURVE",
"437 323 CURVE SMOOTH",
"437 196 OFFCURVE",
"375 60 OFFCURVE",
"271 60 CURVE SMOOTH",
"213 60 OFFCURVE",
"151 90 OFFCURVE",
"88 205 CURVE",
"18 195 LINE",
"66 81 OFFCURVE",
"156 -12 OFFCURVE",
"278 -12 CURVE SMOOTH",
"427 -12 OFFCURVE",
"517 160 OFFCURVE",
"517 323 CURVE SMOOTH",
"517 478 OFFCURVE",
"436 632 OFFCURVE",
"269 632 CURVE SMOOTH"
);
}
);
width = 567;
}
);
unicode = 11409;
category = Letter;
},
{
glyphname = E_iv;
lastChange = "2019-05-14 14:08:00 +0000";
layers = (
{
layerId = UUID0;
paths = (
{
closed = 1;
nodes = (
"383 163 LINE SMOOTH",
"383 98 OFFCURVE",
"354 60 OFFCURVE",
"289 60 CURVE SMOOTH",
"201 60 OFFCURVE",
"104 156 OFFCURVE",
"67 237 CURVE",
"0 199 LINE",
"51 86 OFFCURVE",
"165 -12 OFFCURVE",
"289 -12 CURVE SMOOTH",
"395 -12 OFFCURVE",
"464 42 OFFCURVE",
"464 161 CURVE SMOOTH",
"464 622 LINE",
"383 622 LINE"
);
},
{
closed = 1;
nodes = (
"384 622 LINE",
"189 595 OFFCURVE",
"67 535 OFFCURVE",
"67 435 CURVE SMOOTH",
"67 384 OFFCURVE",
"103 344 OFFCURVE",
"150 344 CURVE SMOOTH",
"196 344 OFFCURVE",
"233 384 OFFCURVE",
"233 435 CURVE SMOOTH",
"233 461 OFFCURVE",
"223 484 OFFCURVE",
"208 501 CURVE",
"244 524 OFFCURVE",
"302 543 OFFCURVE",
"396 551 CURVE"
);
}
);
width = 544;
}
);
unicode = 1140A;
},
{
glyphname = AI_iv;
lastChange = "2019-05-14 14:08:00 +0000";
layers = (
{
layerId = UUID0;
paths = (
{
closed = 1;
nodes = (
"32 860 LINE",
"109 741 OFFCURVE",
"164 736 OFFCURVE",
"216 736 CURVE SMOOTH",
"253 736 OFFCURVE",
"289 750 OFFCURVE",
"330 750 CURVE SMOOTH",
"360 750 OFFCURVE",
"399 740 OFFCURVE",
"399 693 CURVE SMOOTH",
"399 645 OFFCURVE",
"366 621 OFFCURVE",
"328 613 CURVE",
"322 546 LINE",
"441 557 OFFCURVE",
"472 622 OFFCURVE",
"472 689 CURVE SMOOTH",
"472 773 OFFCURVE",
"409 818 OFFCURVE",
"331 818 CURVE SMOOTH",
"301 818 OFFCURVE",
"247 804 OFFCURVE",
"216 804 CURVE SMOOTH",
"183 804 OFFCURVE",
"150 819 OFFCURVE",
"92 897 CURVE"
);
},
{
closed = 1;
nodes = (
"384 622 LINE",
"189 597 OFFCURVE",
"67 533 OFFCURVE",
"67 435 CURVE SMOOTH",
"67 384 OFFCURVE",
"103 344 OFFCURVE",
"150 344 CURVE SMOOTH",
"196 344 OFFCURVE",
"233 384 OFFCURVE",
"233 435 CURVE SMOOTH",
"233 461 OFFCURVE",
"223 484 OFFCURVE",
"208 501 CURVE",
"244 524 OFFCURVE",
"302 543 OFFCURVE",
"396 551 CURVE"
);
},
{
closed = 1;
nodes = (
"383 163 LINE SMOOTH",
"383 98 OFFCURVE",
"354 60 OFFCURVE",
"289 60 CURVE SMOOTH",
"201 60 OFFCURVE",
"104 156 OFFCURVE",
"67 237 CURVE",
"0 199 LINE",
"51 86 OFFCURVE",
"165 -12 OFFCURVE",
"289 -12 CURVE SMOOTH",
"395 -12 OFFCURVE",
"464 42 OFFCURVE",
"464 161 CURVE SMOOTH",
"464 642 LINE",
"383 622 LINE"
);
}
);
width = 544;
}
);
unicode = 1140B;
category = Letter;
},
{
glyphname = O_iv;
lastChange = "2019-05-14 15:44:00 +0000";
layers = (
{
layerId = UUID0;
paths = (
{
closed = 1;
nodes = (
"589 0 LINE",
"670 0 LINE",
"670 622 LINE",
"589 622 LINE"
);
},
{
closed = 1;
nodes = (
"348 554 LINE SMOOTH",
"348 488 OFFCURVE",
"312 410 OFFCURVE",
"214 399 CURVE",
"203 334 LINE",
"343 342 OFFCURVE",
"429 449 OFFCURVE",
"429 556 CURVE SMOOTH",
"429 617 LINE",
"348 620 LINE"
);
},
{
closed = 1;
nodes = (
"203 334 LINE",
"348 311 OFFCURVE",
"400 235 OFFCURVE",
"400 169 CURVE SMOOTH",
"400 94 OFFCURVE",
"361 60 OFFCURVE",
"296 60 CURVE SMOOTH",
"206 60 OFFCURVE",
"138 152 OFFCURVE",
"71 340 CURVE",
"0 317 LINE",
"85 70 OFFCURVE",
"168 -12 OFFCURVE",
"300 -12 CURVE SMOOTH",
"406 -12 OFFCURVE",
"481 51 OFFCURVE",
"481 165 CURVE SMOOTH",
"481 260 OFFCURVE",
"418 345 OFFCURVE",
"296 375 CURVE"
);
},
{
closed = 1;
nodes = (
"97 579 OFFCURVE",
"159 551 OFFCURVE",
"236 551 CURVE SMOOTH",
"318 551 OFFCURVE",
"388 588 OFFCURVE",
"405 654 CURVE",
"354 675 LINE",
"326 646 OFFCURVE",
"282 619 OFFCURVE",
"229 619 CURVE SMOOTH",
"183 619 OFFCURVE",
"139 640 OFFCURVE",
"113 681 CURVE",
"56 650 LINE"
);
},
{
closed = 1;
nodes = (
"633 681 LINE",
"604 641 OFFCURVE",
"573 619 OFFCURVE",
"527 619 CURVE SMOOTH",
"484 619 OFFCURVE",
"447 637 OFFCURVE",
"414 675 CURVE",
"354 675 LINE",
"371 599 OFFCURVE",
"424 551 OFFCURVE",
"512 551 CURVE SMOOTH",
"583 551 OFFCURVE",
"653 580 OFFCURVE",
"694 651 CURVE"
);
}
);
width = 750;
}
);
unicode = 1140C;
},
{
glyphname = AU_iv;
lastChange = "2019-05-14 14:08:00 +0000";
layers = (
{
layerId = UUID0;
paths = (
{
closed = 1;
nodes = (
"348 554 LINE SMOOTH",
"348 488 OFFCURVE",
"312 410 OFFCURVE",
"214 399 CURVE",
"203 334 LINE",
"343 342 OFFCURVE",
"429 449 OFFCURVE",
"429 556 CURVE SMOOTH",
"429 617 LINE",
"348 620 LINE"
);
},
{
closed = 1;
nodes = (
"589 0 LINE",
"670 0 LINE",
"670 622 LINE",
"589 622 LINE"
);
},
{
closed = 1;
nodes = (
"203 334 LINE",
"348 311 OFFCURVE",
"400 235 OFFCURVE",
"400 169 CURVE SMOOTH",
"400 94 OFFCURVE",
"361 60 OFFCURVE",
"296 60 CURVE SMOOTH",
"206 60 OFFCURVE",
"138 152 OFFCURVE",
"71 340 CURVE",
"0 317 LINE",
"85 70 OFFCURVE",
"168 -12 OFFCURVE",
"300 -12 CURVE SMOOTH",
"406 -12 OFFCURVE",
"481 51 OFFCURVE",
"481 165 CURVE SMOOTH",
"481 260 OFFCURVE",
"418 345 OFFCURVE",
"296 375 CURVE"
);
},
{
closed = 1;
nodes = (
"97 579 OFFCURVE",
"159 551 OFFCURVE",
"236 551 CURVE SMOOTH",
"318 551 OFFCURVE",
"388 588 OFFCURVE",
"405 654 CURVE",
"354 675 LINE",
"326 646 OFFCURVE",
"282 619 OFFCURVE",
"229 619 CURVE SMOOTH",
"183 619 OFFCURVE",
"139 640 OFFCURVE",
"113 681 CURVE",
"56 650 LINE"
);
},
{
closed = 1;
nodes = (
"497 622 OFFCURVE",
"447 637 OFFCURVE",
"414 675 CURVE",
"354 675 LINE",
"371 599 OFFCURVE",
"452 550 OFFCURVE",
"540 550 CURVE SMOOTH",
"661 550 OFFCURVE",
"707 622 OFFCURVE",
"707 689 CURVE SMOOTH",
"707 773 OFFCURVE",
"644 818 OFFCURVE",
"566 818 CURVE SMOOTH",
"536 818 OFFCURVE",
"482 804 OFFCURVE",
"451 804 CURVE SMOOTH",
"418 804 OFFCURVE",
"385 819 OFFCURVE",
"327 897 CURVE",
"267 860 LINE",
"344 741 OFFCURVE",
"399 736 OFFCURVE",
"451 736 CURVE SMOOTH",
"488 736 OFFCURVE",
"524 750 OFFCURVE",
"565 750 CURVE SMOOTH",
"595 750 OFFCURVE",
"634 740 OFFCURVE",
"634 693 CURVE SMOOTH",
"634 635 OFFCURVE",
"587 622 OFFCURVE",
"540 622 CURVE SMOOTH"
);
}
);
width = 790;
}
);
unicode = 1140D;
category = Letter;
},
{
glyphname = Ka;
lastChange = "2019-05-14 14:08:00 +0000";
layers = (
{
components = (
{
name = Ka.nohd;
}
);
layerId = UUID0;
paths = (
{
closed = 1;
nodes = (
"690 551 LINE",
"690 622 LINE",
"0 622 LINE",
"0 551 LINE"
);
}
);
width = 680;
}
);
unicode = 1140E;
category = Letter;
},
{
glyphname = Kha;
lastChange = "2019-05-14 14:08:00 +0000";
layers = (
{
components = (
{
name = Kha.nohd;
}
);
layerId = UUID0;
paths = (
{
closed = 1;
nodes = (
"661 622 LINE",
"0 622 LINE",
"0 551 LINE",
"661 551 LINE"
);
}
);
width = 651;
}
);
unicode = 1140F;
category = Letter;
},
{
glyphname = Ga;
lastChange = "2019-05-14 14:08:00 +0000";
layers = (
{
layerId = UUID0;
paths = (
{
closed = 1;
nodes = (
"496 555 LINE",
"440 589 OFFCURVE",
"364 612 OFFCURVE",
"286 612 CURVE SMOOTH",
"166 612 OFFCURVE",
"66 562 OFFCURVE",
"45 407 CURVE",
"141 407 OFFCURVE",
"221 367 OFFCURVE",
"221 281 CURVE SMOOTH",
"221 220 OFFCURVE",
"178 189 OFFCURVE",
"123 189 CURVE SMOOTH",
"89 189 OFFCURVE",
"60 199 OFFCURVE",
"29 214 CURVE",
"2 142 LINE",
"43 124 OFFCURVE",
"89 116 OFFCURVE",
"125 116 CURVE SMOOTH",
"224 116 OFFCURVE",
"297 182 OFFCURVE",
"297 284 CURVE SMOOTH",
"297 400 OFFCURVE",
"214 459 OFFCURVE",
"142 470 CURVE",
"165 520 OFFCURVE",
"232 541 OFFCURVE",
"292 541 CURVE SMOOTH",
"368 541 OFFCURVE",
"440 504 OFFCURVE",
"496 457 CURVE"
);
},
{
closed = 1;
nodes = (
"415 0 LINE",
"496 0 LINE",
"496 555 LINE",
"415 555 LINE"
);
}
);
width = 576;
}
);
unicode = 11410;
category = Letter;
},
{
glyphname = Gha;
lastChange = "2019-05-14 14:08:00 +0000";
layers = (
{
components = (
{
name = Gha.nohd;
}
);
layerId = UUID0;
paths = (
{
closed = 1;
nodes = (
"576 551 LINE",
"576 622 LINE",
"384 622 OFFCURVE",
"192 622 OFFCURVE",
"0 622 CURVE",
"0 551 LINE"
);
}
);
width = 566;
}
);
unicode = 11411;
category = Letter;
},
{
glyphname = Nga;
lastChange = "2019-05-14 14:08:00 +0000";
layers = (
{
components = (
{
name = Nga.nohd;
}
);
layerId = UUID0;
paths = (
{
closed = 1;
nodes = (
"564 622 LINE",
"0 622 LINE",
"0 551 LINE",
"564 551 LINE"
);
}
);
width = 554;
}
);
unicode = 11412;
category = Letter;
},
{
glyphname = Ngha;
lastChange = "2019-05-14 14:08:00 +0000";
layers = (
{
components = (
{
name = Ngha.nohd;
transform = "{1, 0, 0, 1, -20, 0}";
}
);
layerId = UUID0;
paths = (
{
closed = 1;
nodes = (
"640 551 LINE",
"640 622 LINE",
"0 622 LINE",
"0 551 LINE"
);
}
);
width = 630;
}
);
unicode = 11413;
category = Letter;
},
{
glyphname = Ca;
lastChange = "2019-05-14 14:08:00 +0000";
layers = (
{
components = (
{
name = Ca.nohd;
transform = "{1, 0, 0, 1, 10, 0}";
}
);
layerId = UUID0;
paths = (
{
closed = 1;
nodes = (
"569 551 LINE",
"569 622 LINE",
"0 622 LINE",
"0 551 LINE"
);
}
);
width = 559;
}
);
unicode = 11414;
category = Letter;
},
{
glyphname = Cha;
lastChange = "2019-05-14 14:08:00 +0000";
layers = (
{
components = (
{
name = Cha.nohd;
}
);
layerId = UUID0;
paths = (
{
closed = 1;
nodes = (
"727 551 LINE",
"727 622 LINE",
"0 622 LINE",
"0 551 LINE"
);
}
);
width = 717;
}
);
unicode = 11415;
category = Letter;
},
{
glyphname = Ja;
lastChange = "2019-05-14 14:08:00 +0000";
layers = (
{
components = (
{
name = Ja.nohd;
}
);
layerId = UUID0;
paths = (
{
closed = 1;
nodes = (
"0 622 LINE",
"672 622 LINE",
"672 551 LINE",
"0 551 LINE"
);
}
);
width = 662;
}
);
unicode = 11416;
category = Letter;
},
{
glyphname = Jha;
lastChange = "2019-05-14 14:08:00 +0000";
layers = (
{
components = (
{
name = Jha.nohd;
transform = "{1, 0, 0, 1, -5, 0}";
}
);
layerId = UUID0;
paths = (
{
closed = 1;
nodes = (
"666 622 LINE",
"-5 622 LINE",
"-5 551 LINE",
"666 551 LINE"
);
}
);
width = 656;
}
);
unicode = 11417;
category = Letter;
},
{
glyphname = Nya;
lastChange = "2019-05-14 14:08:00 +0000";
layers = (
{
layerId = UUID0;
paths = (
{
closed = 1;
nodes = (
"711 6 LINE",
"684 49 OFFCURVE",
"644 96 OFFCURVE",
"619 131 CURVE SMOOTH",
"596 163 OFFCURVE",
"573 187 OFFCURVE",
"541 187 CURVE SMOOTH",
"511 187 OFFCURVE",
"489 166 OFFCURVE",
"489 134 CURVE SMOOTH",
"489 93 OFFCURVE",
"524 74 OFFCURVE",
"560 74 CURVE SMOOTH",
"660 74 OFFCURVE",
"741 146 OFFCURVE",
"741 239 CURVE SMOOTH",
"741 299 OFFCURVE",
"694 366 OFFCURVE",
"605 381 CURVE",
"563 331 LINE",
"625 330 OFFCURVE",
"668 289 OFFCURVE",
"668 236 CURVE SMOOTH",
"668 182 OFFCURVE",
"635 134 OFFCURVE",
"574 134 CURVE",
"559 108 LINE",
"588 75 OFFCURVE",
"621 33 OFFCURVE",
"657 -27 CURVE"
);
},
{
closed = 1;
nodes = (
"541 329 LINE",
"616 332 OFFCURVE",
"707 378 OFFCURVE",
"707 485 CURVE SMOOTH",
"707 547 OFFCURVE",
"671 619 OFFCURVE",
"574 619 CURVE SMOOTH",
"491 619 OFFCURVE",
"444 565 OFFCURVE",
"412 525 CURVE",
"433 459 LINE",
"471 500 OFFCURVE",
"518 548 OFFCURVE",
"572 548 CURVE SMOOTH",
"614 548 OFFCURVE",
"638 510 OFFCURVE",
"638 476 CURVE SMOOTH",
"638 431 OFFCURVE",
"613 390 OFFCURVE",
"538 390 CURVE"
);
},
{
closed = 1;
nodes = (
"189 627 OFFCURVE",
"141 579 OFFCURVE",
"141 515 CURVE SMOOTH",
"141 464 OFFCURVE",
"177 424 OFFCURVE",
"224 424 CURVE SMOOTH",
"270 424 OFFCURVE",
"307 464 OFFCURVE",
"307 515 CURVE SMOOTH",
"307 525 OFFCURVE",
"306 535 OFFCURVE",
"303 543 CURVE",
"371 516 OFFCURVE",
"402 416 OFFCURVE",
"402 309 CURVE SMOOTH",
"402 173 OFFCURVE",
"352 60 OFFCURVE",
"261 60 CURVE SMOOTH",
"179 60 OFFCURVE",
"109 168 OFFCURVE",
"77 255 CURVE",
"10 216 LINE",
"56 92 OFFCURVE",
"141 -12 OFFCURVE",
"256 -12 CURVE SMOOTH",
"397 -12 OFFCURVE",
"483 133 OFFCURVE",
"483 310 CURVE SMOOTH",
"483 478 OFFCURVE",
"410 627 OFFCURVE",
"256 627 CURVE SMOOTH"
);
}
);
width = 781;
}
);
unicode = 11418;
category = Letter;
},
{
glyphname = Nyha;
lastChange = "2019-05-14 14:08:00 +0000";
layers = (
{
components = (
{
name = Nyha.nohd;
}
);
layerId = UUID0;
paths = (
{
closed = 1;
nodes = (
"740 551 LINE",
"740 622 LINE",
"0 622 LINE",
"0 551 LINE"
);
}
);
width = 730;
}
);
unicode = 11419;
category = Letter;
},
{
glyphname = Tta;
lastChange = "2019-05-14 14:08:00 +0000";
layers = (
{
components = (
{
name = Tta.nohd;
}
);
layerId = UUID0;
paths = (
{
closed = 1;
nodes = (
"553 551 LINE",
"553 622 LINE",
"0 622 LINE",
"0 551 LINE"
);
}
);
width = 533;
}
);
unicode = 1141A;
category = Letter;
},
{
glyphname = Ttha;
lastChange = "2019-05-14 14:08:00 +0000";
layers = (
{
layerId = UUID0;
paths = (
{
closed = 1;
nodes = (
"40 78 OFFCURVE",
"171 -12 OFFCURVE",
"311 -12 CURVE SMOOTH",
"451 -12 OFFCURVE",
"582 78 OFFCURVE",
"582 268 CURVE SMOOTH",
"582 471 OFFCURVE",
"411 630 OFFCURVE",
"311 630 CURVE SMOOTH",
"221 630 OFFCURVE",
"40 471 OFFCURVE",
"40 268 CURVE SMOOTH"
);
},
{
closed = 1;
nodes = (
"120 430 OFFCURVE",
"249 558 OFFCURVE",
"309 558 CURVE SMOOTH",
"370 558 OFFCURVE",
"502 430 OFFCURVE",
"502 268 CURVE SMOOTH",
"502 119 OFFCURVE",
"410 60 OFFCURVE",
"309 60 CURVE SMOOTH",
"209 60 OFFCURVE",
"120 119 OFFCURVE",
"120 268 CURVE SMOOTH"
);
}
);
width = 622;
}
);
unicode = 1141B;
category = Letter;
},
{
glyphname = Dda;
lastChange = "2019-05-14 14:08:00 +0000";
layers = (
{
components = (
{
name = Dda.nohd;
}
);
layerId = UUID0;
paths = (
{
closed = 1;
nodes = (
"542 551 LINE",
"542 622 LINE",
"0 622 LINE",
"0 551 LINE"
);
}
);
width = 532;
}
);
unicode = 1141C;
category = Letter;
},
{
glyphname = Ddha;
lastChange = "2019-05-14 14:08:00 +0000";
layers = (
{
components = (
{
name = Ddha.nohd;
}
);
layerId = UUID0;
paths = (
{
closed = 1;
nodes = (
"590 551 LINE",
"590 622 LINE",
"0 622 LINE",
"0 551 LINE"
);
}
);
width = 580;
}
);
unicode = 1141D;
category = Letter;
},
{
glyphname = Nna;
lastChange = "2019-05-14 14:08:00 +0000";
layers = (
{
layerId = UUID0;
paths = (
{
closed = 1;
nodes = (
"498 0 LINE",
"498 622 LINE",
"417 622 LINE",
"417 0 LINE"
);
},
{
closed = 1;
nodes = (
"328 204 LINE",
"291 172 OFFCURVE",
"253 151 OFFCURVE",
"203 151 CURVE SMOOTH",
"162 151 OFFCURVE",
"104 179 OFFCURVE",
"104 252 CURVE SMOOTH",
"104 323 OFFCURVE",
"151 358 OFFCURVE",
"242 361 CURVE",
"242 425 LINE",
"111 422 OFFCURVE",
"25 354 OFFCURVE",
"25 251 CURVE SMOOTH",
"25 142 OFFCURVE",
"103 81 OFFCURVE",
"207 81 CURVE SMOOTH",
"267 81 OFFCURVE",
"327 108 OFFCURVE",
"368 148 CURVE"
);
},
{
closed = 1;
nodes = (
"477 481 LINE",
"407 586 OFFCURVE",
"311 632 OFFCURVE",
"219 632 CURVE SMOOTH",
"130 632 OFFCURVE",
"53 587 OFFCURVE",
"53 494 CURVE SMOOTH",
"53 419 OFFCURVE",
"112 368 OFFCURVE",
"171 369 CURVE",
"239 425 LINE",
"177 425 OFFCURVE",
"132 440 OFFCURVE",
"132 492 CURVE SMOOTH",
"132 537 OFFCURVE",
"176 559 OFFCURVE",
"226 559 CURVE SMOOTH",
"302 559 OFFCURVE",
"394 514 OFFCURVE",
"450 398 CURVE"
);
}
);
width = 578;
}
);
unicode = 1141E;
category = Letter;
},
{
glyphname = Ta;
lastChange = "2019-05-14 14:08:00 +0000";
layers = (
{
components = (
{
name = Ta.nohd;
transform = "{1, 0, 0, 1, 31, 0}";
}
);
layerId = UUID0;
paths = (
{
closed = 1;
nodes = (
"605 622 LINE",
"0 622 LINE",
"0 551 LINE",
"605 551 LINE"
);
}
);
width = 595;
}
);
unicode = 1141F;
category = Letter;
},
{
glyphname = Tha;
lastChange = "2019-05-14 14:08:00 +0000";
layers = (
{
layerId = UUID0;
paths = (
{
closed = 1;
nodes = (
"560 0 LINE",
"560 622 LINE",
"479 622 LINE",
"479 0 LINE"
);
},
{
closed = 1;
nodes = (
"505 257 LINE",
"464 197 OFFCURVE",
"370 169 OFFCURVE",
"305 169 CURVE SMOOTH",
"239 169 OFFCURVE",
"176 191 OFFCURVE",
"159 249 CURVE",
"221 289 OFFCURVE",
"307 348 OFFCURVE",
"307 484 CURVE SMOOTH",
"307 569 OFFCURVE",
"257 632 OFFCURVE",
"177 632 CURVE SMOOTH",
"91 632 OFFCURVE",
"45 568 OFFCURVE",
"45 507 CURVE SMOOTH",
"45 441 OFFCURVE",
"89 379 OFFCURVE",
"185 379 CURVE SMOOTH",
"210 379 OFFCURVE",
"228 388 OFFCURVE",
"250 409 CURVE",
"250 478 LINE",
"232 459 OFFCURVE",
"214 446 OFFCURVE",
"185 446 CURVE SMOOTH",
"153 446 OFFCURVE",
"120 469 OFFCURVE",
"120 511 CURVE SMOOTH",
"120 548 OFFCURVE",
"147 566 OFFCURVE",
"172 566 CURVE SMOOTH",
"208 566 OFFCURVE",
"232 532 OFFCURVE",
"232 482 CURVE SMOOTH",
"232 363 OFFCURVE",
"152 311 OFFCURVE",
"71 279 CURVE",
"85 167 OFFCURVE",
"179 98 OFFCURVE",
"299 98 CURVE SMOOTH",
"363 98 OFFCURVE",
"477 125 OFFCURVE",
"514 191 CURVE"
);
}
);
width = 640;
}
);
unicode = 11420;
category = Letter;
},
{
glyphname = Da;
lastChange = "2019-05-14 14:08:00 +0000";
layers = (
{
components = (
{
name = Da.nohd;
}
);
layerId = UUID0;
paths = (
{
closed = 1;
nodes = (
"575 551 LINE",
"575 622 LINE",
"0 622 LINE",
"0 551 LINE"
);
}
);
width = 565;
}
);
unicode = 11421;
category = Letter;
},
{
glyphname = Dha;
lastChange = "2019-05-14 14:08:00 +0000";
layers = (
{
layerId = UUID0;
paths = (
{
closed = 1;
nodes = (
"395 0 LINE",
"476 0 LINE",
"476 622 LINE",
"395 622 LINE"
);
},
{
closed = 1;
nodes = (
"40 553 LINE SMOOTH",
"40 392 OFFCURVE",
"93 338 OFFCURVE",
"246 328 CURVE",
"309 385 LINE",
"140 386 OFFCURVE",
"121 437 OFFCURVE",
"121 562 CURVE SMOOTH",
"121 622 LINE",
"40 622 LINE"
);
},
{
closed = 1;
nodes = (
"421 366 LINE",
"377 380 OFFCURVE",
"314 388 OFFCURVE",
"261 388 CURVE SMOOTH",
"158 388 OFFCURVE",
"46 344 OFFCURVE",
"46 227 CURVE SMOOTH",
"46 119 OFFCURVE",
"144 81 OFFCURVE",
"243 81 CURVE SMOOTH",
"324 81 OFFCURVE",
"362 101 OFFCURVE",
"410 132 CURVE",
"415 221 LINE",
"379 177 OFFCURVE",
"326 151 OFFCURVE",
"245 151 CURVE SMOOTH",
"186 151 OFFCURVE",
"126 172 OFFCURVE",
"126 229 CURVE SMOOTH",
"126 299 OFFCURVE",
"197 318 OFFCURVE",
"264 318 CURVE SMOOTH",
"309 318 OFFCURVE",
"371 308 OFFCURVE",
"413 298 CURVE"
);
}
);
width = 556;
}
);
unicode = 11422;
category = Letter;
},
{
glyphname = Na;
lastChange = "2019-05-14 14:08:00 +0000";
layers = (
{
components = (
{
name = Na.nohd;
transform = "{1, 0, 0, 1, 16, 0}";
}
);
layerId = UUID0;
paths = (
{
closed = 1;
nodes = (
"552 551 LINE",
"552 622 LINE",
"0 622 LINE",
"0 551 LINE"
);
}
);
width = 542;
}
);
unicode = 11423;
category = Letter;
},
{
glyphname = Nha;
lastChange = "2019-05-14 14:08:00 +0000";
layers = (
{
components = (
{
name = Nha.nohd;
}
);
layerId = UUID0;
paths = (
{
closed = 1;
nodes = (
"0 622 LINE",
"0 551 LINE",
"710 551 LINE",
"710 622 LINE"
);
}
);
width = 700;
}
);
unicode = 11424;
category = Letter;
},
{
glyphname = Pa;
lastChange = "2019-05-14 14:08:00 +0000";
layers = (
{
layerId = UUID0;
paths = (
{
closed = 1;
nodes = (
"410 257 LINE",
"374 211 OFFCURVE",
"316 171 OFFCURVE",
"240 171 CURVE SMOOTH",
"167 171 OFFCURVE",
"125 209 OFFCURVE",
"125 285 CURVE SMOOTH",
"125 354 OFFCURVE",
"177 397 OFFCURVE",
"177 461 CURVE SMOOTH",
"177 500 OFFCURVE",
"166 537 OFFCURVE",
"140 574 CURVE",
"63 564 LINE",
"76 541 OFFCURVE",
"97 503 OFFCURVE",
"97 457 CURVE SMOOTH",
"97 400 OFFCURVE",
"45 363 OFFCURVE",
"45 279 CURVE SMOOTH",
"45 170 OFFCURVE",
"114 100 OFFCURVE",
"234 100 CURVE SMOOTH",
"312 100 OFFCURVE",
"370 130 OFFCURVE",
"407 159 CURVE"
);
},
{
closed = 1;
nodes = (
"481 0 LINE",
"481 551 LINE",
"571 551 LINE",
"571 622 LINE",
"0 622 LINE",
"0 551 LINE",
"400 551 LINE",
"400 0 LINE"
);
}
);
width = 561;
}
);
unicode = 11425;
category = Letter;
},
{
glyphname = Pha;
lastChange = "2019-05-14 14:08:00 +0000";
layers = (
{
layerId = UUID0;
paths = (
{
closed = 1;
nodes = (
"168 349 LINE",
"262 363 OFFCURVE",
"361 405 OFFCURVE",
"361 520 CURVE SMOOTH",
"361 551 LINE",
"630 551 LINE",
"630 622 LINE",
"0 622 LINE",
"0 551 LINE",
"280 551 LINE",
"280 518 LINE SMOOTH",
"280 445 OFFCURVE",
"172 403 OFFCURVE",
"52 401 CURVE",
"53 382 LINE",
"355 -29 LINE",
"419 0 LINE"
);
},
{
closed = 1;
nodes = (
"309 296 LINE",
"307 287 OFFCURVE",
"306 278 OFFCURVE",
"306 269 CURVE SMOOTH",
"306 201 OFFCURVE",
"358 147 OFFCURVE",
"431 147 CURVE SMOOTH",
"509 147 OFFCURVE",
"547 206 OFFCURVE",
"547 267 CURVE SMOOTH",
"547 327 OFFCURVE",
"498 388 OFFCURVE",
"426 388 CURVE SMOOTH",
"337 388 OFFCURVE",
"271 310 OFFCURVE",
"242 229 CURVE",
"296 164 LINE",
"314 249 OFFCURVE",
"368 318 OFFCURVE",
"425 318 CURVE SMOOTH",
"452 318 OFFCURVE",
"476 301 OFFCURVE",
"476 265 CURVE SMOOTH",
"476 238 OFFCURVE",
"455 216 OFFCURVE",
"431 216 CURVE SMOOTH",
"399 216 OFFCURVE",
"373 237 OFFCURVE",
"373 278 CURVE SMOOTH",
"373 293 OFFCURVE",
"377 311 OFFCURVE",
"384 329 CURVE"
);
}
);
width = 620;
}
);
unicode = 11426;
category = Letter;
},
{
glyphname = Ba;
lastChange = "2019-05-14 14:08:00 +0000";
layers = (
{
layerId = UUID0;
paths = (
{
closed = 1;
nodes = (
"576 622 LINE",
"0 622 LINE",
"0 551 LINE",
"405 551 LINE",
"405 219 LINE",
"370 186 OFFCURVE",
"321 167 OFFCURVE",
"260 167 CURVE SMOOTH",
"187 167 OFFCURVE",
"131 205 OFFCURVE",
"131 287 CURVE SMOOTH",
"131 357 OFFCURVE",
"184 401 OFFCURVE",
"272 401 CURVE SMOOTH",
"352 401 OFFCURVE",
"405 376 OFFCURVE",
"431 363 CURVE",
"447 429 LINE",
"426 444 OFFCURVE",
"359 470 OFFCURVE",
"269 470 CURVE SMOOTH",
"138 470 OFFCURVE",
"50 400 OFFCURVE",
"50 286 CURVE SMOOTH",
"50 175 OFFCURVE",
"132 98 OFFCURVE",
"257 98 CURVE SMOOTH",
"319 98 OFFCURVE",
"369 115 OFFCURVE",
"405 141 CURVE",
"405 0 LINE",
"486 0 LINE",
"486 551 LINE",
"576 551 LINE"
);
}
);
width = 566;
}
);
unicode = 11427;
category = Letter;
},
{
glyphname = Bha;
lastChange = "2019-05-14 14:08:00 +0000";
layers = (
{
components = (
{
name = Bha.nohd;
transform = "{1, 0, 0, 1, 30, 0}";
}
);
layerId = UUID0;
paths = (
{
closed = 1;
nodes = (
"554 622 LINE",
"0 622 LINE",
"0 551 LINE",
"554 551 LINE"
);
}
);
width = 544;
}
);
unicode = 11428;
category = Letter;
},
{
glyphname = Ma;
lastChange = "2019-05-14 14:08:00 +0000";
layers = (
{
layerId = UUID0;
paths = (
{
closed = 1;
nodes = (
"508 0 LINE",
"508 551 LINE",
"598 551 LINE",
"598 622 LINE",
"0 622 LINE",
"0 551 LINE",
"105 551 LINE",
"105 270 LINE",
"186 205 LINE",
"186 551 LINE",
"427 551 LINE",
"427 0 LINE"
);
},
{
closed = 1;
nodes = (
"111 317 OFFCURVE",
"20 296 OFFCURVE",
"20 205 CURVE SMOOTH",
"20 154 OFFCURVE",
"56 114 OFFCURVE",
"103 114 CURVE SMOOTH",
"149 114 OFFCURVE",
"186 154 OFFCURVE",
"186 205 CURVE SMOOTH",
"186 219 OFFCURVE",
"183 233 OFFCURVE",
"178 245 CURVE",
"190 246 OFFCURVE",
"203 247 OFFCURVE",
"219 247 CURVE SMOOTH",
"299 247 OFFCURVE",
"415 206 OFFCURVE",
"438 142 CURVE",
"455 243 LINE",
"381 297 OFFCURVE",
"297 317 OFFCURVE",
"209 317 CURVE SMOOTH"
);
}
);
width = 588;
}
);
unicode = 11429;
category = Letter;
},
{
glyphname = Mha;
lastChange = "2019-05-14 14:08:00 +0000";
layers = (
{
components = (
{
name = Mha.nohd;
}
);
layerId = UUID0;
paths = (
{
closed = 1;
nodes = (
"0 622 LINE",
"0 551 LINE",
"868 551 LINE",
"868 622 LINE"
);
}
);
width = 858;
}
);
unicode = 1142A;
category = Letter;
},
{
glyphname = Ya;
lastChange = "2019-05-14 14:08:00 +0000";
layers = (
{
components = (
{
name = Ya.nohd;
}
);
layerId = UUID0;
paths = (
{
closed = 1;
nodes = (
"579 551 LINE",
"579 622 LINE",
"0 622 LINE",
"0 551 LINE"
);
}
);
width = 569;
}
);
unicode = 1142B;
category = Letter;
},
{
glyphname = Ra;
lastChange = "2019-05-14 14:08:00 +0000";
layers = (
{
components = (
{
name = Ra.nohd;
transform = "{1, 0, 0, 1, 20, 0}";
}
);
layerId = UUID0;
paths = (
{
closed = 1;
nodes = (
"546 551 LINE",
"546 622 LINE",
"0 622 LINE",
"0 551 LINE"
);
}
);
width = 536;
}
);
unicode = 1142C;
category = Letter;
},
{
glyphname = Rha;
lastChange = "2019-05-14 14:08:00 +0000";
layers = (
{
components = (
{
name = Rha.nohd;
transform = "{1, 0, 0, 1, 1, 0}";
}
);
layerId = UUID0;
paths = (
{
closed = 1;
nodes = (
"0 622 LINE",
"0 551 LINE",
"701 551 LINE",
"701 622 LINE"
);
}
);
width = 691;
}
);
unicode = 1142D;
category = Letter;
},
{
glyphname = La;
lastChange = "2019-05-14 14:08:00 +0000";
layers = (
{
layerId = UUID0;
paths = (
{
closed = 1;
nodes = (
"487 551 LINE",
"487 0 LINE",
"568 0 LINE",
"568 551 LINE",
"658 551 LINE",
"658 622 LINE",
"0 622 LINE",
"0 551 LINE"
);
},
{
closed = 1;
nodes = (
"391 467 OFFCURVE",
"336 450 OFFCURVE",
"301 409 CURVE",
"269 446 OFFCURVE",
"222 467 OFFCURVE",
"171 467 CURVE SMOOTH",
"75 467 OFFCURVE",
"15 402 OFFCURVE",
"15 322 CURVE SMOOTH",
"15 253 OFFCURVE",
"70 190 OFFCURVE",
"122 121 CURVE SMOOTH",
"222 -11 LINE",
"283 34 LINE",
"178 174 LINE SMOOTH",
"130 238 OFFCURVE",
"97 272 OFFCURVE",
"97 319 CURVE SMOOTH",
"97 376 OFFCURVE",
"139 399 OFFCURVE",
"172 399 CURVE SMOOTH",
"221 399 OFFCURVE",
"264 365 OFFCURVE",
"264 308 CURVE SMOOTH",
"264 300 LINE",
"338 300 LINE",
"338 395 OFFCURVE",
"411 399 OFFCURVE",
"440 399 CURVE SMOOTH",
"472 399 OFFCURVE",
"499 389 OFFCURVE",
"507 387 CURVE",
"520 458 LINE",
"503 462 OFFCURVE",
"474 467 OFFCURVE",
"436 467 CURVE SMOOTH"
);
}
);
width = 648;
}
);
unicode = 1142E;
category = Letter;
},
{
glyphname = Lha;
lastChange = "2019-05-14 14:08:00 +0000";
layers = (
{
components = (
{
name = Lha.nohd;
transform = "{1, 0, 0, 1, 20, 0}";
}
);
layerId = UUID0;
paths = (
{
closed = 1;
nodes = (
"740 551 LINE",
"740 622 LINE",
"0 622 LINE",
"0 551 LINE"
);
}
);
width = 730;
}
);
unicode = 1142F;
category = Letter;
},
{
glyphname = Wa;
lastChange = "2019-05-14 14:08:00 +0000";
layers = (
{
components = (
{
name = Wa.nohd;
transform = "{1, 0, 0, 1, 4, 0}";
}
);
layerId = UUID0;
paths = (
{
closed = 1;
nodes = (
"610 622 LINE",
"0 622 LINE",
"0 551 LINE",
"610 551 LINE"
);
}
);
width = 600;
}
);
unicode = 11430;
category = Letter;
},
{
glyphname = Sha;
lastChange = "2019-05-14 14:08:00 +0000";
layers = (
{
layerId = UUID0;
paths = (
{
closed = 1;
nodes = (
"490 622 LINE",
"490 0 LINE",
"571 0 LINE",
"571 622 LINE"
);
},
{
closed = 1;
nodes = (
"461 388 OFFCURVE",
"411 430 OFFCURVE",
"379 592 CURVE",
"315 611 LINE",
"320 435 OFFCURVE",
"397 325 OFFCURVE",
"515 260 CURVE",
"528 329 LINE"
);
},
{
closed = 1;
nodes = (
"300 235 OFFCURVE",
"329 300 OFFCURVE",
"329 350 CURVE SMOOTH",
"329 499 OFFCURVE",
"168 510 OFFCURVE",
"73 629 CURVE",
"20 594 LINE",
"85 480 OFFCURVE",
"254 457 OFFCURVE",
"254 363 CURVE SMOOTH",
"254 326 OFFCURVE",
"236 301 OFFCURVE",
"199 301 CURVE SMOOTH",
"163 301 OFFCURVE",
"145 326 OFFCURVE",
"145 363 CURVE SMOOTH",
"145 457 OFFCURVE",
"314 480 OFFCURVE",
"379 594 CURVE",
"326 629 LINE",
"231 510 OFFCURVE",
"70 499 OFFCURVE",
"70 350 CURVE SMOOTH",
"70 300 OFFCURVE",
"99 235 OFFCURVE",
"199 235 CURVE SMOOTH"
);
}
);
width = 651;
}
);
unicode = 11431;
category = Letter;
},
{
glyphname = Ssa;
lastChange = "2019-05-14 14:08:00 +0000";
layers = (
{
layerId = UUID0;
paths = (
{
closed = 1;
nodes = (
"417 230 LINE",
"459 286 LINE",
"154 522 LINE",
"116 463 LINE"
);
},
{
closed = 1;
nodes = (
"410 257 LINE",
"374 211 OFFCURVE",
"316 171 OFFCURVE",
"240 171 CURVE SMOOTH",
"167 171 OFFCURVE",
"125 209 OFFCURVE",
"125 285 CURVE SMOOTH",
"125 354 OFFCURVE",
"177 397 OFFCURVE",
"177 461 CURVE SMOOTH",
"177 491 OFFCURVE",
"174 537 OFFCURVE",
"148 574 CURVE",
"63 564 LINE",
"76 541 OFFCURVE",
"97 503 OFFCURVE",
"97 457 CURVE SMOOTH",
"97 400 OFFCURVE",
"45 363 OFFCURVE",
"45 279 CURVE SMOOTH",
"45 170 OFFCURVE",
"114 100 OFFCURVE",
"234 100 CURVE SMOOTH",
"312 100 OFFCURVE",
"370 130 OFFCURVE",
"407 159 CURVE"
);
},
{
closed = 1;
nodes = (
"481 0 LINE",
"481 551 LINE",
"571 551 LINE",
"571 622 LINE",
"0 622 LINE",
"0 551 LINE",
"400 551 LINE",
"400 0 LINE"
);
}
);
width = 561;
}
);
unicode = 11432;
category = Letter;
},
{
glyphname = Sa;
lastChange = "2019-05-14 14:08:00 +0000";
layers = (
{
layerId = UUID0;
paths = (
{
closed = 1;
nodes = (
"581 551 LINE",
"581 622 LINE",
"243 622 LINE",
"243 551 LINE",
"410 551 LINE",
"410 0 LINE",
"491 0 LINE",
"491 551 LINE"
);
},
{
closed = 1;
nodes = (
"398 622 LINE",
"-10 622 LINE",
"-10 551 LINE",
"398 551 LINE"
);
},
{
closed = 1;
nodes = (
"94 289 LINE",
"148 301 OFFCURVE",
"213 346 OFFCURVE",
"213 457 CURVE SMOOTH",
"213 515 OFFCURVE",
"191 545 OFFCURVE",
"170 571 CURVE",
"90 553 LINE",
"117 535 OFFCURVE",
"132 500 OFFCURVE",
"132 458 CURVE SMOOTH",
"132 397 OFFCURVE",
"102 333 OFFCURVE",
"21 331 CURVE",
"16 271 LINE",
"204 0 LINE",
"300 0 LINE"
);
},
{
closed = 1;
nodes = (
"461 286 LINE",
"358 313 OFFCURVE",
"238 333 OFFCURVE",
"116 333 CURVE SMOOTH",
"83 333 OFFCURVE",
"54 333 OFFCURVE",
"21 331 CURVE",
"37 262 LINE",
"64 263 OFFCURVE",
"75 262 OFFCURVE",
"102 262 CURVE SMOOTH",
"238 262 OFFCURVE",
"343 242 OFFCURVE",
"461 215 CURVE"
);
}
);
width = 571;
}
);
unicode = 11433;
category = Letter;
},
{
glyphname = Ha;
lastChange = "2019-05-14 14:08:00 +0000";
layers = (
{
layerId = UUID0;
paths = (
{
closed = 1;
nodes = (
"0 622 LINE",
"0 551 LINE",
"321 551 LINE",
"321 539 LINE SMOOTH",
"321 436 OFFCURVE",
"20 473 OFFCURVE",
"20 302 CURVE SMOOTH",
"20 206 OFFCURVE",
"88 182 OFFCURVE",
"136 182 CURVE SMOOTH",
"218 182 OFFCURVE",
"260 254 OFFCURVE",
"340 254 CURVE SMOOTH",
"391 254 OFFCURVE",
"400 226 OFFCURVE",
"400 197 CURVE SMOOTH",
"400 159 OFFCURVE",
"376 125 OFFCURVE",
"365 112 CURVE",
"427 79 LINE",
"438 90 OFFCURVE",
"480 137 OFFCURVE",
"480 202 CURVE SMOOTH",
"480 272 OFFCURVE",
"439 326 OFFCURVE",
"358 326 CURVE SMOOTH",
"264 326 OFFCURVE",
"225 256 OFFCURVE",
"156 256 CURVE SMOOTH",
"128 256 OFFCURVE",
"100 267 OFFCURVE",
"100 302 CURVE SMOOTH",
"100 421 OFFCURVE",
"402 384 OFFCURVE",
"402 537 CURVE SMOOTH",
"402 551 LINE",
"485 551 LINE",
"485 622 LINE"
);
},
{
closed = 1;
nodes = (
"288 -6 LINE",
"181 62 OFFCURVE",
"105 155 OFFCURVE",
"105 256 CURVE",
"20 302 LINE",
"20 126 OFFCURVE",
"115 26 OFFCURVE",
"261 -63 CURVE"
);
}
);
width = 475;
}
);
unicode = 11434;
category = Letter;
},
{
glyphname = AA_dv;
lastChange = "2019-05-14 14:08:00 +0000";
layers = (
{
layerId = UUID0;
paths = (
{
closed = 1;
nodes = (
"131 0 LINE",
"131 551 LINE",
"221 551 LINE",
"221 622 LINE",
"0 622 LINE",
"0 551 LINE",
"50 551 LINE",
"50 0 LINE"
);
}
);
width = 211;
}
);
unicode = 11435;
category = Letter;
},
{
glyphname = I_dv;
lastChange = "2019-05-14 14:08:00 +0000";
layers = (
{
layerId = UUID0;
paths = (
{
closed = 1;
nodes = (
"50 0 LINE",
"131 0 LINE",
"131 551 LINE",
"251 551 LINE",
"251 622 LINE",
"0 622 LINE",
"0 551 LINE",
"50 551 LINE"
);
},
{
closed = 1;
nodes = (
"131 618 LINE",
"110 644 OFFCURVE",
"92 686 OFFCURVE",
"92 720 CURVE SMOOTH",
"92 741 OFFCURVE",
"96 793 OFFCURVE",
"177 793 CURVE SMOOTH",
"238 793 OFFCURVE",
"298 757 OFFCURVE",
"365 706 CURVE SMOOTH",
"543 569 LINE",
"585 619 LINE",
"427 740 LINE SMOOTH",
"323 819 OFFCURVE",
"254 865 OFFCURVE",
"164 865 CURVE SMOOTH",
"56 865 OFFCURVE",
"11 805 OFFCURVE",
"11 733 CURVE SMOOTH",
"11 686 OFFCURVE",
"33 639 OFFCURVE",
"52 614 CURVE"
);
}
);
width = 211;
}
);
unicode = 11436;
},
{
glyphname = II_dv;
lastChange = "2019-05-14 14:08:00 +0000";
layers = (
{
layerId = UUID0;
paths = (
{
closed = 1;
nodes = (
"3 747 LINE SMOOTH",
"-46 796 OFFCURVE",
"-96 835 OFFCURVE",
"-161 835 CURVE SMOOTH",
"-227 835 OFFCURVE",
"-265 786 OFFCURVE",
"-265 723 CURVE SMOOTH",
"-265 664 OFFCURVE",
"-239 619 OFFCURVE",
"-221 591 CURVE",
"-155 620 LINE",
"-172 647 OFFCURVE",
"-188 679 OFFCURVE",
"-188 718 CURVE SMOOTH",
"-188 747 OFFCURVE",
"-170 763 OFFCURVE",
"-148 763 CURVE SMOOTH",
"-114 763 OFFCURVE",
"-79 731 OFFCURVE",
"-42 697 CURVE SMOOTH",
"41 622 LINE",
"0 622 LINE",
"0 551 LINE",
"50 551 LINE",
"50 0 LINE",
"131 0 LINE",
"131 551 LINE",
"251 551 LINE",
"251 622 LINE",
"128 622 LINE"
);
}
);
width = 211;
}
);
unicode = 11437;
category = Letter;
},
{
glyphname = U_dv;
lastChange = "2019-05-14 14:08:00 +0000";
layers = (
{
layerId = UUID0;
paths = (
{
closed = 1;
nodes = (
"0 -229 LINE",
"-55 -135 OFFCURVE",
"-171 -61 OFFCURVE",
"-301 -61 CURVE SMOOTH",
"-362 -61 OFFCURVE",
"-400 -75 OFFCURVE",
"-431 -92 CURVE",
"-405 -161 LINE",
"-387 -150 OFFCURVE",
"-354 -133 OFFCURVE",
"-300 -133 CURVE SMOOTH",
"-187 -133 OFFCURVE",
"-105 -200 OFFCURVE",
"-64 -271 CURVE"
);
}
);
width = 0;
}
);
unicode = 11438;
category = Mark;
},
{
glyphname = UU_dv;
lastChange = "2019-05-14 14:08:00 +0000";
layers = (
{
layerId = UUID0;
paths = (
{
closed = 1;
nodes = (
"-233 15 LINE",
"-233 -63 LINE SMOOTH",
"-233 -98 OFFCURVE",
"-258 -172 OFFCURVE",
"-319 -172 CURVE SMOOTH",
"-343 -172 OFFCURVE",
"-361 -158 OFFCURVE",
"-361 -133 CURVE SMOOTH",
"-361 -111 OFFCURVE",
"-342 -96 OFFCURVE",
"-312 -96 CURVE SMOOTH",
"-225 -96 OFFCURVE",
"-135 -144 OFFCURVE",
"-62 -235 CURVE",
"0 -196 LINE",
"-81 -98 OFFCURVE",
"-199 -26 OFFCURVE",
"-310 -26 CURVE SMOOTH",
"-385 -26 OFFCURVE",
"-434 -74 OFFCURVE",
"-434 -137 CURVE SMOOTH",
"-434 -202 OFFCURVE",
"-384 -238 OFFCURVE",
"-325 -238 CURVE SMOOTH",
"-214 -238 OFFCURVE",
"-152 -128 OFFCURVE",
"-152 -75 CURVE SMOOTH",
"-152 15 LINE"
);
}
);
width = 0;
}
);
unicode = 11439;
category = Mark;
},
{
glyphname = R_dv;
lastChange = "2019-05-14 14:08:00 +0000";
layers = (
{
layerId = UUID0;
paths = (
{
closed = 1;
nodes = (
"-25 -164 LINE",
"-71 -188 OFFCURVE",
"-96 -198 OFFCURVE",
"-138 -198 CURVE SMOOTH",
"-179 -198 OFFCURVE",
"-219 -178 OFFCURVE",
"-219 -132 CURVE SMOOTH",
"-219 -88 OFFCURVE",
"-187 -57 OFFCURVE",
"-109 -48 CURVE",
"-116 18 LINE",
"-233 11 OFFCURVE",
"-293 -52 OFFCURVE",
"-293 -126 CURVE SMOOTH",
"-293 -210 OFFCURVE",
"-233 -268 OFFCURVE",
"-133 -268 CURVE SMOOTH",
"-79 -268 OFFCURVE",
"-34 -251 OFFCURVE",
"0 -233 CURVE"
);
}
);
width = 0;
}
);
unicode = 1143A;
category = Mark;
},
{
glyphname = RR_dv;
lastChange = "2019-05-14 14:08:00 +0000";
layers = (
{
layerId = UUID0;
paths = (
{
closed = 1;
nodes = (
"-59 -148 LINE",
"-93 -162 OFFCURVE",
"-118 -168 OFFCURVE",
"-154 -168 CURVE SMOOTH",
"-202 -168 OFFCURVE",
"-225 -151 OFFCURVE",
"-225 -114 CURVE SMOOTH",
"-225 -81 OFFCURVE",
"-193 -55 OFFCURVE",
"-115 -48 CURVE",
"-121 18 LINE",
"-238 12 OFFCURVE",
"-299 -44 OFFCURVE",
"-299 -114 CURVE SMOOTH",
"-299 -193 OFFCURVE",
"-231 -238 OFFCURVE",
"-149 -238 CURVE SMOOTH",
"-105 -238 OFFCURVE",
"-68 -228 OFFCURVE",
"-37 -214 CURVE"
);
},
{
closed = 1;
nodes = (
"-22 -304 LINE",
"-56 -318 OFFCURVE",
"-82 -324 OFFCURVE",
"-117 -324 CURVE SMOOTH",
"-167 -324 OFFCURVE",
"-196 -307 OFFCURVE",
"-196 -270 CURVE SMOOTH",
"-196 -252 OFFCURVE",
"-188 -238 OFFCURVE",
"-169 -222 CURVE",
"-244 -195 LINE",
"-260 -216 OFFCURVE",
"-270 -239 OFFCURVE",
"-270 -272 CURVE SMOOTH",
"-270 -338 OFFCURVE",
"-218 -394 OFFCURVE",
"-112 -394 CURVE SMOOTH",
"-67 -394 OFFCURVE",
"-31 -384 OFFCURVE",
"0 -370 CURVE"
);
}
);
width = 0;
}
);
unicode = 1143B;
category = Mark;
},
{
glyphname = L_dv;
lastChange = "2019-05-14 14:08:00 +0000";
layers = (
{
layerId = UUID0;
paths = (
{
closed = 1;
nodes = (
"-43 -258 LINE",
"-62 -268 OFFCURVE",
"-85 -272 OFFCURVE",
"-112 -272 CURVE SMOOTH",
"-161 -272 OFFCURVE",
"-173 -249 OFFCURVE",
"-173 -233 CURVE SMOOTH",
"-173 -195 OFFCURVE",
"-98 -152 OFFCURVE",
"-98 -84 CURVE SMOOTH",
"-98 -49 OFFCURVE",
"-122 11 OFFCURVE",
"-208 11 CURVE SMOOTH",
"-261 11 OFFCURVE",
"-301 -24 OFFCURVE",
"-316 -52 CURVE",
"-262 -92 LINE",
"-256 -75 OFFCURVE",
"-238 -59 OFFCURVE",
"-210 -59 CURVE SMOOTH",
"-184 -59 OFFCURVE",
"-170 -79 OFFCURVE",
"-170 -92 CURVE SMOOTH",
"-170 -141 OFFCURVE",
"-245 -165 OFFCURVE",
"-245 -243 CURVE SMOOTH",
"-245 -281 OFFCURVE",
"-214 -341 OFFCURVE",
"-123 -341 CURVE SMOOTH",
"-90 -341 OFFCURVE",
"-58 -333 OFFCURVE",
"-38 -325 CURVE"
);
}
);
width = 0;
}
);
unicode = 1143C;
category = Mark;
},
{
glyphname = LL_dv;
lastChange = "2019-05-14 14:08:00 +0000";
layers = (
{
layerId = UUID0;
paths = (
{
closed = 1;
nodes = (
"-169 -185 LINE",
"-184 -192 OFFCURVE",
"-201 -197 OFFCURVE",
"-232 -197 CURVE SMOOTH",
"-262 -197 OFFCURVE",
"-273 -178 OFFCURVE",
"-273 -168 CURVE SMOOTH",
"-273 -143 OFFCURVE",
"-215 -117 OFFCURVE",
"-215 -64 CURVE SMOOTH",
"-215 -37 OFFCURVE",
"-240 10 OFFCURVE",
"-309 10 CURVE SMOOTH",
"-354 10 OFFCURVE",
"-389 -18 OFFCURVE",
"-399 -31 CURVE",
"-363 -78 LINE",
"-353 -65 OFFCURVE",
"-336 -55 OFFCURVE",
"-316 -55 CURVE SMOOTH",
"-295 -55 OFFCURVE",
"-287 -69 OFFCURVE",
"-287 -79 CURVE SMOOTH",
"-287 -109 OFFCURVE",
"-345 -126 OFFCURVE",
"-345 -186 CURVE SMOOTH",
"-345 -215 OFFCURVE",
"-319 -262 OFFCURVE",
"-238 -262 CURVE SMOOTH",
"-211 -262 OFFCURVE",
"-178 -255 OFFCURVE",
"-162 -248 CURVE"
);
},
{
closed = 1;
nodes = (
"-143 -320 LINE",
"-163 -326 OFFCURVE",
"-181 -329 OFFCURVE",
"-208 -329 CURVE SMOOTH",
"-245 -329 OFFCURVE",
"-265 -312 OFFCURVE",
"-265 -277 CURVE SMOOTH",
"-265 -261 OFFCURVE",
"-257 -242 OFFCURVE",
"-243 -226 CURVE",
"-304 -204 LINE",
"-318 -216 OFFCURVE",
"-335 -248 OFFCURVE",
"-335 -279 CURVE SMOOTH",
"-335 -341 OFFCURVE",
"-296 -394 OFFCURVE",
"-210 -394 CURVE SMOOTH",
"-173 -394 OFFCURVE",
"-152 -390 OFFCURVE",
"-131 -384 CURVE"
);
}
);
width = 0;
}
);
unicode = 1143D;
category = Mark;
},
{
glyphname = E_dv;
lastChange = "2019-05-14 14:08:00 +0000";
layers = (
{
layerId = UUID0;
paths = (
{
closed = 1;
nodes = (
"-634 579 OFFCURVE",
"-572 551 OFFCURVE",
"-495 551 CURVE SMOOTH",
"-413 551 OFFCURVE",
"-343 588 OFFCURVE",
"-326 654 CURVE",
"-377 675 LINE",
"-405 646 OFFCURVE",
"-449 619 OFFCURVE",
"-502 619 CURVE SMOOTH",
"-548 619 OFFCURVE",
"-592 640 OFFCURVE",
"-618 681 CURVE",
"-675 650 LINE"
);
},
{
closed = 1;
nodes = (
"-98 681 LINE",
"-127 641 OFFCURVE",
"-158 619 OFFCURVE",
"-204 619 CURVE SMOOTH",
"-247 619 OFFCURVE",
"-284 637 OFFCURVE",
"-317 675 CURVE",
"-377 675 LINE",
"-360 599 OFFCURVE",
"-307 551 OFFCURVE",
"-219 551 CURVE SMOOTH",
"-148 551 OFFCURVE",
"-78 580 OFFCURVE",
"-37 651 CURVE"
);
}
);
width = 0;
}
);
unicode = 1143E;
category = Mark;
},
{
glyphname = AI_dv;
lastChange = "2019-05-14 14:08:00 +0000";
layers = (
{
layerId = UUID0;
paths = (
{
closed = 1;
nodes = (
"-604 579 OFFCURVE",
"-542 551 OFFCURVE",
"-465 551 CURVE SMOOTH",
"-383 551 OFFCURVE",
"-313 588 OFFCURVE",
"-296 654 CURVE",
"-347 675 LINE",
"-375 646 OFFCURVE",
"-419 619 OFFCURVE",
"-472 619 CURVE SMOOTH",
"-518 619 OFFCURVE",
"-562 640 OFFCURVE",
"-588 681 CURVE",
"-645 650 LINE"
);
},
{
closed = 1;
nodes = (
"-226 622 OFFCURVE",
"-254 637 OFFCURVE",
"-287 675 CURVE",
"-347 675 LINE",
"-330 599 OFFCURVE",
"-271 550 OFFCURVE",
"-183 550 CURVE SMOOTH",
"-62 550 OFFCURVE",
"-16 622 OFFCURVE",
"-16 689 CURVE SMOOTH",
"-16 773 OFFCURVE",
"-79 818 OFFCURVE",
"-157 818 CURVE SMOOTH",
"-187 818 OFFCURVE",
"-219 804 OFFCURVE",
"-250 804 CURVE SMOOTH",
"-283 804 OFFCURVE",
"-316 819 OFFCURVE",
"-374 897 CURVE",
"-434 860 LINE",
"-357 741 OFFCURVE",
"-302 736 OFFCURVE",
"-250 736 CURVE SMOOTH",
"-213 736 OFFCURVE",
"-199 750 OFFCURVE",
"-158 750 CURVE SMOOTH",
"-128 750 OFFCURVE",
"-89 740 OFFCURVE",
"-89 693 CURVE SMOOTH",
"-89 635 OFFCURVE",
"-136 622 OFFCURVE",
"-183 622 CURVE SMOOTH"
);
}
);
width = 0;
}
);
unicode = 1143F;
category = Mark;
},
{
glyphname = O_dv;
lastChange = "2019-05-14 14:08:00 +0000";
layers = (
{
layerId = UUID0;
paths = (
{
closed = 1;
nodes = (
"28 0 LINE",
"109 0 LINE",
"109 626 LINE",
"28 626 LINE"
);
},
{
closed = 1;
nodes = (
"-567 579 OFFCURVE",
"-500 551 OFFCURVE",
"-414 551 CURVE SMOOTH",
"-316 551 OFFCURVE",
"-226 588 OFFCURVE",
"-209 654 CURVE",
"-260 675 LINE",
"-288 646 OFFCURVE",
"-347 619 OFFCURVE",
"-413 619 CURVE SMOOTH",
"-471 619 OFFCURVE",
"-525 640 OFFCURVE",
"-551 681 CURVE",
"-608 650 LINE"
);
},
{
closed = 1;
nodes = (
"69 681 LINE",
"40 641 OFFCURVE",
"-12 619 OFFCURVE",
"-72 619 CURVE SMOOTH",
"-126 619 OFFCURVE",
"-167 637 OFFCURVE",
"-200 675 CURVE",
"-260 675 LINE",
"-243 599 OFFCURVE",
"-182 551 OFFCURVE",
"-79 551 CURVE SMOOTH",
"2 551 OFFCURVE",
"89 580 OFFCURVE",
"130 651 CURVE"
);
}
);
width = 209;
}
);
unicode = 11440;
},
{
glyphname = AU_dv;
lastChange = "2019-05-14 14:08:00 +0000";
layers = (
{
layerId = UUID0;
paths = (
{
closed = 1;
nodes = (
"28 0 LINE",
"109 0 LINE",
"109 622 LINE",
"28 622 LINE"
);
},
{
closed = 1;
nodes = (
"-297 862 LINE",
"-220 743 OFFCURVE",
"-165 738 OFFCURVE",
"-113 738 CURVE SMOOTH",
"-76 738 OFFCURVE",
"-40 752 OFFCURVE",
"1 752 CURVE SMOOTH",
"31 752 OFFCURVE",
"70 742 OFFCURVE",
"70 695 CURVE SMOOTH",
"70 637 OFFCURVE",
"6 620 OFFCURVE",
"-66 620 CURVE SMOOTH",
"-146 620 OFFCURVE",
"-173 639 OFFCURVE",
"-200 675 CURVE",
"-260 675 LINE",
"-239 564 OFFCURVE",
"-126 552 OFFCURVE",
"-68 552 CURVE SMOOTH",
"75 552 OFFCURVE",
"143 619 OFFCURVE",
"143 695 CURVE SMOOTH",
"143 770 OFFCURVE",
"79 818 OFFCURVE",
"1 818 CURVE SMOOTH",
"-29 818 OFFCURVE",
"-83 804 OFFCURVE",
"-114 804 CURVE SMOOTH",
"-147 804 OFFCURVE",
"-180 819 OFFCURVE",
"-238 897 CURVE"
);
},
{
closed = 1;
nodes = (
"-567 579 OFFCURVE",
"-500 551 OFFCURVE",
"-414 551 CURVE SMOOTH",
"-316 551 OFFCURVE",
"-226 588 OFFCURVE",
"-209 654 CURVE",
"-260 675 LINE",
"-288 646 OFFCURVE",
"-347 619 OFFCURVE",
"-413 619 CURVE SMOOTH",
"-471 619 OFFCURVE",
"-525 640 OFFCURVE",
"-551 681 CURVE",
"-608 650 LINE"
);
}
);
width = 209;
}
);
unicode = 11441;
category = Letter;
},
{
glyphname = Virama;
lastChange = "2019-05-14 14:08:00 +0000";
layers = (
{
layerId = UUID0;
paths = (
{
closed = 1;
nodes = (
"-369 -72 LINE",
"-319 -136 OFFCURVE",
"-234 -227 OFFCURVE",
"-137 -311 CURVE",
"-83 -257 LINE",
"-167 -190 OFFCURVE",
"-245 -111 OFFCURVE",
"-300 -40 CURVE",
"-305 -40 LINE"
);
}
);
width = 0;
}
);
unicode = 11442;
category = Mark;
},
{
glyphname = Candrabindu;
lastChange = "2019-05-14 14:08:00 +0000";
layers = (
{
layerId = UUID0;
paths = (
{
closed = 1;
nodes = (
"-280 837 LINE",
"-265 817 OFFCURVE",
"-238 802 OFFCURVE",
"-210 802 CURVE SMOOTH",
"-147 802 OFFCURVE",
"-125 843 OFFCURVE",
"-125 878 CURVE SMOOTH",
"-125 912 OFFCURVE",
"-146 932 OFFCURVE",
"-182 939 CURVE",
"-182 969 LINE",
"-239 969 LINE",
"-239 907 LINE",
"-195 907 OFFCURVE",
"-177 897 OFFCURVE",
"-177 879 CURVE SMOOTH",
"-177 863 OFFCURVE",
"-191 853 OFFCURVE",
"-213 853 CURVE SMOOTH",
"-226 853 OFFCURVE",
"-239 858 OFFCURVE",
"-250 867 CURVE"
);
},
{
closed = 1;
nodes = (
"-389 764 LINE",
"-344 706 OFFCURVE",
"-286 680 OFFCURVE",
"-208 680 CURVE SMOOTH",
"-128 680 OFFCURVE",
"-71 705 OFFCURVE",
"-27 764 CURVE",
"-73 809 LINE",
"-100 773 OFFCURVE",
"-142 742 OFFCURVE",
"-208 742 CURVE SMOOTH",
"-273 742 OFFCURVE",
"-315 774 OFFCURVE",
"-343 809 CURVE"
);
}
);
width = 0;
}
);
unicode = 11443;
category = Mark;
},
{
glyphname = Anusvara;
lastChange = "2019-05-14 14:08:00 +0000";
layers = (
{
layerId = UUID0;
paths = (
{
closed = 1;
nodes = (
"-39 680 OFFCURVE",
"0 719 OFFCURVE",
"0 766 CURVE SMOOTH",
"0 815 OFFCURVE",
"-39 852 OFFCURVE",
"-92 852 CURVE SMOOTH",
"-147 852 OFFCURVE",
"-184 813 OFFCURVE",
"-184 766 CURVE SMOOTH",
"-184 716 OFFCURVE",
"-142 680 OFFCURVE",
"-92 680 CURVE SMOOTH"
);
},
{
closed = 1;
nodes = (
"-115 729 OFFCURVE",
"-132 745 OFFCURVE",
"-132 766 CURVE SMOOTH",
"-132 787 OFFCURVE",
"-117 804 OFFCURVE",
"-93 804 CURVE SMOOTH",
"-69 804 OFFCURVE",
"-52 788 OFFCURVE",
"-52 766 CURVE SMOOTH",
"-52 745 OFFCURVE",
"-69 729 OFFCURVE",
"-93 729 CURVE SMOOTH"
);
}
);
width = 0;
}
);
unicode = 11444;
category = Mark;
},
{
glyphname = Visarga;
lastChange = "2019-05-14 14:08:00 +0000";
layers = (
{
layerId = UUID0;
paths = (
{
closed = 1;
nodes = (
"317 349 LINE SMOOTH",
"366 403 OFFCURVE",
"404 459 OFFCURVE",
"404 523 CURVE SMOOTH",
"404 592 OFFCURVE",
"345 648 OFFCURVE",
"249 648 CURVE SMOOTH",
"142 648 OFFCURVE",
"91 583 OFFCURVE",
"91 507 CURVE SMOOTH",
"91 426 OFFCURVE",
"134 385 OFFCURVE",
"181 332 CURVE SMOOTH",
"193 319 LINE",
"170 294 LINE SMOOTH",
"107 226 OFFCURVE",
"80 176 OFFCURVE",
"80 121 CURVE SMOOTH",
"80 41 OFFCURVE",
"144 -12 OFFCURVE",
"237 -12 CURVE SMOOTH",
"330 -12 OFFCURVE",
"395 43 OFFCURVE",
"395 137 CURVE SMOOTH",
"395 209 OFFCURVE",
"360 253 OFFCURVE",
"319 295 CURVE SMOOTH",
"293 322 LINE"
);
},
{
closed = 1;
nodes = (
"194 426 OFFCURVE",
"171 458 OFFCURVE",
"171 500 CURVE SMOOTH",
"171 554 OFFCURVE",
"209 576 OFFCURVE",
"252 576 CURVE SMOOTH",
"295 576 OFFCURVE",
"324 551 OFFCURVE",
"324 516 CURVE SMOOTH",
"324 484 OFFCURVE",
"311 448 OFFCURVE",
"255 388 CURVE SMOOTH",
"243 375 LINE",
"228 390 LINE SMOOTH"
);
},
{
closed = 1;
nodes = (
"181 59 OFFCURVE",
"160 92 OFFCURVE",
"160 123 CURVE SMOOTH",
"160 156 OFFCURVE",
"182 196 OFFCURVE",
"227 247 CURVE SMOOTH",
"242 264 LINE",
"255 250 LINE SMOOTH",
"285 216 OFFCURVE",
"315 181 OFFCURVE",
"315 137 CURVE SMOOTH",
"315 87 OFFCURVE",
"285 59 OFFCURVE",
"234 59 CURVE SMOOTH"
);
}
);
width = 484;
}
);
unicode = 11445;
category = Mark;
},
{
glyphname = Nukta;
lastChange = "2019-05-14 14:08:00 +0000";
layers = (
{
layerId = UUID0;
paths = (
{
closed = 1;
nodes = (
"-372 -167 OFFCURVE",
"-347 -192 OFFCURVE",
"-317 -192 CURVE SMOOTH",
"-286 -192 OFFCURVE",
"-262 -167 OFFCURVE",
"-262 -134 CURVE SMOOTH",
"-262 -102 OFFCURVE",
"-286 -76 OFFCURVE",
"-317 -76 CURVE SMOOTH",
"-347 -76 OFFCURVE",
"-372 -102 OFFCURVE",
"-372 -134 CURVE SMOOTH"
);
}
);
width = 0;
}
);
unicode = 11446;
category = Mark;
},
{
glyphname = Avagraha;
lastChange = "2019-05-14 14:08:00 +0000";
layers = (
{
layerId = UUID0;
paths = (
{
closed = 1;
nodes = (
"189 598 LINE",
"207 578 OFFCURVE",
"217 559 OFFCURVE",
"217 534 CURVE SMOOTH",
"217 508 OFFCURVE",
"202 496 OFFCURVE",
"171 470 CURVE SMOOTH",
"139 444 LINE SMOOTH",
"103 414 OFFCURVE",
"90 386 OFFCURVE",
"90 360 CURVE SMOOTH",
"90 243 OFFCURVE",
"276 257 OFFCURVE",
"276 170 CURVE SMOOTH",
"276 132 OFFCURVE",
"249 100 OFFCURVE",
"189 87 CURVE",
"144 127 OFFCURVE",
"111 131 OFFCURVE",
"84 131 CURVE SMOOTH",
"47 131 OFFCURVE",
"20 111 OFFCURVE",
"20 71 CURVE SMOOTH",
"20 31 OFFCURVE",
"60 0 OFFCURVE",
"105 0 CURVE SMOOTH",
"127 0 OFFCURVE",
"147 3 OFFCURVE",
"167 9 CURVE",
"204 -33 OFFCURVE",
"241 -84 OFFCURVE",
"286 -148 CURVE",
"351 -106 LINE",
"321 -65 OFFCURVE",
"287 -19 OFFCURVE",
"249 24 CURVE",
"324 54 OFFCURVE",
"359 109 OFFCURVE",
"359 176 CURVE SMOOTH",
"359 298 OFFCURVE",
"173 309 OFFCURVE",
"173 360 CURVE SMOOTH",
"173 370 OFFCURVE",
"178 379 OFFCURVE",
"198 395 CURVE SMOOTH",
"234 424 LINE SMOOTH",
"282 463 OFFCURVE",
"300 487 OFFCURVE",
"300 534 CURVE SMOOTH",
"300 576 OFFCURVE",
"282 601 OFFCURVE",
"253 640 CURVE"
);
}
);
width = 439;
}
);
unicode = 11447;
category = Mark;
},
{
glyphname = Finalanusvara;
lastChange = "2019-05-14 14:08:00 +0000";
layers = (
{
layerId = UUID0;
paths = (
{
closed = 1;
nodes = (
"50 329 OFFCURVE",
"75 304 OFFCURVE",
"105 304 CURVE SMOOTH",
"136 304 OFFCURVE",
"160 329 OFFCURVE",
"160 362 CURVE SMOOTH",
"160 394 OFFCURVE",
"136 420 OFFCURVE",
"105 420 CURVE SMOOTH",
"75 420 OFFCURVE",
"50 394 OFFCURVE",
"50 362 CURVE SMOOTH"
);
},
{
closed = 1;
nodes = (
"66 125 LINE",
"84 40 OFFCURVE",
"155 -61 OFFCURVE",
"265 -137 CURVE",
"319 -86 LINE",
"246 -40 OFFCURVE",
"169 55 OFFCURVE",
"134 147 CURVE"
);
}
);
width = 299;
}
);
unicode = 11448;
category = Mark;
},
{
glyphname = Om;
lastChange = "2019-05-14 14:08:00 +0000";
layers = (
{
layerId = UUID0;
paths = (
{
closed = 1;
nodes = (
"339 291 LINE",
"450 291 OFFCURVE",
"488 234 OFFCURVE",
"488 178 CURVE SMOOTH",
"488 91 OFFCURVE",
"436 58 OFFCURVE",
"382 58 CURVE SMOOTH",
"296 58 OFFCURVE",
"209 115 OFFCURVE",
"83 312 CURVE",
"20 280 LINE",
"140 60 OFFCURVE",
"266 -12 OFFCURVE",
"382 -12 CURVE SMOOTH",
"477 -12 OFFCURVE",
"569 54 OFFCURVE",
"569 178 CURVE SMOOTH",
"569 268 OFFCURVE",
"501 361 OFFCURVE",
"351 361 CURVE"
);
},
{
closed = 1;
nodes = (
"726 517 LINE",
"694 586 OFFCURVE",
"641 634 OFFCURVE",
"561 634 CURVE SMOOTH",
"450 634 OFFCURVE",
"356 484 OFFCURVE",
"277 347 CURVE",
"339 291 LINE",
"397 400 OFFCURVE",
"497 560 OFFCURVE",
"561 560 CURVE SMOOTH",
"607 560 OFFCURVE",
"643 521 OFFCURVE",
"660 478 CURVE"
);
},
{
closed = 1;
nodes = (
"456 551 LINE",
"425 603 OFFCURVE",
"367 634 OFFCURVE",
"294 634 CURVE SMOOTH",
"229 634 OFFCURVE",
"158 599 OFFCURVE",
"102 521 CURVE",
"155 476 LINE",
"195 531 OFFCURVE",
"241 560 OFFCURVE",
"289 560 CURVE SMOOTH",
"345 560 OFFCURVE",
"382 534 OFFCURVE",
"395 489 CURVE"
);
},
{
closed = 1;
nodes = (
"155 827 LINE",
"205 722 OFFCURVE",
"287 680 OFFCURVE",
"397 680 CURVE SMOOTH",
"508 680 OFFCURVE",
"588 729 OFFCURVE",
"636 831 CURVE",
"572 860 LINE",
"549 805 OFFCURVE",
"496 746 OFFCURVE",
"397 746 CURVE SMOOTH",
"296 746 OFFCURVE",
"243 805 OFFCURVE",
"219 860 CURVE"
);
},
{
closed = 1;
nodes = (
"306 850 LINE",
"318 825 OFFCURVE",
"353 802 OFFCURVE",
"392 802 CURVE SMOOTH",
"465 802 OFFCURVE",
"494 844 OFFCURVE",
"494 887 CURVE SMOOTH",
"494 921 OFFCURVE",
"462 956 OFFCURVE",
"420 961 CURVE",
"420 1031 LINE",
"366 1031 LINE",
"366 932 LINE",
"423 925 OFFCURVE",
"434 907 OFFCURVE",
"434 890 CURVE SMOOTH",
"434 874 OFFCURVE",
"426 858 OFFCURVE",
"397 858 CURVE SMOOTH",
"375 858 OFFCURVE",
"360 864 OFFCURVE",
"347 877 CURVE"
);
}
);
width = 746;
}
);
unicode = 11449;
category = Letter;
},
{
glyphname = Siddhi;
lastChange = "2019-05-14 14:08:00 +0000";
layers = (
{
layerId = UUID0;
paths = (
{
closed = 1;
nodes = (
"217 213 LINE SMOOTH",
"203 228 OFFCURVE",
"196 238 OFFCURVE",
"196 250 CURVE SMOOTH",
"196 261 OFFCURVE",
"202 275 OFFCURVE",
"220 295 CURVE SMOOTH",
"294 380 LINE SMOOTH",
"338 431 OFFCURVE",
"349 460 OFFCURVE",
"349 494 CURVE SMOOTH",
"349 559 OFFCURVE",
"292 632 OFFCURVE",
"204 632 CURVE SMOOTH",
"137 632 OFFCURVE",
"70 575 OFFCURVE",
"70 508 CURVE SMOOTH",
"70 440 OFFCURVE",
"155 367 OFFCURVE",
"225 319 CURVE",
"259 390 LINE",
"206 419 OFFCURVE",
"145 470 OFFCURVE",
"145 508 CURVE SMOOTH",
"145 541 OFFCURVE",
"174 566 OFFCURVE",
"206 566 CURVE SMOOTH",
"240 566 OFFCURVE",
"274 528 OFFCURVE",
"274 494 CURVE SMOOTH",
"274 475 OFFCURVE",
"264 452 OFFCURVE",
"240 424 CURVE SMOOTH",
"146 315 LINE SMOOTH",
"120 285 OFFCURVE",
"111 267 OFFCURVE",
"111 251 CURVE SMOOTH",
"111 232 OFFCURVE",
"124 210 OFFCURVE",
"147 185 CURVE SMOOTH",
"315 0 LINE",
"406 0 LINE"
);
}
);
width = 436;
}
);
unicode = 1144A;
category = Letter;
},
{
glyphname = Danda;
lastChange = "2019-05-14 14:08:00 +0000";
layers = (
{
layerId = UUID0;
paths = (
{
closed = 1;
nodes = (
"124 -100 LINE",
"205 -100 LINE",
"205 722 LINE",
"124 722 LINE"
);
}
);
width = 329;
}
);
unicode = 1144B;
category = Letter;
},
{
glyphname = Dbldanda;
lastChange = "2019-05-14 14:08:00 +0000";
layers = (
{
layerId = UUID0;
paths = (
{
closed = 1;
nodes = (
"124 -100 LINE",
"205 -100 LINE",
"205 722 LINE",
"124 722 LINE"
);
},
{
closed = 1;
nodes = (
"284 -100 LINE",
"365 -100 LINE",
"365 722 LINE",
"284 722 LINE"
);
}
);
width = 489;
}
);
unicode = 1144C;
category = Letter;
},
{
glyphname = Comma;
lastChange = "2019-05-14 14:08:00 +0000";
layers = (
{
layerId = UUID0;
paths = (
{
closed = 1;
nodes = (
"50 125 LINE",
"68 40 OFFCURVE",
"139 -61 OFFCURVE",
"249 -137 CURVE",
"303 -86 LINE",
"230 -40 OFFCURVE",
"153 55 OFFCURVE",
"118 147 CURVE"
);
}
);
width = 283;
}
);
unicode = 1144D;
category = Letter;
},
{
glyphname = Gapfiller;
lastChange = "2019-05-14 14:08:00 +0000";
layers = (
{
layerId = UUID0;
paths = (
{
closed = 1;
nodes = (
"283 35 LINE",
"189 113 LINE",
"281 198 LINE",
"233 247 LINE",
"140 163 LINE SMOOTH",
"119 144 OFFCURVE",
"110 127 OFFCURVE",
"110 109 CURVE SMOOTH",
"110 91 OFFCURVE",
"122 72 OFFCURVE",
"143 55 CURVE SMOOTH",
"233 -21 LINE"
);
},
{
closed = 1;
nodes = (
"283 355 LINE",
"189 433 LINE",
"281 518 LINE",
"233 567 LINE",
"140 483 LINE SMOOTH",
"119 464 OFFCURVE",
"110 447 OFFCURVE",
"110 429 CURVE SMOOTH",
"110 411 OFFCURVE",
"122 392 OFFCURVE",
"143 375 CURVE SMOOTH",
"233 299 LINE"
);
}
);
width = 393;
}
);
unicode = 1144E;
category = Letter;
},
{
glyphname = Abbreviation;
lastChange = "2019-05-14 14:08:00 +0000";
layers = (
{
layerId = UUID0;
paths = (
{
closed = 1;
nodes = (
"255 175 OFFCURVE",
"306 236 OFFCURVE",
"306 312 CURVE SMOOTH",
"306 390 OFFCURVE",
"255 449 OFFCURVE",
"178 449 CURVE SMOOTH",
"99 449 OFFCURVE",
"50 386 OFFCURVE",
"50 312 CURVE SMOOTH",
"50 232 OFFCURVE",
"105 175 OFFCURVE",
"178 175 CURVE SMOOTH"
);
},
{
closed = 1;
nodes = (
"143 240 OFFCURVE",
"120 270 OFFCURVE",
"120 312 CURVE SMOOTH",
"120 351 OFFCURVE",
"140 384 OFFCURVE",
"178 384 CURVE SMOOTH",
"214 384 OFFCURVE",
"236 353 OFFCURVE",
"236 312 CURVE SMOOTH",
"236 270 OFFCURVE",
"214 240 OFFCURVE",
"178 240 CURVE SMOOTH"
);
}
);
width = 356;
}
);
unicode = 1144F;
category = Letter;
},
{
glyphname = Zero_Newa;
lastChange = "2019-05-14 14:08:00 +0000";
layers = (
{
layerId = UUID0;
paths = (
{
closed = 1;
nodes = (
"406 52 OFFCURVE",
"496 154 OFFCURVE",
"496 305 CURVE SMOOTH",
"496 458 OFFCURVE",
"415 562 OFFCURVE",
"272 562 CURVE SMOOTH",
"140 562 OFFCURVE",
"50 459 OFFCURVE",
"50 308 CURVE SMOOTH",
"50 146 OFFCURVE",
"135 52 OFFCURVE",
"273 52 CURVE SMOOTH"
);
},
{
closed = 1;
nodes = (
"186 124 OFFCURVE",
"130 195 OFFCURVE",
"130 304 CURVE SMOOTH",
"130 416 OFFCURVE",
"191 490 OFFCURVE",
"276 490 CURVE SMOOTH",
"360 490 OFFCURVE",
"416 420 OFFCURVE",
"416 309 CURVE SMOOTH",
"416 199 OFFCURVE",
"357 124 OFFCURVE",
"270 124 CURVE SMOOTH"
);
}
);
width = 546;
}
);
unicode = 11450;
category = Letter;
},
{
glyphname = One_Newa;
lastChange = "2019-05-14 14:08:00 +0000";
layers = (
{
layerId = UUID0;
paths = (
{
closed = 1;
nodes = (
"113 232 LINE",
"212 286 OFFCURVE",
"331 348 OFFCURVE",
"331 488 CURVE SMOOTH",
"331 546 OFFCURVE",
"299 632 OFFCURVE",
"196 632 CURVE SMOOTH",
"104 632 OFFCURVE",
"63 568 OFFCURVE",
"63 507 CURVE SMOOTH",
"63 441 OFFCURVE",
"109 379 OFFCURVE",
"212 379 CURVE SMOOTH",
"230 379 OFFCURVE",
"248 388 OFFCURVE",
"270 409 CURVE",
"270 484 LINE",
"255 452 OFFCURVE",
"234 446 OFFCURVE",
"205 446 CURVE SMOOTH",
"173 446 OFFCURVE",
"140 469 OFFCURVE",
"140 511 CURVE SMOOTH",
"140 548 OFFCURVE",
"167 566 OFFCURVE",
"192 566 CURVE SMOOTH",
"236 566 OFFCURVE",
"249 525 OFFCURVE",
"249 491 CURVE SMOOTH",
"249 371 OFFCURVE",
"132 306 OFFCURVE",
"35 285 CURVE",
"30 231 LINE",
"192 0 LINE",
"288 0 LINE",
"116 242 LINE",
"87 258 LINE"
);
}
);
width = 361;
}
);
unicode = 11451;
category = Letter;
},
{
glyphname = Two_Newa;
lastChange = "2019-05-14 14:08:00 +0000";
layers = (
{
layerId = UUID0;
paths = (
{
closed = 1;
nodes = (
"381 510 OFFCURVE",
"334 633 OFFCURVE",
"190 633 CURVE SMOOTH",
"95 633 OFFCURVE",
"37 572 OFFCURVE",
"20 500 CURVE",
"90 479 LINE",
"97 509 OFFCURVE",
"128 561 OFFCURVE",
"195 561 CURVE SMOOTH",
"280 561 OFFCURVE",
"301 470 OFFCURVE",
"301 398 CURVE SMOOTH",
"301 310 OFFCURVE",
"280 237 OFFCURVE",
"225 213 CURVE",
"186 254 OFFCURVE",
"146 282 OFFCURVE",
"109 282 CURVE SMOOTH",
"67 282 OFFCURVE",
"39 257 OFFCURVE",
"39 220 CURVE SMOOTH",
"39 150 OFFCURVE",
"114 130 OFFCURVE",
"176 129 CURVE",
"218 88 OFFCURVE",
"245 39 OFFCURVE",
"287 -39 CURVE",
"365 2 LINE",
"341 50 OFFCURVE",
"309 106 OFFCURVE",
"272 155 CURVE",
"336 197 OFFCURVE",
"381 284 OFFCURVE",
"381 398 CURVE SMOOTH"
);
}
);
width = 431;
}
);
unicode = 11452;
category = Letter;
},
{
glyphname = Three_Newa;
lastChange = "2019-05-14 14:08:00 +0000";
layers = (
{
layerId = UUID0;
paths = (
{
closed = 1;
nodes = (
"391 256 OFFCURVE",
"342 317 OFFCURVE",
"255 335 CURVE",
"328 375 OFFCURVE",
"362 427 OFFCURVE",
"362 498 CURVE SMOOTH",
"362 572 OFFCURVE",
"315 633 OFFCURVE",
"205 633 CURVE SMOOTH",
"130 633 OFFCURVE",
"63 597 OFFCURVE",
"17 528 CURVE",
"77 479 LINE",
"118 534 OFFCURVE",
"163 561 OFFCURVE",
"206 561 CURVE SMOOTH",
"260 561 OFFCURVE",
"282 531 OFFCURVE",
"282 495 CURVE SMOOTH",
"282 416 OFFCURVE",
"205 368 OFFCURVE",
"101 333 CURVE",
"121 270 LINE",
"145 277 LINE",
"153 279 OFFCURVE",
"177 284 OFFCURVE",
"190 284 CURVE SMOOTH",
"264 284 OFFCURVE",
"311 242 OFFCURVE",
"311 183 CURVE SMOOTH",
"311 126 OFFCURVE",
"272 74 OFFCURVE",
"205 63 CURVE",
"171 101 OFFCURVE",
"125 142 OFFCURVE",
"79 142 CURVE SMOOTH",
"50 142 OFFCURVE",
"10 129 OFFCURVE",
"10 80 CURVE SMOOTH",
"10 10 OFFCURVE",
"85 -10 OFFCURVE",
"153 -11 CURVE",
"189 -52 OFFCURVE",
"216 -101 OFFCURVE",
"258 -179 CURVE",
"336 -138 LINE",
"315 -94 OFFCURVE",
"286 -45 OFFCURVE",
"255 0 CURVE",
"328 27 OFFCURVE",
"391 76 OFFCURVE",
"391 181 CURVE SMOOTH"
);
}
);
width = 441;
}
);
unicode = 11453;
category = Letter;
},
{
glyphname = Four_Newa;
lastChange = "2019-05-14 14:08:00 +0000";
layers = (
{
layerId = UUID0;
paths = (
{
closed = 1;
nodes = (
"183 308 LINE SMOOTH",
"121 236 OFFCURVE",
"66 165 OFFCURVE",
"66 103 CURVE SMOOTH",
"66 18 OFFCURVE",
"137 -12 OFFCURVE",
"229 -12 CURVE SMOOTH",
"329 -12 OFFCURVE",
"388 45 OFFCURVE",
"388 123 CURVE SMOOTH",
"388 204 OFFCURVE",
"316 270 OFFCURVE",
"236 332 CURVE SMOOTH",
"145 402 OFFCURVE",
"100 437 OFFCURVE",
"100 461 CURVE SMOOTH",
"100 490 OFFCURVE",
"169 576 OFFCURVE",
"206 622 CURVE",
"126 622 LINE",
"54 534 OFFCURVE",
"20 484 OFFCURVE",
"20 452 CURVE SMOOTH",
"20 419 OFFCURVE",
"96 351 OFFCURVE",
"195 272 CURVE SMOOTH",
"283 202 OFFCURVE",
"308 168 OFFCURVE",
"308 127 CURVE SMOOTH",
"308 69 OFFCURVE",
"263 60 OFFCURVE",
"224 60 CURVE SMOOTH",
"181 60 OFFCURVE",
"146 75 OFFCURVE",
"146 107 CURVE SMOOTH",
"146 153 OFFCURVE",
"196 215 OFFCURVE",
"262 293 CURVE SMOOTH",
"539 622 LINE",
"452 622 LINE"
);
}
);
width = 509;
}
);
unicode = 11454;
category = Letter;
},
{
glyphname = Five_Newa;
lastChange = "2019-05-14 14:08:00 +0000";
layers = (
{
layerId = UUID0;
paths = (
{
closed = 1;
nodes = (
"463 0 LINE",
"544 0 LINE",
"544 419 LINE",
"463 398 LINE"
);
},
{
closed = 1;
nodes = (
"-10 276 LINE",
"36 124 OFFCURVE",
"94 34 OFFCURVE",
"218 34 CURVE SMOOTH",
"328 34 OFFCURVE",
"385 127 OFFCURVE",
"385 230 CURVE SMOOTH",
"385 325 OFFCURVE",
"320 410 OFFCURVE",
"213 436 CURVE",
"117 389 LINE",
"270 375 OFFCURVE",
"305 300 OFFCURVE",
"305 234 CURVE SMOOTH",
"305 164 OFFCURVE",
"282 106 OFFCURVE",
"215 106 CURVE SMOOTH",
"134 106 OFFCURVE",
"102 175 OFFCURVE",
"60 304 CURVE"
);
},
{
closed = 1;
nodes = (
"302 622 LINE",
"290 565 OFFCURVE",
"189 477 OFFCURVE",
"104 442 CURVE",
"117 389 LINE",
"216 416 OFFCURVE",
"359 512 OFFCURVE",
"370 622 CURVE"
);
},
{
closed = 1;
nodes = (
"463 397 LINE",
"544 419 LINE",
"370 622 LINE",
"320 565 LINE"
);
}
);
width = 594;
}
);
unicode = 11455;
category = Letter;
},
{
glyphname = Six_Newa;
lastChange = "2019-05-14 14:08:00 +0000";
layers = (
{
layerId = UUID0;
paths = (
{
closed = 1;
nodes = (
"394 586 LINE",
"345 617 OFFCURVE",
"283 632 OFFCURVE",
"224 632 CURVE SMOOTH",
"106 632 OFFCURVE",
"46 557 OFFCURVE",
"46 478 CURVE SMOOTH",
"46 391 OFFCURVE",
"118 312 OFFCURVE",
"249 312 CURVE SMOOTH",
"296 312 LINE",
"286 382 LINE",
"254 382 LINE SMOOTH",
"163 382 OFFCURVE",
"126 436 OFFCURVE",
"126 477 CURVE SMOOTH",
"126 525 OFFCURVE",
"163 560 OFFCURVE",
"230 560 CURVE SMOOTH",
"273 560 OFFCURVE",
"321 546 OFFCURVE",
"358 524 CURVE"
);
},
{
closed = 1;
nodes = (
"215 368 LINE",
"100 338 OFFCURVE",
"40 273 OFFCURVE",
"40 185 CURVE SMOOTH",
"40 63 OFFCURVE",
"133 10 OFFCURVE",
"237 10 CURVE SMOOTH",
"299 10 OFFCURVE",
"390 24 OFFCURVE",
"404 59 CURVE",
"358 132 LINE",
"332 102 OFFCURVE",
"284 85 OFFCURVE",
"240 85 CURVE SMOOTH",
"166 85 OFFCURVE",
"120 127 OFFCURVE",
"120 187 CURVE SMOOTH",
"120 276 OFFCURVE",
"221 312 OFFCURVE",
"296 312 CURVE"
);
},
{
closed = 1;
nodes = (
"411 152 OFFCURVE",
"383 187 OFFCURVE",
"342 187 CURVE SMOOTH",
"305 187 OFFCURVE",
"285 153 OFFCURVE",
"285 107 CURVE SMOOTH",
"285 61 OFFCURVE",
"314 25 OFFCURVE",
"348 25 CURVE SMOOTH",
"383 25 OFFCURVE",
"411 61 OFFCURVE",
"411 107 CURVE SMOOTH"
);
},
{
closed = 1;
nodes = (
"31 -68 LINE",
"122 -75 OFFCURVE",
"170 -164 OFFCURVE",
"290 -164 CURVE SMOOTH",
"362 -164 OFFCURVE",
"432 -123 OFFCURVE",
"432 -31 CURVE SMOOTH",
"432 1 OFFCURVE",
"409 74 OFFCURVE",
"372 108 CURVE",
"300 54 LINE",
"330 20 OFFCURVE",
"356 11 OFFCURVE",
"356 -36 CURVE SMOOTH",
"356 -74 OFFCURVE",
"322 -90 OFFCURVE",
"286 -90 CURVE SMOOTH",
"186 -90 OFFCURVE",
"142 -5 OFFCURVE",
"20 3 CURVE"
);
}
);
width = 432;
}
);
unicode = 11456;
category = Letter;
},
{
glyphname = Seven_Newa;
lastChange = "2019-05-14 14:08:00 +0000";
layers = (
{
layerId = UUID0;
paths = (
{
closed = 1;
nodes = (
"414 433 LINE SMOOTH",
"414 571 OFFCURVE",
"339 633 OFFCURVE",
"226 633 CURVE SMOOTH",
"104 633 OFFCURVE",
"40 540 OFFCURVE",
"40 427 CURVE SMOOTH",
"40 288 LINE",
"121 288 LINE",
"121 426 LINE SMOOTH",
"121 498 OFFCURVE",
"146 561 OFFCURVE",
"224 561 CURVE SMOOTH",
"319 561 OFFCURVE",
"333 492 OFFCURVE",
"333 426 CURVE SMOOTH",
"333 0 LINE",
"414 0 LINE"
);
}
);
width = 464;
}
);
unicode = 11457;
category = Letter;
},
{
glyphname = Eight_Newa;
lastChange = "2019-05-14 14:08:00 +0000";
layers = (
{
layerId = UUID0;
paths = (
{
closed = 1;
nodes = (
"82 454 LINE",
"94 460 OFFCURVE",
"109 463 OFFCURVE",
"124 463 CURVE SMOOTH",
"155 463 OFFCURVE",
"184 449 OFFCURVE",
"184 414 CURVE SMOOTH",
"184 345 OFFCURVE",
"62 271 OFFCURVE",
"62 135 CURVE SMOOTH",
"62 37 OFFCURVE",
"128 -12 OFFCURVE",
"230 -12 CURVE SMOOTH",
"366 -12 OFFCURVE",
"468 98 OFFCURVE",
"549 226 CURVE",
"483 265 LINE",
"403 141 OFFCURVE",
"313 60 OFFCURVE",
"232 60 CURVE SMOOTH",
"171 60 OFFCURVE",
"142 100 OFFCURVE",
"142 143 CURVE SMOOTH",
"142 251 OFFCURVE",
"264 306 OFFCURVE",
"264 419 CURVE SMOOTH",
"264 494 OFFCURVE",
"198 525 OFFCURVE",
"148 525 CURVE"
);
},
{
closed = 1;
nodes = (
"10 508 LINE",
"35 438 LINE",
"465 592 LINE",
"440 659 LINE"
);
}
);
width = 559;
}
);
unicode = 11458;
category = Letter;
},
{
glyphname = Nine_Newa;
lastChange = "2019-05-14 14:08:00 +0000";
layers = (
{
layerId = UUID0;
paths = (
{
closed = 1;
nodes = (
"400 253 OFFCURVE",
"455 314 OFFCURVE",
"455 404 CURVE SMOOTH",
"455 520 OFFCURVE",
"376 593 OFFCURVE",
"158 661 CURVE",
"132 596 LINE",
"289 550 OFFCURVE",
"374 498 OFFCURVE",
"374 399 CURVE SMOOTH",
"374 354 OFFCURVE",
"345 325 OFFCURVE",
"314 325 CURVE SMOOTH",
"286 325 OFFCURVE",
"259 342 OFFCURVE",
"259 383 CURVE SMOOTH",
"259 402 OFFCURVE",
"262 434 OFFCURVE",
"267 465 CURVE",
"250 470 OFFCURVE",
"230 475 OFFCURVE",
"196 475 CURVE SMOOTH",
"76 475 OFFCURVE",
"30 396 OFFCURVE",
"30 316 CURVE SMOOTH",
"30 189 OFFCURVE",
"146 59 OFFCURVE",
"403 -60 CURVE",
"439 11 LINE",
"262 94 OFFCURVE",
"112 190 OFFCURVE",
"112 316 CURVE SMOOTH",
"112 379 OFFCURVE",
"151 402 OFFCURVE",
"187 402 CURVE",
"184 386 OFFCURVE",
"182 369 OFFCURVE",
"182 358 CURVE SMOOTH",
"182 298 OFFCURVE",
"234 253 OFFCURVE",
"313 253 CURVE SMOOTH"
);
}
);
width = 485;
}
);
unicode = 11459;
category = Letter;
},
{
glyphname = Placeholder;
lastChange = "2019-05-14 14:08:00 +0000";
layers = (
{
layerId = UUID0;
paths = (
{
closed = 1;
nodes = (
"1126 317 OFFCURVE",
"1100 201 OFFCURVE",
"1020 201 CURVE SMOOTH",
"950 201 OFFCURVE",
"929 381 OFFCURVE",
"810 381 CURVE SMOOTH",
"672 381 OFFCURVE",
"682 174 OFFCURVE",
"592 174 CURVE SMOOTH",
"503 174 OFFCURVE",
"463 470 OFFCURVE",
"252 470 CURVE SMOOTH",
"137 470 OFFCURVE",
"50 364 OFFCURVE",
"50 238 CURVE SMOOTH",
"50 138 OFFCURVE",
"107 11 OFFCURVE",
"261 11 CURVE SMOOTH",
"345 11 OFFCURVE",
"391 55 OFFCURVE",
"391 123 CURVE SMOOTH",
"391 174 OFFCURVE",
"355 214 OFFCURVE",
"308 214 CURVE SMOOTH",
"261 214 OFFCURVE",
"225 175 OFFCURVE",
"225 123 CURVE SMOOTH",
"225 111 OFFCURVE",
"227 100 OFFCURVE",
"231 89 CURVE",
"150 104 OFFCURVE",
"130 193 OFFCURVE",
"130 241 CURVE SMOOTH",
"130 329 OFFCURVE",
"183 398 OFFCURVE",
"258 398 CURVE SMOOTH",
"423 398 OFFCURVE",
"429 102 OFFCURVE",
"588 102 CURVE SMOOTH",
"742 102 OFFCURVE",
"730 310 OFFCURVE",
"811 310 CURVE SMOOTH",
"875 310 OFFCURVE",
"897 130 OFFCURVE",
"1019 130 CURVE SMOOTH",
"1121 130 OFFCURVE",
"1166 246 OFFCURVE",
"1210 246 CURVE SMOOTH",
"1230 246 OFFCURVE",
"1249 232 OFFCURVE",
"1270 207 CURVE",
"1324 260 LINE",
"1291 293 OFFCURVE",
"1263 317 OFFCURVE",
"1213 317 CURVE SMOOTH"
);
}
);
width = 1352;
}
);
unicode = 1145B;
category = Letter;
},
{
glyphname = Insertion;
lastChange = "2019-05-14 14:08:00 +0000";
layers = (
{
layerId = UUID0;
paths = (
{
closed = 1;
nodes = (
"356 556 OFFCURVE",
"380 581 OFFCURVE",
"380 614 CURVE SMOOTH",
"380 646 OFFCURVE",
"356 672 OFFCURVE",
"325 672 CURVE SMOOTH",
"295 672 OFFCURVE",
"270 646 OFFCURVE",
"270 614 CURVE SMOOTH",
"270 581 OFFCURVE",
"295 556 OFFCURVE",
"325 556 CURVE SMOOTH"
);
},
{
closed = 1;
nodes = (
"370 350 LINE",
"569 622 LINE",
"480 622 LINE",
"325 411 LINE",
"169 622 LINE",
"80 622 LINE",
"279 350 LINE"
);
},
{
closed = 1;
nodes = (
"279 272 LINE",
"80 0 LINE",
"169 0 LINE",
"325 211 LINE",
"480 0 LINE",
"569 0 LINE",
"370 272 LINE"
);
},
{
closed = 1;
nodes = (
"295 66 OFFCURVE",
"270 41 OFFCURVE",
"270 8 CURVE SMOOTH",
"270 -24 OFFCURVE",
"295 -50 OFFCURVE",
"325 -50 CURVE SMOOTH",
"356 -50 OFFCURVE",
"380 -24 OFFCURVE",
"380 8 CURVE SMOOTH",
"380 41 OFFCURVE",
"356 66 OFFCURVE",
"325 66 CURVE SMOOTH"
);
}
);
width = 649;
}
);
unicode = 1145D;
category = Letter;
},
{
glyphname = sandhiMark;
lastChange = "2019-05-14 14:08:00 +0000";
layers = (
{
layerId = UUID0;
paths = (
{
closed = 1;
nodes = (
"-106 838 OFFCURVE",
"-154 858 OFFCURVE",
"-176 866 CURVE SMOOTH",
"-183 869 OFFCURVE",
"-186 870 OFFCURVE",
"-186 872 CURVE SMOOTH",
"-186 874 OFFCURVE",
"-184 876 OFFCURVE",
"-179 881 CURVE SMOOTH",
"-168 892 OFFCURVE",
"-132 916 OFFCURVE",
"-70 954 CURVE",
"-102 1000 LINE",
"-163 959 OFFCURVE",
"-230 909 OFFCURVE",
"-262 877 CURVE SMOOTH",
"-264 875 OFFCURVE",
"-267 872 OFFCURVE",
"-267 869 CURVE SMOOTH",
"-267 866 OFFCURVE",
"-264 864 OFFCURVE",
"-257 860 CURVE SMOOTH",
"-227 843 OFFCURVE",
"-177 823 OFFCURVE",
"-177 781 CURVE SMOOTH",
"-177 755 OFFCURVE",
"-195 734 OFFCURVE",
"-220 734 CURVE SMOOTH",
"-236 734 OFFCURVE",
"-259 739 OFFCURVE",
"-280 748 CURVE",
"-259 701 LINE",
"-218 685 OFFCURVE",
"-174 668 OFFCURVE",
"-109 623 CURVE",
"-84 660 LINE",
"-132 692 OFFCURVE",
"-167 709 OFFCURVE",
"-191 723 CURVE SMOOTH",
"-229 745 OFFCURVE",
"-253 759 OFFCURVE",
"-275 759 CURVE SMOOTH",
"-295 759 OFFCURVE",
"-306 747 OFFCURVE",
"-306 730 CURVE SMOOTH",
"-306 704 OFFCURVE",
"-279 696 OFFCURVE",
"-229 694 CURVE",
"-221 694 OFFCURVE",
"-212 694 OFFCURVE",
"-203 694 CURVE SMOOTH",
"-153 694 OFFCURVE",
"-106 740 OFFCURVE",
"-106 787 CURVE SMOOTH"
);
}
);
width = 0;
}
);
unicode = 1145E;
script = newa;
category = Mark;
subCategory = Nonspacing;
},
{
glyphname = vedic_anusvara;
lastChange = "2019-05-14 14:08:00 +0000";
layers = (
{
layerId = UUID0;
paths = (
{
closed = 1;
nodes = (
"571 447 LINE",
"538 364 OFFCURVE",
"479 269 OFFCURVE",
"352 269 CURVE SMOOTH",
"227 269 OFFCURVE",
"168 358 OFFCURVE",
"168 453 CURVE SMOOTH",
"168 510 OFFCURVE",
"189 565 OFFCURVE",
"210 605 CURVE",
"129 625 LINE",
"103 579 OFFCURVE",
"87 525 OFFCURVE",
"87 456 CURVE SMOOTH",
"87 314 OFFCURVE",
"178 198 OFFCURVE",
"349 198 CURVE SMOOTH",
"503 198 OFFCURVE",
"594 301 OFFCURVE",
"639 406 CURVE"
);
},
{
closed = 1;
nodes = (
"317 382 OFFCURVE",
"288 411 OFFCURVE",
"288 449 CURVE SMOOTH",
"288 487 OFFCURVE",
"317 516 OFFCURVE",
"355 516 CURVE SMOOTH",
"393 516 OFFCURVE",
"422 487 OFFCURVE",
"422 449 CURVE SMOOTH",
"422 411 OFFCURVE",
"393 382 OFFCURVE",
"355 382 CURVE SMOOTH"
);
},
{
closed = 1;
nodes = (
"681 55 LINE",
"574 92 OFFCURVE",
"547 156 OFFCURVE",
"447 156 CURVE SMOOTH",
"410 156 OFFCURVE",
"370 147 OFFCURVE",
"326 111 CURVE",
"326 221 LINE",
"245 221 LINE",
"245 12 LINE",
"304 12 LINE",
"337 54 OFFCURVE",
"388 85 OFFCURVE",
"445 85 CURVE SMOOTH",
"525 85 OFFCURVE",
"576 19 OFFCURVE",
"681 -19 CURVE"
);
}
);
width = 761;
}
);
unicode = 1145F;
script = newa;
category = Letter;
},
{
glyphname = deletionMark;
lastChange = "2019-05-14 14:08:00 +0000";
layers = (
{
layerId = UUID0;
paths = (
{
closed = 1;
nodes = (
"-319 900 OFFCURVE",
"-359 784 OFFCURVE",
"-393 717 CURVE",
"-335 687 LINE",
"-277 795 OFFCURVE",
"-253 914 OFFCURVE",
"-255 1000 CURVE",
"-316 998 LINE"
);
},
{
closed = 1;
nodes = (
"-203 900 OFFCURVE",
"-243 784 OFFCURVE",
"-277 717 CURVE",
"-219 687 LINE",
"-161 795 OFFCURVE",
"-137 914 OFFCURVE",
"-139 1000 CURVE",
"-200 998 LINE"
);
},
{
closed = 1;
nodes = (
"-80 900 OFFCURVE",
"-120 784 OFFCURVE",
"-154 717 CURVE",
"-96 687 LINE",
"-38 795 OFFCURVE",
"-14 914 OFFCURVE",
"-16 1000 CURVE",
"-77 998 LINE"
);
}
);
width = 0;
}
);
unicode = 1DFB;
script = "";
category = Mark;
subCategory = Nonspacing;
},
{
glyphname = periodcentered;
lastChange = "2019-05-14 14:08:00 +0000";
layers = (
{
layerId = UUID0;
paths = (
{
closed = 1;
nodes = (
"150 297 OFFCURVE",
"175 272 OFFCURVE",
"205 272 CURVE SMOOTH",
"236 272 OFFCURVE",
"260 297 OFFCURVE",
"260 330 CURVE SMOOTH",
"260 362 OFFCURVE",
"236 388 OFFCURVE",
"205 388 CURVE SMOOTH",
"175 388 OFFCURVE",
"150 362 OFFCURVE",
"150 330 CURVE SMOOTH"
);
}
);
width = 410;
}
);
unicode = 00B7;
category = Letter;
},
{
glyphname = Ka.nohd;
lastChange = "2019-05-14 14:08:00 +0000";
layers = (
{
layerId = UUID0;
paths = (
{
closed = 1;
nodes = (
"294 0 LINE",
"375 0 LINE",
"375 615 LINE",
"294 615 LINE"
);
},
{
closed = 1;
nodes = (
"338 270 LINE",
"309 234 OFFCURVE",
"268 205 OFFCURVE",
"209 205 CURVE SMOOTH",
"155 205 OFFCURVE",
"116 230 OFFCURVE",
"116 284 CURVE SMOOTH",
"116 357 OFFCURVE",
"189 400 OFFCURVE",
"323 400 CURVE SMOOTH",
"482 400 OFFCURVE",
"539 321 OFFCURVE",
"539 228 CURVE SMOOTH",
"539 0 LINE",
"619 0 LINE",
"619 230 LINE SMOOTH",
"619 376 OFFCURVE",
"518 470 OFFCURVE",
"323 470 CURVE SMOOTH",
"170 470 OFFCURVE",
"40 415 OFFCURVE",
"40 286 CURVE SMOOTH",
"40 182 OFFCURVE",
"117 131 OFFCURVE",
"200 131 CURVE SMOOTH",
"258 131 OFFCURVE",
"322 157 OFFCURVE",
"354 198 CURVE"
);
}
);
width = 680;
}
);
category = Letter;
},
{
glyphname = Kha.nohd;
lastChange = "2019-05-14 14:08:00 +0000";
layers = (
{
layerId = UUID0;
paths = (
{
closed = 1;
nodes = (
"490 600 LINE",
"490 0 LINE",
"571 0 LINE",
"571 600 LINE"
);
},
{
closed = 1;
nodes = (
"561 311 LINE",
"534 277 OFFCURVE",
"490 227 OFFCURVE",
"421 227 CURVE SMOOTH",
"371 227 OFFCURVE",
"330 249 OFFCURVE",
"330 306 CURVE SMOOTH",
"330 364 OFFCURVE",
"369 399 OFFCURVE",
"433 399 CURVE SMOOTH",
"457 399 OFFCURVE",
"483 394 OFFCURVE",
"503 389 CURVE",
"509 458 LINE",
"479 464 OFFCURVE",
"446 468 OFFCURVE",
"424 468 CURVE SMOOTH",
"319 468 OFFCURVE",
"249 392 OFFCURVE",
"249 309 CURVE SMOOTH",
"249 216 OFFCURVE",
"319 159 OFFCURVE",
"412 159 CURVE SMOOTH",
"480 159 OFFCURVE",
"531 193 OFFCURVE",
"561 216 CURVE"
);
},
{
closed = 1;
nodes = (
"275 0 LINE",
"229 210 OFFCURVE",
"149 276 OFFCURVE",
"95 298 CURVE",
"169 321 OFFCURVE",
"233 362 OFFCURVE",
"233 470 CURVE SMOOTH",
"233 522 OFFCURVE",
"211 574 OFFCURVE",
"195 600 CURVE",
"112 600 LINE",
"131 571 OFFCURVE",
"152 516 OFFCURVE",
"152 468 CURVE SMOOTH",
"152 413 OFFCURVE",
"125 352 OFFCURVE",
"8 347 CURVE",
"0 276 LINE",
"89 244 OFFCURVE",
"156 181 OFFCURVE",
"194 0 CURVE"
);
}
);
width = 651;
}
);
category = Letter;
},
{
glyphname = Gha.nohd;
lastChange = "2019-05-14 14:08:00 +0000";
layers = (
{
layerId = UUID0;
paths = (
{
closed = 1;
nodes = (
"248 403 LINE",
"208 403 OFFCURVE",
"168 396 OFFCURVE",
"135 375 CURVE",
"125 361 LINE",
"87 334 OFFCURVE",
"70 293 OFFCURVE",
"70 250 CURVE SMOOTH",
"70 160 OFFCURVE",
"140 102 OFFCURVE",
"243 102 CURVE SMOOTH",
"319 102 OFFCURVE",
"367 127 OFFCURVE",
"410 158 CURVE",
"405 172 LINE",
"405 0 LINE",
"486 0 LINE",
"486 600 LINE",
"405 600 LINE",
"405 230 LINE",
"408 247 LINE",
"375 208 OFFCURVE",
"323 172 OFFCURVE",
"251 172 CURVE SMOOTH",
"192 172 OFFCURVE",
"151 197 OFFCURVE",
"151 253 CURVE SMOOTH",
"151 303 OFFCURVE",
"187 330 OFFCURVE",
"248 332 CURVE"
);
},
{
closed = 1;
nodes = (
"205 400 LINE",
"149 401 OFFCURVE",
"111 420 OFFCURVE",
"111 476 CURVE SMOOTH",
"111 530 OFFCURVE",
"155 583 OFFCURVE",
"183 600 CURVE",
"93 600 LINE",
"59 574 OFFCURVE",
"30 534 OFFCURVE",
"30 479 CURVE SMOOTH",
"30 398 OFFCURVE",
"95 338 OFFCURVE",
"195 338 CURVE"
);
}
);
width = 589;
}
);
category = Letter;
},
{
glyphname = Nga.nohd;
lastChange = "2019-05-14 14:08:00 +0000";
layers = (
{
layerId = UUID0;
paths = (
{
closed = 1;
nodes = (
"370 600 LINE",
"370 590 LINE SMOOTH",
"370 454 OFFCURVE",
"30 366 OFFCURVE",
"30 145 CURVE SMOOTH",
"30 43 OFFCURVE",
"95 -12 OFFCURVE",
"176 -12 CURVE SMOOTH",
"336 -12 OFFCURVE",
"319 177 OFFCURVE",
"406 177 CURVE SMOOTH",
"437 177 OFFCURVE",
"455 157 OFFCURVE",
"455 120 CURVE SMOOTH",
"455 78 OFFCURVE",
"432 55 OFFCURVE",
"405 55 CURVE SMOOTH",
"382 55 OFFCURVE",
"344 72 OFFCURVE",
"339 138 CURVE",
"290 76 LINE",
"311 13 OFFCURVE",
"363 -12 OFFCURVE",
"412 -12 CURVE SMOOTH",
"486 -12 OFFCURVE",
"530 45 OFFCURVE",
"530 116 CURVE SMOOTH",
"530 183 OFFCURVE",
"491 243 OFFCURVE",
"417 243 CURVE SMOOTH",
"274 243 OFFCURVE",
"279 62 OFFCURVE",
"180 62 CURVE SMOOTH",
"147 62 OFFCURVE",
"112 87 OFFCURVE",
"112 148 CURVE SMOOTH",
"112 326 OFFCURVE",
"451 416 OFFCURVE",
"451 591 CURVE SMOOTH",
"451 600 LINE"
);
}
);
width = 554;
}
);
category = Letter;
},
{
glyphname = Ngha.nohd;
lastChange = "2019-05-14 14:08:00 +0000";
layers = (
{
layerId = UUID0;
paths = (
{
closed = 1;
nodes = (
"324 569 LINE SMOOTH",
"324 512 OFFCURVE",
"266 504 OFFCURVE",
"196 482 CURVE SMOOTH",
"122 459 OFFCURVE",
"40 423 OFFCURVE",
"40 338 CURVE SMOOTH",
"40 260 OFFCURVE",
"115 223 OFFCURVE",
"167 223 CURVE SMOOTH",
"234 223 OFFCURVE",
"343 247 OFFCURVE",
"394 247 CURVE SMOOTH",
"456 247 OFFCURVE",
"489 211 OFFCURVE",
"489 165 CURVE SMOOTH",
"489 0 LINE",
"570 0 LINE",
"570 164 LINE SMOOTH",
"570 261 OFFCURVE",
"506 319 OFFCURVE",
"404 319 CURVE SMOOTH",
"335 319 OFFCURVE",
"245 297 OFFCURVE",
"173 297 CURVE SMOOTH",
"139 297 OFFCURVE",
"120 310 OFFCURVE",
"120 340 CURVE SMOOTH",
"120 386 OFFCURVE",
"178 403 OFFCURVE",
"240 425 CURVE SMOOTH",
"318 452 OFFCURVE",
"405 471 OFFCURVE",
"405 565 CURVE SMOOTH",
"405 620 LINE",
"324 620 LINE"
);
},
{
closed = 1;
nodes = (
"273 -10 OFFCURVE",
"272 145 OFFCURVE",
"336 145 CURVE SMOOTH",
"359 145 OFFCURVE",
"376 125 OFFCURVE",
"376 96 CURVE SMOOTH",
"376 62 OFFCURVE",
"356 50 OFFCURVE",
"334 50 CURVE SMOOTH",
"316 50 OFFCURVE",
"287 57 OFFCURVE",
"283 110 CURVE",
"244 60 LINE",
"261 10 OFFCURVE",
"298 -10 OFFCURVE",
"336 -10 CURVE SMOOTH",
"399 -10 OFFCURVE",
"436 43 OFFCURVE",
"436 102 CURVE SMOOTH",
"436 149 OFFCURVE",
"405 199 OFFCURVE",
"336 199 CURVE SMOOTH",
"227 199 OFFCURVE",
"228 50 OFFCURVE",
"156 50 CURVE SMOOTH",
"140 50 OFFCURVE",
"120 63 OFFCURVE",
"120 90 CURVE SMOOTH",
"120 155 OFFCURVE",
"299 192 OFFCURVE",
"299 287 CURVE SMOOTH",
"299 293 LINE",
"218 293 LINE",
"218 287 LINE SMOOTH",
"218 222 OFFCURVE",
"40 177 OFFCURVE",
"40 81 CURVE SMOOTH",
"40 21 OFFCURVE",
"96 -10 OFFCURVE",
"153 -10 CURVE SMOOTH"
);
}
);
width = 610;
}
);
category = Letter;
},
{
glyphname = Ca.nohd;
lastChange = "2019-05-14 14:08:00 +0000";
layers = (
{
layerId = UUID0;
paths = (
{
closed = 1;
nodes = (
"388 0 LINE",
"469 0 LINE",
"469 600 LINE",
"388 600 LINE"
);
},
{
closed = 1;
nodes = (
"402 282 LINE",
"364 242 OFFCURVE",
"317 208 OFFCURVE",
"251 208 CURVE SMOOTH",
"147 208 OFFCURVE",
"126 290 OFFCURVE",
"105 340 CURVE",
"206 347 OFFCURVE",
"238 400 OFFCURVE",
"298 400 CURVE SMOOTH",
"361 400 OFFCURVE",
"404 371 OFFCURVE",
"420 361 CURVE",
"429 437 LINE",
"402 451 OFFCURVE",
"356 470 OFFCURVE",
"305 470 CURVE SMOOTH",
"219 470 OFFCURVE",
"139 396 OFFCURVE",
"10 396 CURVE",
"52 279 OFFCURVE",
"68 138 OFFCURVE",
"251 138 CURVE SMOOTH",
"320 138 OFFCURVE",
"367 164 OFFCURVE",
"402 187 CURVE"
);
}
);
width = 549;
}
);
category = Letter;
},
{
glyphname = Cha.nohd;
lastChange = "2019-05-14 14:08:00 +0000";
layers = (
{
layerId = UUID0;
paths = (
{
closed = 1;
nodes = (
"377 201 LINE SMOOTH",
"377 103 OFFCURVE",
"310 54 OFFCURVE",
"236 54 CURVE SMOOTH",
"203 54 OFFCURVE",
"146 69 OFFCURVE",
"146 132 CURVE SMOOTH",
"146 218 OFFCURVE",
"257 261 OFFCURVE",
"383 261 CURVE SMOOTH",
"509 261 OFFCURVE",
"596 222 OFFCURVE",
"596 136 CURVE SMOOTH",
"596 79 OFFCURVE",
"568 54 OFFCURVE",
"528 54 CURVE SMOOTH",
"490 54 OFFCURVE",
"441 69 OFFCURVE",
"416 133 CURVE",
"375 61 LINE",
"412 2 OFFCURVE",
"486 -14 OFFCURVE",
"526 -14 CURVE SMOOTH",
"626 -14 OFFCURVE",
"678 53 OFFCURVE",
"678 133 CURVE SMOOTH",
"678 261 OFFCURVE",
"548 330 OFFCURVE",
"383 330 CURVE SMOOTH",
"222 330 OFFCURVE",
"64 261 OFFCURVE",
"64 129 CURVE SMOOTH",
"64 40 OFFCURVE",
"134 -14 OFFCURVE",
"231 -14 CURVE SMOOTH",
"347 -14 OFFCURVE",
"458 57 OFFCURVE",
"458 186 CURVE SMOOTH",
"458 621 LINE",
"377 621 LINE"
);
},
{
closed = 1;
nodes = (
"430 393 LINE",
"393 362 OFFCURVE",
"354 330 OFFCURVE",
"291 330 CURVE SMOOTH",
"192 330 OFFCURVE",
"147 381 OFFCURVE",
"127 420 CURVE",
"204 445 OFFCURVE",
"291 533 OFFCURVE",
"368 533 CURVE SMOOTH",
"402 533 OFFCURVE",
"418 521 OFFCURVE",
"437 506 CURVE",
"452 578 LINE",
"428 589 OFFCURVE",
"401 601 OFFCURVE",
"372 601 CURVE SMOOTH",
"249 601 OFFCURVE",
"137 464 OFFCURVE",
"30 464 CURVE",
"70 375 OFFCURVE",
"110 260 OFFCURVE",
"295 260 CURVE SMOOTH",
"361 260 OFFCURVE",
"401 288 OFFCURVE",
"430 310 CURVE"
);
}
);
width = 717;
}
);
category = Letter;
},
{
glyphname = Ja.nohd;
lastChange = "2019-05-14 14:08:00 +0000";
layers = (
{
layerId = UUID0;
paths = (
{
closed = 1;
nodes = (
"28 181 LINE",
"59 165 OFFCURVE",
"107 142 OFFCURVE",
"186 142 CURVE SMOOTH",
"241 142 OFFCURVE",
"304 166 OFFCURVE",
"304 245 CURVE SMOOTH",
"304 340 OFFCURVE",
"210 355 OFFCURVE",
"114 355 CURVE",
"119 412 LINE",
"199 453 OFFCURVE",
"299 532 OFFCURVE",
"299 568 CURVE SMOOTH",
"299 622 LINE",
"380 622 LINE",
"380 583 LINE SMOOTH",
"380 517 OFFCURVE",
"288 442 OFFCURVE",
"232 407 CURVE",
"327 388 OFFCURVE",
"380 336 OFFCURVE",
"380 242 CURVE SMOOTH",
"380 116 OFFCURVE",
"287 69 OFFCURVE",
"188 69 CURVE SMOOTH",
"106 69 OFFCURVE",
"45 91 OFFCURVE",
"4 109 CURVE"
);
},
{
closed = 1;
nodes = (
"497 0 LINE",
"497 319 LINE SMOOTH",
"497 417 OFFCURVE",
"454 451 OFFCURVE",
"320 534 CURVE",
"361 587 LINE",
"512 494 OFFCURVE",
"578 452 OFFCURVE",
"578 322 CURVE SMOOTH",
"578 0 LINE"
);
}
);
width = 662;
}
);
category = Letter;
},
{
glyphname = Jha.nohd;
lastChange = "2019-05-14 14:08:00 +0000";
layers = (
{
layerId = UUID0;
paths = (
{
closed = 1;
nodes = (
"520 0 LINE",
"601 0 LINE",
"601 600 LINE",
"520 600 LINE"
);
},
{
closed = 1;
nodes = (
"-15 295 LINE",
"77 121 OFFCURVE",
"190 80 OFFCURVE",
"240 80 CURVE SMOOTH",
"282 80 OFFCURVE",
"304 109 OFFCURVE",
"304 174 CURVE SMOOTH",
"304 600 LINE",
"223 600 LINE",
"223 177 LINE",
"151 207 OFFCURVE",
"80 277 OFFCURVE",
"43 349 CURVE"
);
},
{
closed = 1;
nodes = (
"240 341 LINE",
"369 219 OFFCURVE",
"540 150 OFFCURVE",
"573 140 CURVE",
"542 238 LINE",
"509 241 OFFCURVE",
"362 330 OFFCURVE",
"295 388 CURVE"
);
}
);
width = 681;
}
);
category = Letter;
},
{
glyphname = Nyha.nohd;
lastChange = "2019-05-14 14:08:00 +0000";
layers = (
{
components = (
{
name = Nya_stem.cd;
transform = "{0.9, 0, 0, 0.9, 542, -12}";
}
);
layerId = UUID0;
paths = (
{
closed = 1;
nodes = (
"285 622 LINE",
"285 547 LINE SMOOTH",
"285 502 OFFCURVE",
"40 536 OFFCURVE",
"40 394 CURVE SMOOTH",
"40 316 OFFCURVE",
"115 283 OFFCURVE",
"187 283 CURVE SMOOTH",
"234 283 OFFCURVE",
"437 304 OFFCURVE",
"478 304 CURVE SMOOTH",
"549 304 OFFCURVE",
"569 235 OFFCURVE",
"569 191 CURVE SMOOTH",
"569 0 LINE",
"650 0 LINE",
"650 194 LINE SMOOTH",
"650 291 OFFCURVE",
"599 375 OFFCURVE",
"476 375 CURVE SMOOTH",
"418 375 OFFCURVE",
"245 357 OFFCURVE",
"193 357 CURVE SMOOTH",
"139 357 OFFCURVE",
"120 371 OFFCURVE",
"120 398 CURVE SMOOTH",
"120 493 OFFCURVE",
"365 427 OFFCURVE",
"365 541 CURVE SMOOTH",
"365 622 LINE"
);
}
);
width = 690;
}
);
category = Letter;
},
{
glyphname = Tta.nohd;
lastChange = "2019-05-14 14:08:00 +0000";
layers = (
{
layerId = UUID0;
paths = (
{
closed = 1;
nodes = (
"466 167 LINE",
"429 104 OFFCURVE",
"372 58 OFFCURVE",
"299 58 CURVE SMOOTH",
"189 58 OFFCURVE",
"134 165 OFFCURVE",
"115 285 CURVE",
"263 296 OFFCURVE",
"381 368 OFFCURVE",
"381 500 CURVE SMOOTH",
"381 600 LINE",
"300 600 LINE",
"300 498 LINE SMOOTH",
"300 400 OFFCURVE",
"185 351 OFFCURVE",
"28 346 CURVE",
"29 177 OFFCURVE",
"93 -12 OFFCURVE",
"283 -12 CURVE SMOOTH",
"380 -12 OFFCURVE",
"466 34 OFFCURVE",
"511 114 CURVE"
);
}
);
width = 533;
}
);
category = Letter;
},
{
glyphname = Dda.nohd;
lastChange = "2019-05-14 14:08:00 +0000";
layers = (
{
layerId = UUID0;
paths = (
{
closed = 1;
nodes = (
"343 611 LINE",
"262 611 LINE",
"262 439 LINE",
"343 439 LINE"
);
},
{
closed = 1;
nodes = (
"210 485 OFFCURVE",
"149 438 OFFCURVE",
"149 373 CURVE SMOOTH",
"149 322 OFFCURVE",
"185 282 OFFCURVE",
"232 282 CURVE SMOOTH",
"278 282 OFFCURVE",
"315 322 OFFCURVE",
"315 373 CURVE SMOOTH",
"315 385 OFFCURVE",
"313 396 OFFCURVE",
"309 407 CURVE",
"388 390 OFFCURVE",
"407 310 OFFCURVE",
"407 249 CURVE SMOOTH",
"407 141 OFFCURVE",
"348 60 OFFCURVE",
"262 60 CURVE SMOOTH",
"172 60 OFFCURVE",
"115 149 OFFCURVE",
"87 230 CURVE",
"20 192 LINE",
"62 79 OFFCURVE",
"144 -12 OFFCURVE",
"260 -12 CURVE SMOOTH",
"398 -12 OFFCURVE",
"487 110 OFFCURVE",
"487 252 CURVE SMOOTH",
"487 365 OFFCURVE",
"432 485 OFFCURVE",
"293 485 CURVE SMOOTH"
);
}
);
width = 532;
}
);
category = Letter;
},
{
glyphname = Ddha.nohd;
lastChange = "2019-05-14 14:08:00 +0000";
layers = (
{
layerId = UUID0;
paths = (
{
closed = 1;
nodes = (
"195 58 OFFCURVE",
"132 164 OFFCURVE",
"117 285 CURVE",
"265 296 OFFCURVE",
"413 368 OFFCURVE",
"413 540 CURVE SMOOTH",
"413 620 LINE",
"332 620 LINE",
"332 538 LINE SMOOTH",
"332 400 OFFCURVE",
"187 351 OFFCURVE",
"30 346 CURVE",
"30 177 OFFCURVE",
"104 -12 OFFCURVE",
"326 -12 CURVE SMOOTH",
"462 -12 OFFCURVE",
"550 62 OFFCURVE",
"550 155 CURVE SMOOTH",
"550 216 OFFCURVE",
"511 280 OFFCURVE",
"424 280 CURVE SMOOTH",
"338 280 OFFCURVE",
"292 216 OFFCURVE",
"292 155 CURVE SMOOTH",
"292 109 OFFCURVE",
"317 67 OFFCURVE",
"366 45 CURVE",
"450 81 LINE",
"377 91 OFFCURVE",
"367 137 OFFCURVE",
"367 159 CURVE SMOOTH",
"367 196 OFFCURVE",
"394 214 OFFCURVE",
"423 214 CURVE SMOOTH",
"455 214 OFFCURVE",
"475 191 OFFCURVE",
"475 157 CURVE SMOOTH",
"475 99 OFFCURVE",
"425 58 OFFCURVE",
"324 58 CURVE SMOOTH"
);
}
);
width = 580;
}
);
category = Letter;
},
{
glyphname = Ta.nohd;
lastChange = "2019-05-14 14:08:00 +0000";
layers = (
{
layerId = UUID0;
paths = (
{
closed = 1;
nodes = (
"483 375 LINE SMOOTH",
"483 513 OFFCURVE",
"398 575 OFFCURVE",
"265 575 CURVE SMOOTH",
"123 575 OFFCURVE",
"49 482 OFFCURVE",
"49 369 CURVE SMOOTH",
"49 230 LINE",
"130 230 LINE",
"130 368 LINE SMOOTH",
"130 440 OFFCURVE",
"165 503 OFFCURVE",
"263 503 CURVE SMOOTH",
"378 503 OFFCURVE",
"402 434 OFFCURVE",
"402 368 CURVE SMOOTH",
"402 0 LINE",
"483 0 LINE"
);
}
);
width = 564;
}
);
category = Letter;
},
{
glyphname = Da.nohd;
lastChange = "2019-05-14 14:08:00 +0000";
layers = (
{
layerId = UUID0;
paths = (
{
closed = 1;
nodes = (
"302 548 LINE SMOOTH",
"302 400 OFFCURVE",
"187 351 OFFCURVE",
"30 346 CURVE",
"42 149 OFFCURVE",
"149 26 OFFCURVE",
"315 26 CURVE SMOOTH",
"340 26 OFFCURVE",
"366 30 OFFCURVE",
"393 37 CURVE",
"397 11 OFFCURVE",
"406 -39 OFFCURVE",
"414 -74 CURVE",
"492 -60 LINE",
"487 -27 OFFCURVE",
"477 29 OFFCURVE",
"470 59 CURVE",
"503 69 OFFCURVE",
"548 106 OFFCURVE",
"548 159 CURVE SMOOTH",
"548 204 OFFCURVE",
"515 250 OFFCURVE",
"462 250 CURVE SMOOTH",
"417 250 OFFCURVE",
"374 216 OFFCURVE",
"374 156 CURVE SMOOTH",
"374 137 OFFCURVE",
"378 121 OFFCURVE",
"381 109 CURVE",
"359 104 OFFCURVE",
"338 101 OFFCURVE",
"317 101 CURVE SMOOTH",
"199 101 OFFCURVE",
"129 168 OFFCURVE",
"117 285 CURVE",
"265 296 OFFCURVE",
"383 368 OFFCURVE",
"383 550 CURVE SMOOTH",
"383 600 LINE",
"302 600 LINE"
);
}
);
width = 585;
}
);
category = Letter;
},
{
glyphname = Na.nohd;
lastChange = "2019-05-14 14:08:00 +0000";
layers = (
{
layerId = UUID0;
paths = (
{
closed = 1;
nodes = (
"446 0 LINE",
"446 600 LINE",
"365 600 LINE",
"365 0 LINE"
);
},
{
closed = 1;
nodes = (
"137 410 OFFCURVE",
"20 352 OFFCURVE",
"20 256 CURVE SMOOTH",
"20 205 OFFCURVE",
"56 164 OFFCURVE",
"103 164 CURVE SMOOTH",
"149 164 OFFCURVE",
"186 204 OFFCURVE",
"186 255 CURVE SMOOTH",
"186 278 OFFCURVE",
"178 299 OFFCURVE",
"166 315 CURVE",
"197 331 OFFCURVE",
"239 339 OFFCURVE",
"284 339 CURVE SMOOTH",
"337 339 OFFCURVE",
"370 327 OFFCURVE",
"389 307 CURVE",
"408 385 LINE",
"378 401 OFFCURVE",
"338 410 OFFCURVE",
"288 410 CURVE SMOOTH"
);
}
);
width = 526;
}
);
category = Letter;
},
{
glyphname = Nha.nohd;
lastChange = "2019-05-14 14:08:00 +0000";
layers = (
{
layerId = UUID0;
paths = (
{
closed = 1;
nodes = (
"429 0 LINE",
"429 311 LINE",
"348 311 LINE",
"348 0 LINE"
);
},
{
closed = 1;
nodes = (
"205 202 OFFCURVE",
"86 174 OFFCURVE",
"86 91 CURVE SMOOTH",
"86 53 OFFCURVE",
"114 25 OFFCURVE",
"150 25 CURVE SMOOTH",
"187 25 OFFCURVE",
"216 54 OFFCURVE",
"216 90 CURVE SMOOTH",
"216 103 OFFCURVE",
"212 116 OFFCURVE",
"205 126 CURVE",
"229 137 OFFCURVE",
"260 141 OFFCURVE",
"292 141 CURVE SMOOTH",
"333 141 OFFCURVE",
"358 134 OFFCURVE",
"374 118 CURVE",
"388 184 LINE",
"365 196 OFFCURVE",
"333 202 OFFCURVE",
"295 202 CURVE SMOOTH"
);
},
{
closed = 1;
nodes = (
"352 511 OFFCURVE",
"70 537 OFFCURVE",
"70 392 CURVE SMOOTH",
"70 317 OFFCURVE",
"145 283 OFFCURVE",
"217 283 CURVE SMOOTH",
"282 283 OFFCURVE",
"349 304 OFFCURVE",
"428 304 CURVE SMOOTH",
"519 304 OFFCURVE",
"539 235 OFFCURVE",
"539 191 CURVE SMOOTH",
"539 0 LINE",
"620 0 LINE",
"620 194 LINE SMOOTH",
"620 291 OFFCURVE",
"569 375 OFFCURVE",
"436 375 CURVE SMOOTH",
"368 375 OFFCURVE",
"275 357 OFFCURVE",
"223 357 CURVE SMOOTH",
"169 357 OFFCURVE",
"150 371 OFFCURVE",
"150 396 CURVE SMOOTH",
"150 493 OFFCURVE",
"435 445 OFFCURVE",
"435 574 CURVE SMOOTH",
"435 622 LINE",
"352 622 LINE",
"352 578 LINE SMOOTH"
);
}
);
width = 700;
}
);
category = Letter;
},
{
glyphname = Pa.nohd;
lastChange = "2019-05-14 14:08:00 +0000";
layers = (
{
layerId = UUID0;
paths = (
{
closed = 1;
nodes = (
"395 257 LINE",
"359 211 OFFCURVE",
"301 171 OFFCURVE",
"225 171 CURVE SMOOTH",
"152 171 OFFCURVE",
"110 209 OFFCURVE",
"110 285 CURVE SMOOTH",
"110 354 OFFCURVE",
"162 397 OFFCURVE",
"162 478 CURVE SMOOTH",
"162 504 OFFCURVE",
"156 565 OFFCURVE",
"131 600 CURVE",
"50 600 LINE",
"66 573 OFFCURVE",
"82 533 OFFCURVE",
"82 477 CURVE SMOOTH",
"82 400 OFFCURVE",
"30 363 OFFCURVE",
"30 279 CURVE SMOOTH",
"30 170 OFFCURVE",
"99 100 OFFCURVE",
"219 100 CURVE SMOOTH",
"297 100 OFFCURVE",
"355 130 OFFCURVE",
"392 159 CURVE"
);
},
{
closed = 1;
nodes = (
"385 0 LINE",
"466 0 LINE",
"466 600 LINE",
"385 600 LINE"
);
}
);
width = 546;
}
);
category = Letter;
},
{
glyphname = Pha.nohd;
lastChange = "2019-05-14 14:08:00 +0000";
layers = (
{
layerId = UUID0;
paths = (
{
closed = 1;
nodes = (
"169 349 LINE",
"263 363 OFFCURVE",
"362 405 OFFCURVE",
"362 520 CURVE SMOOTH",
"362 610 LINE",
"281 610 LINE",
"281 518 LINE SMOOTH",
"281 445 OFFCURVE",
"173 403 OFFCURVE",
"53 401 CURVE",
"54 382 LINE",
"356 -29 LINE",
"420 0 LINE"
);
},
{
closed = 1;
nodes = (
"310 296 LINE",
"308 287 OFFCURVE",
"307 278 OFFCURVE",
"307 269 CURVE SMOOTH",
"307 201 OFFCURVE",
"359 147 OFFCURVE",
"423 147 CURVE SMOOTH",
"515 147 OFFCURVE",
"548 220 OFFCURVE",
"548 267 CURVE SMOOTH",
"548 327 OFFCURVE",
"499 388 OFFCURVE",
"427 388 CURVE SMOOTH",
"338 388 OFFCURVE",
"272 310 OFFCURVE",
"243 229 CURVE",
"297 164 LINE",
"315 249 OFFCURVE",
"369 318 OFFCURVE",
"426 318 CURVE SMOOTH",
"453 318 OFFCURVE",
"477 301 OFFCURVE",
"477 265 CURVE SMOOTH",
"477 238 OFFCURVE",
"456 216 OFFCURVE",
"424 216 CURVE SMOOTH",
"400 216 OFFCURVE",
"374 237 OFFCURVE",
"374 278 CURVE SMOOTH",
"374 293 OFFCURVE",
"378 311 OFFCURVE",
"385 329 CURVE"
);
}
);
width = 600;
}
);
category = Letter;
},
{
glyphname = Ba.nohd;
lastChange = "2019-05-14 14:08:00 +0000";
layers = (
{
layerId = UUID0;
paths = (
{
closed = 1;
nodes = (
"385 219 LINE",
"350 186 OFFCURVE",
"301 167 OFFCURVE",
"231 167 CURVE SMOOTH",
"167 167 OFFCURVE",
"111 205 OFFCURVE",
"111 287 CURVE SMOOTH",
"111 357 OFFCURVE",
"164 401 OFFCURVE",
"252 401 CURVE SMOOTH",
"332 401 OFFCURVE",
"385 376 OFFCURVE",
"411 363 CURVE",
"425 435 LINE",
"406 444 OFFCURVE",
"339 470 OFFCURVE",
"249 470 CURVE SMOOTH",
"118 470 OFFCURVE",
"30 400 OFFCURVE",
"30 286 CURVE SMOOTH",
"30 175 OFFCURVE",
"112 98 OFFCURVE",
"225 98 CURVE SMOOTH",
"299 98 OFFCURVE",
"349 113 OFFCURVE",
"385 134 CURVE",
"385 0 LINE",
"466 0 LINE",
"466 600 LINE",
"385 600 LINE"
);
}
);
width = 546;
}
);
category = Letter;
},
{
glyphname = Bha.nohd;
lastChange = "2019-05-14 14:08:00 +0000";
layers = (
{
layerId = UUID0;
paths = (
{
closed = 1;
nodes = (
"75 367 LINE",
"75 352 LINE",
"104 352 OFFCURVE",
"149 395 OFFCURVE",
"188 445 CURVE SMOOTH",
"218 484 OFFCURVE",
"257 539 OFFCURVE",
"308 539 CURVE SMOOTH",
"334 539 OFFCURVE",
"369 525 OFFCURVE",
"369 466 CURVE SMOOTH",
"369 440 OFFCURVE",
"362 399 OFFCURVE",
"338 355 CURVE",
"401 314 LINE",
"426 349 OFFCURVE",
"450 403 OFFCURVE",
"450 464 CURVE SMOOTH",
"450 567 OFFCURVE",
"386 611 OFFCURVE",
"318 611 CURVE SMOOTH",
"225 611 OFFCURVE",
"181 534 OFFCURVE",
"123 471 CURVE SMOOTH",
"95 441 OFFCURVE",
"53 399 OFFCURVE",
"6 399 CURVE",
"6 327 LINE",
"255 0 LINE",
"317 48 LINE"
);
}
);
width = 524;
}
);
category = Letter;
},
{
glyphname = Bha.alt.nohd;
lastChange = "2019-05-14 14:08:00 +0000";
layers = (
{
layerId = UUID0;
paths = (
{
closed = 1;
nodes = (
"162 301 OFFCURVE",
"213 356 OFFCURVE",
"236 417 CURVE SMOOTH",
"252 459 OFFCURVE",
"265 513 OFFCURVE",
"323 513 CURVE SMOOTH",
"373 513 OFFCURVE",
"393 487 OFFCURVE",
"393 442 CURVE SMOOTH",
"393 0 LINE",
"474 0 LINE",
"474 433 LINE SMOOTH",
"474 536 OFFCURVE",
"423 585 OFFCURVE",
"329 585 CURVE SMOOTH",
"223 585 OFFCURVE",
"198 507 OFFCURVE",
"173 453 CURVE SMOOTH",
"151 405 OFFCURVE",
"131 373 OFFCURVE",
"57 373 CURVE",
"57 301 LINE"
);
}
);
width = 564;
}
);
category = Letter;
},
{
glyphname = Ma.nohd;
lastChange = "2019-05-14 14:08:00 +0000";
layers = (
{
layerId = UUID0;
paths = (
{
closed = 1;
nodes = (
"105 270 LINE",
"186 205 LINE",
"186 600 LINE",
"105 600 LINE"
);
},
{
closed = 1;
nodes = (
"427 0 LINE",
"508 0 LINE",
"508 600 LINE",
"427 600 LINE"
);
},
{
closed = 1;
nodes = (
"109 317 OFFCURVE",
"20 294 OFFCURVE",
"20 206 CURVE SMOOTH",
"20 153 OFFCURVE",
"56 114 OFFCURVE",
"103 114 CURVE SMOOTH",
"149 114 OFFCURVE",
"186 154 OFFCURVE",
"186 205 CURVE SMOOTH",
"186 219 OFFCURVE",
"183 233 OFFCURVE",
"178 245 CURVE",
"190 246 OFFCURVE",
"203 247 OFFCURVE",
"219 247 CURVE SMOOTH",
"299 247 OFFCURVE",
"415 206 OFFCURVE",
"438 142 CURVE",
"455 243 LINE",
"381 297 OFFCURVE",
"297 317 OFFCURVE",
"209 317 CURVE SMOOTH"
);
}
);
width = 588;
}
);
category = Letter;
},
{
glyphname = Mha.nohd;
lastChange = "2019-05-14 14:08:00 +0000";
layers = (
{
layerId = UUID0;
paths = (
{
closed = 1;
nodes = (
"234 612 LINE",
"234 544 LINE SMOOTH",
"234 477 OFFCURVE",
"40 519 OFFCURVE",
"40 379 CURVE SMOOTH",
"40 301 OFFCURVE",
"115 268 OFFCURVE",
"197 268 CURVE SMOOTH",
"316 268 OFFCURVE",
"529 310 OFFCURVE",
"621 298 CURVE SMOOTH",
"689 289 OFFCURVE",
"697 234 OFFCURVE",
"697 208 CURVE SMOOTH",
"697 0 LINE",
"778 0 LINE",
"778 207 LINE SMOOTH",
"778 294 OFFCURVE",
"737 362 OFFCURVE",
"632 373 CURVE SMOOTH",
"543 382 OFFCURVE",
"305 342 OFFCURVE",
"203 342 CURVE SMOOTH",
"139 342 OFFCURVE",
"120 355 OFFCURVE",
"120 385 CURVE SMOOTH",
"120 458 OFFCURVE",
"315 402 OFFCURVE",
"315 550 CURVE SMOOTH",
"315 612 LINE"
);
},
{
closed = 1;
nodes = (
"567 0 LINE",
"567 612 LINE",
"486 612 LINE",
"486 0 LINE"
);
},
{
closed = 1;
nodes = (
"337 192 OFFCURVE",
"320 191 OFFCURVE",
"305 189 CURVE",
"305 311 LINE",
"224 311 LINE",
"224 178 LINE",
"195 171 OFFCURVE",
"175 143 OFFCURVE",
"175 109 CURVE SMOOTH",
"175 70 OFFCURVE",
"202 38 OFFCURVE",
"239 38 CURVE SMOOTH",
"276 38 OFFCURVE",
"305 70 OFFCURVE",
"305 109 CURVE SMOOTH",
"305 124 LINE",
"316 125 OFFCURVE",
"331 126 OFFCURVE",
"343 126 CURVE SMOOTH",
"398 126 OFFCURVE",
"466 109 OFFCURVE",
"499 65 CURVE",
"504 148 LINE",
"436 182 OFFCURVE",
"388 192 OFFCURVE",
"349 192 CURVE SMOOTH"
);
}
);
width = 858;
}
);
category = Letter;
},
{
glyphname = Ya.nohd;
lastChange = "2019-05-14 14:08:00 +0000";
layers = (
{
layerId = UUID0;
paths = (
{
closed = 1;
nodes = (
"408 0 LINE",
"489 0 LINE",
"489 600 LINE",
"408 600 LINE"
);
},
{
closed = 1;
nodes = (
"435 272 LINE",
"415 237 OFFCURVE",
"364 171 OFFCURVE",
"238 171 CURVE SMOOTH",
"171 171 OFFCURVE",
"136 188 OFFCURVE",
"110 237 CURVE",
"175 244 OFFCURVE",
"246 313 OFFCURVE",
"246 430 CURVE SMOOTH",
"246 600 LINE",
"165 600 LINE",
"165 396 LINE SMOOTH",
"165 316 OFFCURVE",
"99 282 OFFCURVE",
"18 273 CURVE",
"44 159 OFFCURVE",
"113 100 OFFCURVE",
"242 100 CURVE SMOOTH",
"350 100 OFFCURVE",
"408 149 OFFCURVE",
"435 177 CURVE"
);
}
);
width = 569;
}
);
category = Letter;
},
{
glyphname = Ra.nohd;
lastChange = "2019-05-14 14:08:00 +0000";
layers = (
{
layerId = UUID0;
paths = (
{
closed = 1;
nodes = (
"396 362 LINE",
"366 380 OFFCURVE",
"328 401 OFFCURVE",
"288 401 CURVE SMOOTH",
"228 401 OFFCURVE",
"186 355 OFFCURVE",
"122 355 CURVE SMOOTH",
"88 355 OFFCURVE",
"58 368 OFFCURVE",
"34 380 CURVE",
"16 314 LINE",
"46 298 OFFCURVE",
"81 284 OFFCURVE",
"120 284 CURVE SMOOTH",
"190 284 OFFCURVE",
"227 330 OFFCURVE",
"284 330 CURVE SMOOTH",
"325 330 OFFCURVE",
"358 306 OFFCURVE",
"377 284 CURVE"
);
},
{
closed = 1;
nodes = (
"436 0 LINE",
"436 600 LINE",
"355 600 LINE",
"355 0 LINE"
);
}
);
width = 516;
}
);
category = Letter;
},
{
glyphname = Rha.nohd;
lastChange = "2019-05-14 14:08:00 +0000";
layers = (
{
components = (
{
name = Ra.cd;
transform = "{1, 0, 0, 1, 478, 0}";
}
);
layerId = UUID0;
paths = (
{
closed = 1;
nodes = (
"352 622 LINE",
"352 551 LINE SMOOTH",
"352 504 OFFCURVE",
"70 540 OFFCURVE",
"70 398 CURVE SMOOTH",
"70 320 OFFCURVE",
"145 283 OFFCURVE",
"217 283 CURVE SMOOTH",
"282 283 OFFCURVE",
"339 304 OFFCURVE",
"418 304 CURVE SMOOTH",
"509 304 OFFCURVE",
"529 235 OFFCURVE",
"529 191 CURVE SMOOTH",
"529 0 LINE",
"610 0 LINE",
"610 194 LINE SMOOTH",
"610 291 OFFCURVE",
"559 375 OFFCURVE",
"426 375 CURVE SMOOTH",
"358 375 OFFCURVE",
"275 357 OFFCURVE",
"223 357 CURVE SMOOTH",
"169 357 OFFCURVE",
"150 370 OFFCURVE",
"150 400 CURVE SMOOTH",
"150 482 OFFCURVE",
"435 427 OFFCURVE",
"435 551 CURVE SMOOTH",
"435 622 LINE"
);
}
);
width = 690;
}
);
category = Letter;
},
{
glyphname = La.nohd;
lastChange = "2019-05-14 14:08:00 +0000";
layers = (
{
layerId = UUID0;
paths = (
{
closed = 1;
nodes = (
"502 0 LINE",
"583 0 LINE",
"583 600 LINE",
"502 600 LINE"
);
},
{
closed = 1;
nodes = (
"406 477 OFFCURVE",
"351 460 OFFCURVE",
"316 419 CURVE",
"284 456 OFFCURVE",
"237 477 OFFCURVE",
"186 477 CURVE SMOOTH",
"90 477 OFFCURVE",
"30 412 OFFCURVE",
"30 332 CURVE SMOOTH",
"30 263 OFFCURVE",
"85 190 OFFCURVE",
"137 121 CURVE SMOOTH",
"237 -11 LINE",
"298 34 LINE",
"193 174 LINE SMOOTH",
"145 238 OFFCURVE",
"112 282 OFFCURVE",
"112 329 CURVE SMOOTH",
"112 386 OFFCURVE",
"154 409 OFFCURVE",
"187 409 CURVE SMOOTH",
"236 409 OFFCURVE",
"279 376 OFFCURVE",
"279 316 CURVE SMOOTH",
"279 310 LINE",
"353 310 LINE",
"353 405 OFFCURVE",
"426 409 OFFCURVE",
"455 409 CURVE SMOOTH",
"487 409 OFFCURVE",
"514 399 OFFCURVE",
"522 397 CURVE",
"535 468 LINE",
"518 472 OFFCURVE",
"489 477 OFFCURVE",
"451 477 CURVE SMOOTH"
);
}
);
width = 663;
}
);
category = Letter;
},
{
glyphname = Lha.nohd;
lastChange = "2019-05-14 14:08:00 +0000";
layers = (
{
components = (
{
name = La.cd;
transform = "{1, 0, 0, 1, 485, 0}";
}
);
layerId = UUID0;
paths = (
{
closed = 1;
nodes = (
"325 622 LINE",
"325 557 LINE SMOOTH",
"325 502 OFFCURVE",
"40 536 OFFCURVE",
"40 391 CURVE SMOOTH",
"40 316 OFFCURVE",
"115 283 OFFCURVE",
"187 283 CURVE SMOOTH",
"234 283 OFFCURVE",
"385 312 OFFCURVE",
"446 312 CURVE SMOOTH",
"527 312 OFFCURVE",
"549 254 OFFCURVE",
"549 210 CURVE SMOOTH",
"549 0 LINE",
"630 0 LINE",
"630 213 LINE SMOOTH",
"630 310 OFFCURVE",
"579 383 OFFCURVE",
"446 383 CURVE SMOOTH",
"360 383 OFFCURVE",
"245 357 OFFCURVE",
"193 357 CURVE SMOOTH",
"139 357 OFFCURVE",
"120 371 OFFCURVE",
"120 392 CURVE SMOOTH",
"120 473 OFFCURVE",
"405 427 OFFCURVE",
"405 551 CURVE SMOOTH",
"405 622 LINE"
);
}
);
width = 710;
}
);
category = Letter;
},
{
glyphname = Wa.nohd;
lastChange = "2019-05-14 14:08:00 +0000";
layers = (
{
layerId = UUID0;
paths = (
{
closed = 1;
nodes = (
"435 600 LINE",
"435 0 LINE",
"516 0 LINE",
"516 600 LINE"
);
},
{
closed = 1;
nodes = (
"360 201 OFFCURVE",
"367 217 OFFCURVE",
"382 217 CURVE SMOOTH",
"394 217 OFFCURVE",
"434 188 OFFCURVE",
"463 169 CURVE",
"463 246 LINE",
"451 257 OFFCURVE",
"401 285 OFFCURVE",
"375 285 CURVE SMOOTH",
"346 285 OFFCURVE",
"334 264 OFFCURVE",
"312 241 CURVE SMOOTH",
"294 223 OFFCURVE",
"267 192 OFFCURVE",
"218 192 CURVE SMOOTH",
"165 192 OFFCURVE",
"132 225 OFFCURVE",
"132 282 CURVE SMOOTH",
"132 417 OFFCURVE",
"319 450 OFFCURVE",
"457 424 CURVE",
"457 489 LINE",
"312 514 OFFCURVE",
"50 485 OFFCURVE",
"50 279 CURVE SMOOTH",
"50 199 OFFCURVE",
"101 124 OFFCURVE",
"207 124 CURVE SMOOTH",
"289 124 OFFCURVE",
"319 157 OFFCURVE",
"339 178 CURVE SMOOTH"
);
}
);
width = 596;
}
);
category = Letter;
},
{
glyphname = Ssa.nohd;
lastChange = "2019-05-14 14:08:00 +0000";
layers = (
{
layerId = UUID0;
paths = (
{
closed = 1;
nodes = (
"402 230 LINE",
"444 286 LINE",
"139 522 LINE",
"101 463 LINE"
);
},
{
closed = 1;
nodes = (
"466 0 LINE",
"466 600 LINE",
"385 600 LINE",
"385 0 LINE"
);
},
{
closed = 1;
nodes = (
"395 257 LINE",
"359 211 OFFCURVE",
"301 171 OFFCURVE",
"225 171 CURVE SMOOTH",
"152 171 OFFCURVE",
"110 209 OFFCURVE",
"110 285 CURVE SMOOTH",
"110 354 OFFCURVE",
"162 397 OFFCURVE",
"162 478 CURVE SMOOTH",
"162 504 OFFCURVE",
"156 565 OFFCURVE",
"131 600 CURVE",
"50 600 LINE",
"66 573 OFFCURVE",
"82 533 OFFCURVE",
"82 477 CURVE SMOOTH",
"82 400 OFFCURVE",
"30 363 OFFCURVE",
"30 279 CURVE SMOOTH",
"30 170 OFFCURVE",
"99 100 OFFCURVE",
"219 100 CURVE SMOOTH",
"297 100 OFFCURVE",
"355 130 OFFCURVE",
"392 159 CURVE"
);
}
);
width = 546;
}
);
category = Letter;
},
{
glyphname = Sa.nohd;
lastChange = "2019-05-14 14:08:00 +0000";
layers = (
{
layerId = UUID0;
paths = (
{
closed = 1;
nodes = (
"410 600 LINE",
"410 0 LINE",
"491 0 LINE",
"491 600 LINE"
);
},
{
closed = 1;
nodes = (
"94 289 LINE",
"148 301 OFFCURVE",
"213 346 OFFCURVE",
"213 465 CURVE SMOOTH",
"213 515 OFFCURVE",
"183 574 OFFCURVE",
"167 600 CURVE",
"81 600 LINE",
"97 579 OFFCURVE",
"132 514 OFFCURVE",
"132 466 CURVE SMOOTH",
"132 397 OFFCURVE",
"102 333 OFFCURVE",
"21 331 CURVE",
"16 271 LINE",
"204 0 LINE",
"300 0 LINE"
);
},
{
closed = 1;
nodes = (
"461 286 LINE",
"358 313 OFFCURVE",
"238 333 OFFCURVE",
"116 333 CURVE SMOOTH",
"83 333 OFFCURVE",
"56 332 OFFCURVE",
"21 331 CURVE",
"37 262 LINE",
"64 263 OFFCURVE",
"75 262 OFFCURVE",
"102 262 CURVE SMOOTH",
"238 262 OFFCURVE",
"343 242 OFFCURVE",
"461 215 CURVE"
);
}
);
width = 571;
}
);
category = Letter;
},
{
glyphname = Ha.nohd;
lastChange = "2019-05-14 14:08:00 +0000";
layers = (
{
layerId = UUID0;
paths = (
{
closed = 1;
nodes = (
"324 539 LINE SMOOTH",
"324 416 OFFCURVE",
"40 463 OFFCURVE",
"40 297 CURVE SMOOTH",
"40 196 OFFCURVE",
"115 162 OFFCURVE",
"197 162 CURVE SMOOTH",
"250 162 OFFCURVE",
"288 174 OFFCURVE",
"318 174 CURVE SMOOTH",
"371 174 OFFCURVE",
"380 146 OFFCURVE",
"380 120 CURVE SMOOTH",
"380 69 OFFCURVE",
"354 35 OFFCURVE",
"343 22 CURVE",
"405 -11 LINE",
"416 0 OFFCURVE",
"460 47 OFFCURVE",
"460 122 CURVE SMOOTH",
"460 192 OFFCURVE",
"419 246 OFFCURVE",
"330 246 CURVE SMOOTH",
"278 246 OFFCURVE",
"245 236 OFFCURVE",
"197 236 CURVE SMOOTH",
"148 236 OFFCURVE",
"120 248 OFFCURVE",
"120 299 CURVE SMOOTH",
"120 402 OFFCURVE",
"405 364 OFFCURVE",
"405 537 CURVE SMOOTH",
"405 600 LINE",
"324 600 LINE"
);
},
{
closed = 1;
nodes = (
"182 16 LINE",
"149 53 OFFCURVE",
"122 84 OFFCURVE",
"122 138 CURVE SMOOTH",
"122 181 OFFCURVE",
"141 205 OFFCURVE",
"142 211 CURVE",
"77 244 LINE",
"60 219 OFFCURVE",
"42 185 OFFCURVE",
"42 144 CURVE SMOOTH",
"42 77 OFFCURVE",
"83 15 OFFCURVE",
"122 -28 CURVE"
);
}
);
width = 495;
}
);
category = Letter;
},
{
glyphname = Ha.alt.nohd;
lastChange = "2019-05-14 14:08:00 +0000";
layers = (
{
layerId = UUID0;
paths = (
{
closed = 1;
nodes = (
"235 0 LINE",
"316 0 LINE",
"316 296 LINE",
"235 296 LINE"
);
},
{
closed = 1;
nodes = (
"325 610 LINE",
"325 563 LINE SMOOTH",
"325 502 OFFCURVE",
"41 510 OFFCURVE",
"41 358 CURVE SMOOTH",
"41 280 OFFCURVE",
"116 243 OFFCURVE",
"168 243 CURVE SMOOTH",
"235 243 OFFCURVE",
"309 267 OFFCURVE",
"339 267 CURVE SMOOTH",
"400 267 OFFCURVE",
"420 235 OFFCURVE",
"420 191 CURVE SMOOTH",
"420 0 LINE",
"501 0 LINE",
"501 194 LINE SMOOTH",
"501 291 OFFCURVE",
"450 339 OFFCURVE",
"367 339 CURVE SMOOTH",
"299 339 OFFCURVE",
"246 317 OFFCURVE",
"174 317 CURVE SMOOTH",
"140 317 OFFCURVE",
"121 330 OFFCURVE",
"121 360 CURVE SMOOTH",
"121 462 OFFCURVE",
"406 431 OFFCURVE",
"406 562 CURVE SMOOTH",
"406 610 LINE"
);
}
);
width = 560;
}
);
category = Letter;
},
{
glyphname = AA_dv.alt;
lastChange = "2019-05-14 14:08:00 +0000";
layers = (
{
layerId = UUID0;
paths = (
{
closed = 1;
nodes = (
"47 445 LINE",
"0 483 OFFCURVE",
"-41 517 OFFCURVE",
"-82 556 CURVE",
"-135 514 LINE",
"-83 465 OFFCURVE",
"-23 415 OFFCURVE",
"47 355 CURVE",
"47 0 LINE",
"128 0 LINE",
"128 622 LINE",
"47 622 LINE"
);
}
);
width = 208;
}
);
category = Letter;
},
{
glyphname = AA_dv.alt2;
lastChange = "2019-05-14 14:08:00 +0000";
layers = (
{
layerId = UUID0;
paths = (
{
closed = 1;
nodes = (
"133 0 LINE",
"133 622 LINE",
"52 622 LINE",
"52 0 LINE"
);
},
{
closed = 1;
nodes = (
"-118 472 LINE",
"-58 430 OFFCURVE",
"0 386 OFFCURVE",
"57 337 CURVE",
"97 396 LINE",
"33 444 OFFCURVE",
"-37 499 OFFCURVE",
"-109 551 CURVE"
);
}
);
width = 213;
}
);
category = Letter;
},
{
glyphname = AA_dv.nya;
lastChange = "2019-05-14 14:08:00 +0000";
layers = (
{
layerId = UUID0;
paths = (
{
closed = 1;
nodes = (
"133 0 LINE",
"133 622 LINE",
"52 622 LINE",
"52 0 LINE"
);
},
{
closed = 1;
nodes = (
"-138 518 LINE",
"-58 476 OFFCURVE",
"0 439 OFFCURVE",
"57 390 CURVE",
"97 449 LINE",
"33 497 OFFCURVE",
"-37 545 OFFCURVE",
"-129 597 CURVE"
);
}
);
width = 213;
}
);
category = Letter;
},
{
glyphname = AA_dv.tall;
lastChange = "2019-05-14 14:08:00 +0000";
layers = (
{
layerId = UUID0;
paths = (
{
closed = 1;
nodes = (
"131 -151 LINE",
"131 551 LINE",
"221 551 LINE",
"221 622 LINE",
"0 622 LINE",
"0 551 LINE",
"50 551 LINE",
"50 -151 LINE"
);
}
);
width = 211;
}
);
category = Letter;
},
{
glyphname = AA_dv.ttha;
lastChange = "2019-05-14 14:08:00 +0000";
layers = (
{
layerId = UUID0;
paths = (
{
closed = 1;
nodes = (
"133 0 LINE",
"133 622 LINE",
"52 622 LINE",
"52 0 LINE"
);
},
{
closed = 1;
nodes = (
"-238 536 LINE",
"-120 484 OFFCURVE",
"0 438 OFFCURVE",
"57 412 CURVE",
"97 471 LINE",
"33 498 OFFCURVE",
"-99 549 OFFCURVE",
"-239 609 CURVE"
);
}
);
width = 213;
}
);
category = Letter;
},
{
glyphname = E_dv.alt;
lastChange = "2019-05-14 14:08:00 +0000";
layers = (
{
layerId = UUID0;
paths = (
{
closed = 1;
nodes = (
"193 122 LINE",
"152 174 OFFCURVE",
"130 256 OFFCURVE",
"130 343 CURVE SMOOTH",
"130 436 OFFCURVE",
"156 531 OFFCURVE",
"225 587 CURVE",
"179 646 LINE",
"81 570 OFFCURVE",
"50 454 OFFCURVE",
"50 343 CURVE SMOOTH",
"50 235 OFFCURVE",
"82 134 OFFCURVE",
"141 70 CURVE"
);
}
);
width = 275;
}
);
category = Letter;
},
{
glyphname = AI_dv.alt;
lastChange = "2019-05-14 14:08:00 +0000";
layers = (
{
layerId = UUID0;
paths = (
{
closed = 1;
nodes = (
"713 600 LINE",
"713 688 LINE SMOOTH",
"713 773 OFFCURVE",
"650 818 OFFCURVE",
"572 818 CURVE SMOOTH",
"542 818 OFFCURVE",
"488 804 OFFCURVE",
"457 804 CURVE SMOOTH",
"424 804 OFFCURVE",
"391 819 OFFCURVE",
"333 897 CURVE",
"273 860 LINE",
"350 741 OFFCURVE",
"405 736 OFFCURVE",
"457 736 CURVE SMOOTH",
"494 736 OFFCURVE",
"530 750 OFFCURVE",
"571 750 CURVE SMOOTH",
"599 750 OFFCURVE",
"632 741 OFFCURVE",
"632 700 CURVE SMOOTH",
"632 600 LINE"
);
},
{
closed = 1;
nodes = (
"193 152 LINE",
"152 204 OFFCURVE",
"130 286 OFFCURVE",
"130 363 CURVE SMOOTH",
"130 446 OFFCURVE",
"156 531 OFFCURVE",
"225 587 CURVE",
"179 646 LINE",
"81 570 OFFCURVE",
"50 464 OFFCURVE",
"50 363 CURVE SMOOTH",
"50 265 OFFCURVE",
"82 164 OFFCURVE",
"141 100 CURVE"
);
}
);
width = 793;
}
);
category = Letter;
},
{
glyphname = O_dv.alt;
lastChange = "2019-05-14 14:08:00 +0000";
layers = (
{
layerId = UUID0;
paths = (
{
closed = 1;
nodes = (
"707 0 LINE",
"707 622 LINE",
"626 622 LINE",
"626 0 LINE"
);
},
{
closed = 1;
nodes = (
"460 444 LINE",
"509 389 OFFCURVE",
"573 324 OFFCURVE",
"644 263 CURVE",
"698 317 LINE",
"632 370 OFFCURVE",
"570 429 OFFCURVE",
"520 487 CURVE"
);
},
{
closed = 1;
nodes = (
"193 152 LINE",
"152 204 OFFCURVE",
"130 286 OFFCURVE",
"130 363 CURVE SMOOTH",
"130 446 OFFCURVE",
"156 531 OFFCURVE",
"225 587 CURVE",
"179 646 LINE",
"81 570 OFFCURVE",
"50 464 OFFCURVE",
"50 363 CURVE SMOOTH",
"50 265 OFFCURVE",
"82 164 OFFCURVE",
"141 100 CURVE"
);
}
);
width = 807;
}
);
category = Letter;
},
{
glyphname = AU_dv.alt;
lastChange = "2019-05-14 14:08:00 +0000";
layers = (
{
layerId = UUID0;
paths = (
{
closed = 1;
nodes = (
"707 600 LINE",
"707 688 LINE SMOOTH",
"707 773 OFFCURVE",
"644 818 OFFCURVE",
"566 818 CURVE SMOOTH",
"536 818 OFFCURVE",
"482 804 OFFCURVE",
"451 804 CURVE SMOOTH",
"418 804 OFFCURVE",
"385 819 OFFCURVE",
"327 897 CURVE",
"267 860 LINE",
"344 741 OFFCURVE",
"399 736 OFFCURVE",
"451 736 CURVE SMOOTH",
"488 736 OFFCURVE",
"524 750 OFFCURVE",
"565 750 CURVE SMOOTH",
"593 750 OFFCURVE",
"626 741 OFFCURVE",
"626 700 CURVE SMOOTH",
"626 600 LINE"
);
},
{
closed = 1;
nodes = (
"707 0 LINE",
"707 622 LINE",
"626 622 LINE",
"626 0 LINE"
);
},
{
closed = 1;
nodes = (
"457 534 LINE",
"506 479 OFFCURVE",
"573 424 OFFCURVE",
"644 363 CURVE",
"698 417 LINE",
"632 470 OFFCURVE",
"567 519 OFFCURVE",
"517 577 CURVE"
);
},
{
closed = 1;
nodes = (
"193 152 LINE",
"152 204 OFFCURVE",
"130 286 OFFCURVE",
"130 363 CURVE SMOOTH",
"130 446 OFFCURVE",
"156 531 OFFCURVE",
"225 587 CURVE",
"179 646 LINE",
"81 570 OFFCURVE",
"50 464 OFFCURVE",
"50 363 CURVE SMOOTH",
"50 265 OFFCURVE",
"82 164 OFFCURVE",
"141 100 CURVE"
);
}
);
width = 807;
}
);
category = Letter;
},
{
glyphname = Ha_Nna;
lastChange = "2019-05-14 14:08:00 +0000";
layers = (
{
components = (
{
name = Ha_Nna.nohd;
}
);
layerId = UUID0;
paths = (
{
closed = 1;
nodes = (
"610 551 LINE",
"610 622 LINE",
"0 622 LINE",
"0 551 LINE"
);
}
);
width = 600;
}
);
category = Letter;
},
{
glyphname = Bha.alt;
lastChange = "2019-05-14 14:08:00 +0000";
layers = (
{
components = (
{
name = Bha.alt.nohd;
}
);
layerId = UUID0;
paths = (
{
closed = 1;
nodes = (
"574 622 LINE",
"0 622 LINE",
"0 551 LINE",
"574 551 LINE"
);
}
);
width = 564;
}
);
category = Letter;
},
{
glyphname = Ha.alt;
lastChange = "2019-05-14 14:08:00 +0000";
layers = (
{
layerId = UUID0;
paths = (
{
closed = 1;
nodes = (
"0 622 LINE",
"0 551 LINE",
"322 551 LINE",
"296 504 OFFCURVE",
"40 510 OFFCURVE",
"40 358 CURVE SMOOTH",
"40 280 OFFCURVE",
"115 243 OFFCURVE",
"167 243 CURVE SMOOTH",
"234 243 OFFCURVE",
"308 267 OFFCURVE",
"338 267 CURVE SMOOTH",
"399 267 OFFCURVE",
"419 235 OFFCURVE",
"419 191 CURVE SMOOTH",
"419 0 LINE",
"500 0 LINE",
"500 194 LINE SMOOTH",
"500 291 OFFCURVE",
"449 339 OFFCURVE",
"366 339 CURVE SMOOTH",
"298 339 OFFCURVE",
"245 317 OFFCURVE",
"173 317 CURVE SMOOTH",
"139 317 OFFCURVE",
"120 330 OFFCURVE",
"120 360 CURVE SMOOTH",
"120 462 OFFCURVE",
"398 437 OFFCURVE",
"405 551 CURVE",
"570 551 LINE",
"570 622 LINE"
);
},
{
closed = 1;
nodes = (
"316 0 LINE",
"316 296 LINE",
"235 296 LINE",
"235 0 LINE"
);
}
);
width = 560;
}
);
category = Letter;
},
{
glyphname = Ju;
lastChange = "2019-05-14 14:08:00 +0000";
layers = (
{
layerId = UUID0;
paths = (
{
closed = 1;
nodes = (
"496 -63 LINE",
"451 1 OFFCURVE",
"388 81 OFFCURVE",
"315 134 CURVE",
"336 159 OFFCURVE",
"350 191 OFFCURVE",
"350 232 CURVE SMOOTH",
"350 326 OFFCURVE",
"297 378 OFFCURVE",
"202 397 CURVE",
"258 432 OFFCURVE",
"331 507 OFFCURVE",
"350 570 CURVE",
"269 555 LINE",
"225 492 OFFCURVE",
"181 443 OFFCURVE",
"100 402 CURVE",
"95 345 LINE",
"191 345 OFFCURVE",
"274 330 OFFCURVE",
"274 235 CURVE SMOOTH",
"274 208 OFFCURVE",
"267 187 OFFCURVE",
"255 171 CURVE",
"223 187 OFFCURVE",
"189 196 OFFCURVE",
"156 196 CURVE SMOOTH",
"110 196 OFFCURVE",
"69 169 OFFCURVE",
"69 123 CURVE SMOOTH",
"69 78 OFFCURVE",
"107 58 OFFCURVE",
"153 58 CURVE SMOOTH",
"187 58 OFFCURVE",
"226 69 OFFCURVE",
"256 91 CURVE",
"328 48 OFFCURVE",
"391 -29 OFFCURVE",
"438 -102 CURVE"
);
},
{
closed = 1;
nodes = (
"578 342 LINE SMOOTH",
"578 453 OFFCURVE",
"427 540 OFFCURVE",
"346 587 CURVE",
"305 534 LINE",
"369 495 OFFCURVE",
"497 419 OFFCURVE",
"497 339 CURVE SMOOTH",
"497 0 LINE",
"578 0 LINE"
);
},
{
closed = 1;
nodes = (
"672 622 LINE",
"0 622 LINE",
"0 551 LINE",
"672 551 LINE"
);
}
);
width = 662;
}
);
category = Letter;
},
{
glyphname = Juu;
lastChange = "2019-05-14 14:08:00 +0000";
layers = (
{
layerId = UUID0;
paths = (
{
closed = 1;
nodes = (
"456 22 LINE",
"357 156 OFFCURVE",
"260 212 OFFCURVE",
"175 212 CURVE SMOOTH",
"100 212 OFFCURVE",
"51 164 OFFCURVE",
"51 101 CURVE SMOOTH",
"51 36 OFFCURVE",
"103 -3 OFFCURVE",
"174 -3 CURVE SMOOTH",
"295 -3 OFFCURVE",
"361 100 OFFCURVE",
"361 208 CURVE SMOOTH",
"361 311 OFFCURVE",
"293 369 OFFCURVE",
"202 387 CURVE",
"258 422 OFFCURVE",
"331 507 OFFCURVE",
"350 570 CURVE",
"269 552 LINE",
"221 489 OFFCURVE",
"169 433 OFFCURVE",
"89 392 CURVE",
"84 335 LINE",
"177 335 OFFCURVE",
"280 316 OFFCURVE",
"280 207 CURVE SMOOTH",
"280 107 OFFCURVE",
"227 66 OFFCURVE",
"174 66 CURVE SMOOTH",
"142 66 OFFCURVE",
"124 80 OFFCURVE",
"124 105 CURVE SMOOTH",
"124 127 OFFCURVE",
"143 142 OFFCURVE",
"173 142 CURVE SMOOTH",
"244 142 OFFCURVE",
"329 67 OFFCURVE",
"397 -27 CURVE"
);
},
{
closed = 1;
nodes = (
"578 342 LINE SMOOTH",
"578 453 OFFCURVE",
"427 540 OFFCURVE",
"346 587 CURVE",
"305 534 LINE",
"369 495 OFFCURVE",
"497 419 OFFCURVE",
"497 339 CURVE SMOOTH",
"497 0 LINE",
"578 0 LINE"
);
},
{
closed = 1;
nodes = (
"672 622 LINE",
"0 622 LINE",
"0 551 LINE",
"672 551 LINE"
);
}
);
width = 662;
}
);
category = Letter;
},
{
glyphname = Ru;
lastChange = "2019-05-14 14:08:00 +0000";
layers = (
{
components = (
{
name = Ru.nohd;
}
);
layerId = UUID0;
paths = (
{
closed = 1;
nodes = (
"750 551 LINE",
"750 622 LINE",
"0 622 LINE",
"0 551 LINE"
);
}
);
width = 740;
}
);
category = Letter;
},
{
glyphname = Ruu;
lastChange = "2019-05-14 14:08:00 +0000";
layers = (
{
components = (
{
name = Ruu.nohd;
}
);
layerId = UUID0;
paths = (
{
closed = 1;
nodes = (
"792 551 LINE",
"792 622 LINE",
"0 622 LINE",
"0 551 LINE"
);
}
);
width = 782;
}
);
category = Letter;
},
{
glyphname = Ka.icd;
lastChange = "2019-05-14 14:08:00 +0000";
layers = (
{
components = (
{
name = Ka.icd.nohd;
}
);
layerId = UUID0;
paths = (
{
closed = 1;
nodes = (
"710 622 LINE",
"0 622 LINE",
"0 551 LINE",
"710 551 LINE"
);
}
);
width = 700;
}
);
category = Letter;
},
{
glyphname = Ka.cd;
lastChange = "2019-05-14 14:08:00 +0000";
layers = (
{
layerId = UUID0;
paths = (
{
closed = 1;
nodes = (
"-296 0 LINE",
"-215 0 LINE",
"-215 310 LINE",
"-296 310 LINE"
);
},
{
closed = 1;
nodes = (
"-68 0 LINE",
"-68 89 LINE SMOOTH",
"-68 200 OFFCURVE",
"-134 251 OFFCURVE",
"-264 251 CURVE SMOOTH",
"-394 251 OFFCURVE",
"-471 199 OFFCURVE",
"-471 129 CURVE SMOOTH",
"-471 67 OFFCURVE",
"-416 36 OFFCURVE",
"-365 36 CURVE SMOOTH",
"-336 36 OFFCURVE",
"-303 45 OFFCURVE",
"-287 59 CURVE",
"-295 117 LINE",
"-312 103 OFFCURVE",
"-335 95 OFFCURVE",
"-355 95 CURVE SMOOTH",
"-381 95 OFFCURVE",
"-402 103 OFFCURVE",
"-402 131 CURVE SMOOTH",
"-402 164 OFFCURVE",
"-356 190 OFFCURVE",
"-262 190 CURVE SMOOTH",
"-171 190 OFFCURVE",
"-138 163 OFFCURVE",
"-138 91 CURVE SMOOTH",
"-138 0 LINE"
);
}
);
width = 0;
}
);
category = Mark;
},
{
glyphname = Kha.icd;
lastChange = "2019-05-14 14:08:00 +0000";
layers = (
{
layerId = UUID0;
paths = (
{
closed = 1;
nodes = (
"247 293 LINE",
"212 386 OFFCURVE",
"181 426 OFFCURVE",
"143 436 CURVE",
"198 448 OFFCURVE",
"223 491 OFFCURVE",
"223 532 CURVE SMOOTH",
"223 557 OFFCURVE",
"210 574 OFFCURVE",
"198 587 CURVE",
"117 578 LINE",
"137 568 OFFCURVE",
"148 549 OFFCURVE",
"148 532 CURVE SMOOTH",
"148 496 OFFCURVE",
"152 465 OFFCURVE",
"64 462 CURVE",
"58 420 LINE",
"119 404 OFFCURVE",
"139 367 OFFCURVE",
"171 293 CURVE"
);
},
{
closed = 1;
nodes = (
"472 398 LINE",
"456 378 OFFCURVE",
"424 356 OFFCURVE",
"386 356 CURVE SMOOTH",
"347 356 OFFCURVE",
"332 379 OFFCURVE",
"332 402 CURVE SMOOTH",
"332 430 OFFCURVE",
"354 450 OFFCURVE",
"388 450 CURVE SMOOTH",
"403 450 OFFCURVE",
"420 447 OFFCURVE",
"432 444 CURVE",
"439 500 LINE",
"426 504 OFFCURVE",
"396 507 OFFCURVE",
"381 507 CURVE SMOOTH",
"310 507 OFFCURVE",
"262 468 OFFCURVE",
"262 401 CURVE SMOOTH",
"262 328 OFFCURVE",
"312 298 OFFCURVE",
"374 298 CURVE SMOOTH",
"421 298 OFFCURVE",
"452 318 OFFCURVE",
"472 334 CURVE"
);
},
{
closed = 1;
nodes = (
"0 622 LINE",
"0 551 LINE",
"430 551 LINE",
"430 290 LINE",
"511 290 LINE",
"511 551 LINE",
"601 551 LINE",
"601 622 LINE"
);
}
);
width = 591;
}
);
category = Letter;
},
{
glyphname = Kha.cd;
lastChange = "2019-05-14 14:08:00 +0000";
layers = (
{
components = (
{
name = Kha.cd.nohd;
}
);
layerId = UUID0;
paths = (
{
closed = 1;
nodes = (
"581 551 LINE",
"581 622 LINE",
"0 622 LINE",
"0 551 LINE"
);
}
);
width = 571;
}
);
category = Letter;
},
{
glyphname = Kha.half;
lastChange = "2019-05-14 14:08:00 +0000";
layers = (
{
layerId = UUID0;
paths = (
{
closed = 1;
nodes = (
"575 396 OFFCURVE",
"517 468 OFFCURVE",
"414 468 CURVE SMOOTH",
"329 468 OFFCURVE",
"249 397 OFFCURVE",
"249 314 CURVE SMOOTH",
"249 221 OFFCURVE",
"311 159 OFFCURVE",
"411 159 CURVE SMOOTH",
"513 159 OFFCURVE",
"575 221 OFFCURVE",
"575 314 CURVE SMOOTH"
);
},
{
closed = 1;
nodes = (
"661 551 LINE",
"661 622 LINE",
"0 622 LINE",
"0 551 LINE"
);
},
{
closed = 1;
nodes = (
"494 257 OFFCURVE",
"467 227 OFFCURVE",
"415 227 CURVE SMOOTH",
"360 227 OFFCURVE",
"330 254 OFFCURVE",
"330 311 CURVE SMOOTH",
"330 365 OFFCURVE",
"354 399 OFFCURVE",
"412 399 CURVE SMOOTH",
"469 399 OFFCURVE",
"494 365 OFFCURVE",
"494 311 CURVE SMOOTH"
);
},
{
closed = 1;
nodes = (
"275 0 LINE",
"229 210 OFFCURVE",
"149 276 OFFCURVE",
"95 298 CURVE",
"169 321 OFFCURVE",
"233 362 OFFCURVE",
"233 481 CURVE SMOOTH",
"233 531 OFFCURVE",
"216 561 OFFCURVE",
"200 587 CURVE",
"110 569 LINE",
"137 551 OFFCURVE",
"152 516 OFFCURVE",
"152 482 CURVE SMOOTH",
"152 413 OFFCURVE",
"125 352 OFFCURVE",
"8 347 CURVE",
"0 276 LINE",
"89 244 OFFCURVE",
"145 181 OFFCURVE",
"194 0 CURVE"
);
}
);
width = 651;
}
);
category = Letter;
},
{
glyphname = Ga.icd;
lastChange = "2019-05-14 14:08:00 +0000";
layers = (
{
layerId = UUID0;
paths = (
{
closed = 1;
nodes = (
"387 585 LINE",
"362 605 OFFCURVE",
"326 622 OFFCURVE",
"262 622 CURVE SMOOTH",
"167 622 OFFCURVE",
"76 586 OFFCURVE",
"61 477 CURVE",
"123 475 OFFCURVE",
"176 466 OFFCURVE",
"176 403 CURVE SMOOTH",
"176 375 OFFCURVE",
"151 357 OFFCURVE",
"121 357 CURVE SMOOTH",
"100 357 OFFCURVE",
"82 364 OFFCURVE",
"54 375 CURVE",
"30 318 LINE",
"65 300 OFFCURVE",
"97 294 OFFCURVE",
"122 294 CURVE SMOOTH",
"194 294 OFFCURVE",
"246 337 OFFCURVE",
"246 405 CURVE SMOOTH",
"246 492 OFFCURVE",
"196 515 OFFCURVE",
"149 527 CURVE",
"166 547 OFFCURVE",
"224 556 OFFCURVE",
"265 556 CURVE SMOOTH",
"311 556 OFFCURVE",
"365 532 OFFCURVE",
"387 504 CURVE"
);
},
{
closed = 1;
nodes = (
"306 298 LINE",
"387 298 LINE",
"387 585 LINE",
"306 585 LINE"
);
}
);
width = 467;
}
);
category = Letter;
},
{
glyphname = Ga.cd;
lastChange = "2019-05-14 14:08:00 +0000";
layers = (
{
layerId = UUID0;
paths = (
{
closed = 1;
nodes = (
"-119 220 LINE",
"-144 236 OFFCURVE",
"-180 249 OFFCURVE",
"-234 249 CURVE SMOOTH",
"-319 249 OFFCURVE",
"-391 216 OFFCURVE",
"-406 129 CURVE",
"-344 127 OFFCURVE",
"-291 121 OFFCURVE",
"-291 80 CURVE SMOOTH",
"-291 54 OFFCURVE",
"-316 39 OFFCURVE",
"-346 39 CURVE SMOOTH",
"-367 39 OFFCURVE",
"-385 45 OFFCURVE",
"-413 54 CURVE",
"-437 5 LINE",
"-402 -10 OFFCURVE",
"-370 -15 OFFCURVE",
"-345 -15 CURVE SMOOTH",
"-273 -15 OFFCURVE",
"-221 24 OFFCURVE",
"-221 82 CURVE SMOOTH",
"-221 141 OFFCURVE",
"-271 159 OFFCURVE",
"-318 169 CURVE",
"-301 185 OFFCURVE",
"-266 192 OFFCURVE",
"-235 192 CURVE SMOOTH",
"-189 192 OFFCURVE",
"-145 173 OFFCURVE",
"-123 150 CURVE"
);
},
{
closed = 1;
nodes = (
"-161 0 LINE",
"-80 0 LINE",
"-80 310 LINE",
"-161 310 LINE"
);
}
);
width = 0;
}
);
category = Mark;
},
{
glyphname = Ga.cd.alt;
lastChange = "2019-05-14 14:08:00 +0000";
layers = (
{
layerId = UUID0;
paths = (
{
closed = 1;
nodes = (
"-80 252 LINE",
"-105 272 OFFCURVE",
"-145 299 OFFCURVE",
"-218 299 CURVE SMOOTH",
"-304 299 OFFCURVE",
"-387 263 OFFCURVE",
"-402 154 CURVE",
"-340 156 OFFCURVE",
"-291 143 OFFCURVE",
"-291 104 CURVE SMOOTH",
"-291 77 OFFCURVE",
"-316 59 OFFCURVE",
"-347 59 CURVE SMOOTH",
"-367 59 OFFCURVE",
"-391 66 OFFCURVE",
"-413 77 CURVE",
"-437 20 LINE",
"-402 2 OFFCURVE",
"-370 -4 OFFCURVE",
"-345 -4 CURVE SMOOTH",
"-273 -4 OFFCURVE",
"-221 39 OFFCURVE",
"-221 107 CURVE SMOOTH",
"-221 169 OFFCURVE",
"-270 194 OFFCURVE",
"-323 201 CURVE",
"-287 230 OFFCURVE",
"-243 239 OFFCURVE",
"-213 239 CURVE SMOOTH",
"-156 239 OFFCURVE",
"-109 205 OFFCURVE",
"-80 177 CURVE"
);
},
{
closed = 1;
nodes = (
"-161 0 LINE",
"-80 0 LINE",
"-80 252 LINE",
"-161 252 LINE"
);
}
);
width = 0;
}
);
script = newa;
category = Mark;
subCategory = Nonspacing;
},
{
glyphname = Ga.half;
lastChange = "2019-05-14 14:08:00 +0000";
layers = (
{
layerId = UUID0;
paths = (
{
closed = 1;
nodes = (
"418 590 LINE",
"377 604 OFFCURVE",
"332 612 OFFCURVE",
"286 612 CURVE SMOOTH",
"166 612 OFFCURVE",
"66 562 OFFCURVE",
"45 407 CURVE",
"141 407 OFFCURVE",
"221 367 OFFCURVE",
"221 281 CURVE SMOOTH",
"221 220 OFFCURVE",
"178 189 OFFCURVE",
"123 189 CURVE SMOOTH",
"89 189 OFFCURVE",
"60 199 OFFCURVE",
"29 214 CURVE",
"2 142 LINE",
"43 124 OFFCURVE",
"89 116 OFFCURVE",
"125 116 CURVE SMOOTH",
"224 116 OFFCURVE",
"297 182 OFFCURVE",
"297 284 CURVE SMOOTH",
"297 400 OFFCURVE",
"214 459 OFFCURVE",
"142 470 CURVE",
"165 520 OFFCURVE",
"232 541 OFFCURVE",
"292 541 CURVE SMOOTH",
"336 541 OFFCURVE",
"379 528 OFFCURVE",
"418 509 CURVE"
);
}
);
width = 408;
}
);
category = Letter;
},
{
glyphname = Gha.icd;
lastChange = "2019-05-14 14:08:00 +0000";
layers = (
{
layerId = UUID0;
paths = (
{
closed = 1;
nodes = (
"235 485 LINE",
"159 484 OFFCURVE",
"93 457 OFFCURVE",
"93 383 CURVE SMOOTH",
"93 327 OFFCURVE",
"137 292 OFFCURVE",
"217 292 CURVE SMOOTH",
"262 292 OFFCURVE",
"306 306 OFFCURVE",
"335 323 CURVE",
"335 393 LINE",
"313 369 OFFCURVE",
"268 352 OFFCURVE",
"228 352 CURVE SMOOTH",
"195 352 OFFCURVE",
"168 360 OFFCURVE",
"168 386 CURVE SMOOTH",
"168 416 OFFCURVE",
"195 432 OFFCURVE",
"235 433 CURVE"
);
},
{
closed = 1;
nodes = (
"210 484 LINE",
"166 484 OFFCURVE",
"142 496 OFFCURVE",
"142 531 CURVE SMOOTH",
"142 552 OFFCURVE",
"152 573 OFFCURVE",
"170 583 CURVE",
"103 604 LINE",
"80 588 OFFCURVE",
"67 561 OFFCURVE",
"67 524 CURVE SMOOTH",
"67 483 OFFCURVE",
"105 444 OFFCURVE",
"151 435 CURVE"
);
},
{
closed = 1;
nodes = (
"410 300 LINE",
"410 551 LINE",
"500 551 LINE",
"500 622 LINE",
"0 622 LINE",
"0 551 LINE",
"329 551 LINE",
"329 300 LINE"
);
}
);
width = 490;
}
);
category = Letter;
},
{
glyphname = Gha.cd;
lastChange = "2019-05-14 14:08:00 +0000";
layers = (
{
components = (
{
name = Gha.cd.nohd;
}
);
layerId = UUID0;
paths = (
{
closed = 1;
nodes = (
"500 551 LINE",
"500 622 LINE",
"0 622 LINE",
"0 551 LINE"
);
}
);
width = 490;
}
);
category = Letter;
},
{
glyphname = Gha.half;
lastChange = "2019-05-14 14:08:00 +0000";
layers = (
{
layerId = UUID0;
paths = (
{
closed = 1;
nodes = (
"370 200 LINE",
"339 182 OFFCURVE",
"299 172 OFFCURVE",
"251 172 CURVE SMOOTH",
"192 172 OFFCURVE",
"151 197 OFFCURVE",
"151 253 CURVE SMOOTH",
"151 303 OFFCURVE",
"187 330 OFFCURVE",
"248 332 CURVE",
"248 403 LINE",
"208 403 OFFCURVE",
"168 396 OFFCURVE",
"135 375 CURVE",
"125 361 LINE",
"87 334 OFFCURVE",
"70 293 OFFCURVE",
"70 250 CURVE SMOOTH",
"70 160 OFFCURVE",
"140 102 OFFCURVE",
"243 102 CURVE SMOOTH",
"293 102 OFFCURVE",
"337 114 OFFCURVE",
"370 128 CURVE"
);
},
{
closed = 1;
nodes = (
"205 400 LINE",
"149 401 OFFCURVE",
"111 420 OFFCURVE",
"111 476 CURVE SMOOTH",
"111 511 OFFCURVE",
"126 545 OFFCURVE",
"154 562 CURVE",
"102 596 LINE",
"57 570 OFFCURVE",
"30 534 OFFCURVE",
"30 479 CURVE SMOOTH",
"30 398 OFFCURVE",
"95 338 OFFCURVE",
"195 338 CURVE"
);
},
{
closed = 1;
nodes = (
"370 622 LINE",
"0 622 LINE",
"0 551 LINE",
"370 551 LINE"
);
}
);
width = 360;
}
);
category = Letter;
},
{
glyphname = Nga.icd;
lastChange = "2019-05-14 14:08:00 +0000";
layers = (
{
components = (
{
name = Nga.icd.nohd;
transform = "{1, 0, 0, 1, 20, 0}";
}
);
layerId = UUID0;
paths = (
{
closed = 1;
nodes = (
"505 622 LINE",
"0 622 LINE",
"0 551 LINE",
"505 551 LINE"
);
}
);
width = 495;
}
);
category = Letter;
},
{
glyphname = Nga.icd.rt;
lastChange = "2019-05-14 14:08:00 +0000";
layers = (
{
components = (
{
name = Nga.icd.nohd.rt;
transform = "{1, 0, 0, 1, 20, 0}";
}
);
layerId = UUID0;
paths = (
{
closed = 1;
nodes = (
"505 622 LINE",
"0 622 LINE",
"0 551 LINE",
"505 551 LINE"
);
}
);
width = 495;
}
);
rightMetricsKey = Nga.icd;
category = Letter;
},
{
glyphname = Nga.icd.nohd.rt;
lastChange = "2019-05-14 14:08:00 +0000";
layers = (
{
layerId = UUID0;
paths = (
{
closed = 1;
nodes = (
"273 282 OFFCURVE",
"272 437 OFFCURVE",
"336 437 CURVE SMOOTH",
"359 437 OFFCURVE",
"376 417 OFFCURVE",
"376 388 CURVE SMOOTH",
"376 354 OFFCURVE",
"356 342 OFFCURVE",
"334 342 CURVE SMOOTH",
"316 342 OFFCURVE",
"287 349 OFFCURVE",
"283 402 CURVE",
"244 352 LINE",
"261 302 OFFCURVE",
"298 282 OFFCURVE",
"336 282 CURVE SMOOTH",
"399 282 OFFCURVE",
"436 335 OFFCURVE",
"436 394 CURVE SMOOTH",
"436 441 OFFCURVE",
"403 491 OFFCURVE",
"336 491 CURVE SMOOTH",
"303 491 OFFCURVE",
"280 477 OFFCURVE",
"262 458 CURVE SMOOTH",
"221 414 OFFCURVE",
"206 342 OFFCURVE",
"156 342 CURVE SMOOTH",
"140 342 OFFCURVE",
"120 355 OFFCURVE",
"120 382 CURVE SMOOTH",
"120 447 OFFCURVE",
"272 514 OFFCURVE",
"300 610 CURVE",
"225 610 LINE",
"197 519 OFFCURVE",
"40 483 OFFCURVE",
"40 379 CURVE SMOOTH",
"40 319 OFFCURVE",
"96 282 OFFCURVE",
"153 282 CURVE SMOOTH"
);
},
{
closed = 1;
nodes = (
"355 287 LINE",
"436 287 LINE",
"436 394 LINE",
"355 329 LINE"
);
}
);
width = 516;
}
);
rightMetricsKey = Nga.icd.nohd;
category = Letter;
},
{
glyphname = Nga.cd;
lastChange = "2019-05-14 14:08:00 +0000";
layers = (
{
layerId = UUID0;
paths = (
{
closed = 1;
nodes = (
"-202 -10 OFFCURVE",
"-203 145 OFFCURVE",
"-139 145 CURVE SMOOTH",
"-116 145 OFFCURVE",
"-99 125 OFFCURVE",
"-99 96 CURVE SMOOTH",
"-99 62 OFFCURVE",
"-119 50 OFFCURVE",
"-141 50 CURVE SMOOTH",
"-159 50 OFFCURVE",
"-188 57 OFFCURVE",
"-192 110 CURVE",
"-231 60 LINE",
"-214 10 OFFCURVE",
"-177 -10 OFFCURVE",
"-139 -10 CURVE SMOOTH",
"-76 -10 OFFCURVE",
"-39 40 OFFCURVE",
"-39 99 CURVE SMOOTH",
"-39 146 OFFCURVE",
"-70 199 OFFCURVE",
"-139 199 CURVE SMOOTH",
"-248 199 OFFCURVE",
"-247 50 OFFCURVE",
"-319 50 CURVE SMOOTH",
"-335 50 OFFCURVE",
"-355 63 OFFCURVE",
"-355 90 CURVE SMOOTH",
"-355 155 OFFCURVE",
"-176 195 OFFCURVE",
"-176 290 CURVE SMOOTH",
"-176 310 LINE",
"-257 310 LINE",
"-257 290 LINE SMOOTH",
"-257 225 OFFCURVE",
"-435 177 OFFCURVE",
"-435 81 CURVE SMOOTH",
"-435 21 OFFCURVE",
"-379 -10 OFFCURVE",
"-322 -10 CURVE SMOOTH"
);
}
);
width = 0;
}
);
category = Mark;
},
{
glyphname = Ca.icd;
lastChange = "2019-05-14 14:08:00 +0000";
layers = (
{
layerId = UUID0;
paths = (
{
closed = 1;
nodes = (
"559 622 LINE",
"0 622 LINE",
"0 551 LINE",
"388 551 LINE",
"388 283 LINE",
"469 283 LINE",
"469 551 LINE",
"559 551 LINE"
);
},
{
closed = 1;
nodes = (
"405 405 LINE",
"378 377 OFFCURVE",
"338 354 OFFCURVE",
"281 354 CURVE SMOOTH",
"211 354 OFFCURVE",
"188 389 OFFCURVE",
"174 424 CURVE",
"244 429 OFFCURVE",
"266 456 OFFCURVE",
"317 456 CURVE SMOOTH",
"351 456 OFFCURVE",
"379 444 OFFCURVE",
"390 438 CURVE",
"396 501 LINE",
"377 511 OFFCURVE",
"345 520 OFFCURVE",
"317 520 CURVE SMOOTH",
"251 520 OFFCURVE",
"173 471 OFFCURVE",
"84 471 CURVE",
"112 379 OFFCURVE",
"149 287 OFFCURVE",
"275 287 CURVE SMOOTH",
"341 287 OFFCURVE",
"383 312 OFFCURVE",
"405 328 CURVE"
);
}
);
width = 549;
}
);
category = Letter;
},
{
glyphname = Ca.cd;
lastChange = "2019-05-14 14:08:00 +0000";
layers = (
{
layerId = UUID0;
paths = (
{
closed = 1;
nodes = (
"-161 0 LINE",
"-80 0 LINE",
"-80 310 LINE",
"-161 310 LINE"
);
},
{
closed = 1;
nodes = (
"-144 140 LINE",
"-171 115 OFFCURVE",
"-212 103 OFFCURVE",
"-258 103 CURVE SMOOTH",
"-330 103 OFFCURVE",
"-351 134 OFFCURVE",
"-365 165 CURVE",
"-295 170 OFFCURVE",
"-273 194 OFFCURVE",
"-232 194 CURVE SMOOTH",
"-188 194 OFFCURVE",
"-170 183 OFFCURVE",
"-159 178 CURVE",
"-153 234 LINE",
"-172 243 OFFCURVE",
"-194 251 OFFCURVE",
"-229 251 CURVE SMOOTH",
"-288 251 OFFCURVE",
"-366 208 OFFCURVE",
"-455 208 CURVE",
"-427 126 OFFCURVE",
"-392 43 OFFCURVE",
"-258 43 CURVE SMOOTH",
"-210 43 OFFCURVE",
"-168 57 OFFCURVE",
"-144 71 CURVE"
);
}
);
width = 0;
}
);
category = Mark;
},
{
glyphname = Ca.half;
lastChange = "2019-05-14 14:08:00 +0000";
layers = (
{
layerId = UUID0;
paths = (
{
closed = 1;
nodes = (
"460 622 LINE",
"0 622 LINE",
"0 551 LINE",
"460 551 LINE"
);
},
{
closed = 1;
nodes = (
"412 282 LINE",
"374 242 OFFCURVE",
"327 208 OFFCURVE",
"261 208 CURVE SMOOTH",
"157 208 OFFCURVE",
"136 290 OFFCURVE",
"115 340 CURVE",
"216 347 OFFCURVE",
"248 400 OFFCURVE",
"308 400 CURVE SMOOTH",
"371 400 OFFCURVE",
"414 371 OFFCURVE",
"430 361 CURVE",
"439 437 LINE",
"412 451 OFFCURVE",
"366 470 OFFCURVE",
"315 470 CURVE SMOOTH",
"229 470 OFFCURVE",
"149 396 OFFCURVE",
"20 396 CURVE",
"62 279 OFFCURVE",
"78 138 OFFCURVE",
"261 138 CURVE SMOOTH",
"330 138 OFFCURVE",
"377 164 OFFCURVE",
"412 187 CURVE"
);
}
);
width = 450;
}
);
category = Letter;
},
{
glyphname = Cha.icd;
lastChange = "2019-05-14 14:08:00 +0000";
layers = (
{
components = (
{
name = Cha.icd.nohd;
}
);
layerId = UUID0;
paths = (
{
closed = 1;
nodes = (
"535 551 LINE",
"535 622 LINE",
"0 622 LINE",
"0 551 LINE"
);
}
);
width = 525;
}
);
category = Letter;
},
{
glyphname = Cha.cd;
lastChange = "2019-05-14 14:08:00 +0000";
layers = (
{
layerId = UUID0;
paths = (
{
closed = 1;
nodes = (
"-252 173 LINE",
"-271 160 OFFCURVE",
"-313 147 OFFCURVE",
"-347 147 CURVE SMOOTH",
"-399 147 OFFCURVE",
"-402 189 OFFCURVE",
"-413 206 CURVE",
"-370 207 OFFCURVE",
"-351 222 OFFCURVE",
"-320 222 CURVE SMOOTH",
"-288 222 OFFCURVE",
"-267 213 OFFCURVE",
"-259 210 CURVE",
"-244 253 LINE",
"-260 258 OFFCURVE",
"-287 266 OFFCURVE",
"-318 266 CURVE SMOOTH",
"-369 266 OFFCURVE",
"-416 236 OFFCURVE",
"-493 236 CURVE",
"-468 189 OFFCURVE",
"-468 101 OFFCURVE",
"-353 101 CURVE SMOOTH",
"-312 101 OFFCURVE",
"-265 119 OFFCURVE",
"-244 127 CURVE"
);
},
{
closed = 1;
nodes = (
"-266 101 LINE SMOOTH",
"-266 52 OFFCURVE",
"-304 22 OFFCURVE",
"-345 22 CURVE SMOOTH",
"-378 22 OFFCURVE",
"-394 33 OFFCURVE",
"-394 51 CURVE SMOOTH",
"-394 86 OFFCURVE",
"-346 106 OFFCURVE",
"-238 106 CURVE SMOOTH",
"-170 106 OFFCURVE",
"-106 82 OFFCURVE",
"-106 52 CURVE SMOOTH",
"-106 34 OFFCURVE",
"-122 22 OFFCURVE",
"-157 22 CURVE SMOOTH",
"-180 22 OFFCURVE",
"-217 31 OFFCURVE",
"-232 65 CURVE",
"-267 14 LINE",
"-242 -18 OFFCURVE",
"-176 -27 OFFCURVE",
"-149 -27 CURVE SMOOTH",
"-82 -27 OFFCURVE",
"-35 2 OFFCURVE",
"-35 52 CURVE SMOOTH",
"-35 119 OFFCURVE",
"-144 154 OFFCURVE",
"-247 154 CURVE SMOOTH",
"-367 154 OFFCURVE",
"-465 119 OFFCURVE",
"-465 49 CURVE SMOOTH",
"-465 3 OFFCURVE",
"-426 -27 OFFCURVE",
"-353 -27 CURVE SMOOTH",
"-279 -27 OFFCURVE",
"-185 16 OFFCURVE",
"-185 106 CURVE SMOOTH",
"-185 310 LINE",
"-266 310 LINE"
);
}
);
width = 0;
}
);
category = Mark;
},
{
glyphname = Ja.icd;
lastChange = "2019-05-14 14:08:00 +0000";
layers = (
{
layerId = UUID0;
paths = (
{
closed = 1;
nodes = (
"299 572 LINE",
"251 509 OFFCURVE",
"199 486 OFFCURVE",
"119 445 CURVE",
"114 388 LINE",
"187 388 OFFCURVE",
"289 375 OFFCURVE",
"289 329 CURVE SMOOTH",
"289 290 LINE",
"370 290 LINE",
"370 332 LINE SMOOTH",
"370 388 OFFCURVE",
"303 426 OFFCURVE",
"232 440 CURVE",
"288 475 OFFCURVE",
"361 527 OFFCURVE",
"380 590 CURVE"
);
},
{
closed = 1;
nodes = (
"578 342 LINE SMOOTH",
"578 453 OFFCURVE",
"442 546 OFFCURVE",
"361 597 CURVE",
"320 544 LINE",
"384 503 OFFCURVE",
"497 419 OFFCURVE",
"497 339 CURVE SMOOTH",
"497 0 LINE",
"578 0 LINE"
);
},
{
closed = 1;
nodes = (
"672 622 LINE",
"0 622 LINE",
"0 551 LINE",
"672 551 LINE"
);
}
);
width = 662;
}
);
category = Letter;
},
{
glyphname = Ja.cd;
lastChange = "2019-05-14 14:08:00 +0000";
layers = (
{
layerId = UUID0;
paths = (
{
closed = 1;
nodes = (
"-79 0 LINE",
"-79 135 LINE SMOOTH",
"-79 198 OFFCURVE",
"-179 272 OFFCURVE",
"-232 310 CURVE",
"-306 310 LINE",
"-331 270 OFFCURVE",
"-357 245 OFFCURVE",
"-402 213 CURVE",
"-407 155 LINE",
"-353 155 OFFCURVE",
"-301 136 OFFCURVE",
"-301 95 CURVE SMOOTH",
"-301 59 OFFCURVE",
"-331 51 OFFCURVE",
"-356 51 CURVE SMOOTH",
"-389 51 OFFCURVE",
"-414 57 OFFCURVE",
"-451 75 CURVE",
"-479 23 LINE",
"-439 3 OFFCURVE",
"-405 -7 OFFCURVE",
"-360 -7 CURVE SMOOTH",
"-289 -7 OFFCURVE",
"-231 29 OFFCURVE",
"-231 92 CURVE SMOOTH",
"-231 144 OFFCURVE",
"-263 183 OFFCURVE",
"-325 201 CURVE",
"-305 212 OFFCURVE",
"-283 229 OFFCURVE",
"-266 248 CURVE",
"-224 224 OFFCURVE",
"-160 180 OFFCURVE",
"-160 120 CURVE SMOOTH",
"-160 0 LINE"
);
}
);
width = 0;
}
);
category = Mark;
},
{
glyphname = Jha.icd;
lastChange = "2019-05-14 14:08:00 +0000";
layers = (
{
components = (
{
name = Jha.icd.nohd;
}
);
layerId = UUID0;
paths = (
{
closed = 1;
nodes = (
"631 622 LINE",
"0 622 LINE",
"0 551 LINE",
"631 551 LINE"
);
}
);
width = 621;
}
);
category = Letter;
},
{
glyphname = Jha.cd;
lastChange = "2019-05-14 14:08:00 +0000";
layers = (
{
components = (
{
name = Jha.cd.nohd;
}
);
layerId = UUID0;
paths = (
{
closed = 1;
nodes = (
"691 622 LINE",
"0 622 LINE",
"0 551 LINE",
"691 551 LINE"
);
}
);
width = 681;
}
);
category = Letter;
},
{
glyphname = Jha.half;
lastChange = "2019-05-14 14:08:00 +0000";
layers = (
{
layerId = UUID0;
paths = (
{
closed = 1;
nodes = (
"571 622 LINE",
"0 622 LINE",
"0 551 LINE",
"571 551 LINE"
);
},
{
closed = 1;
nodes = (
"-19 295 LINE",
"73 121 OFFCURVE",
"186 80 OFFCURVE",
"236 80 CURVE SMOOTH",
"278 80 OFFCURVE",
"300 109 OFFCURVE",
"300 174 CURVE SMOOTH",
"300 600 LINE",
"219 600 LINE",
"219 177 LINE",
"147 207 OFFCURVE",
"76 277 OFFCURVE",
"39 349 CURVE"
);
},
{
closed = 1;
nodes = (
"236 341 LINE",
"365 219 OFFCURVE",
"536 150 OFFCURVE",
"569 140 CURVE",
"538 238 LINE",
"505 241 OFFCURVE",
"358 330 OFFCURVE",
"291 388 CURVE"
);
}
);
width = 561;
}
);
category = Letter;
},
{
glyphname = Nya.icd;
lastChange = "2019-05-14 14:08:00 +0000";
layers = (
{
layerId = UUID0;
paths = (
{
closed = 1;
nodes = (
"324 270 LINE",
"324 437 LINE",
"243 366 LINE",
"243 270 LINE"
);
},
{
closed = 1;
nodes = (
"470 304 LINE",
"461 321 OFFCURVE",
"420 399 OFFCURVE",
"375 399 CURVE SMOOTH",
"353 399 OFFCURVE",
"333 385 OFFCURVE",
"333 360 CURVE SMOOTH",
"333 331 OFFCURVE",
"359 312 OFFCURVE",
"385 312 CURVE SMOOTH",
"474 312 OFFCURVE",
"505 351 OFFCURVE",
"505 400 CURVE SMOOTH",
"505 437 OFFCURVE",
"486 472 OFFCURVE",
"425 484 CURVE",
"383 447 LINE",
"419 447 OFFCURVE",
"444 426 OFFCURVE",
"444 404 CURVE SMOOTH",
"444 380 OFFCURVE",
"425 361 OFFCURVE",
"382 361 CURVE",
"371 342 LINE",
"392 319 OFFCURVE",
"414 290 OFFCURVE",
"420 280 CURVE"
);
},
{
closed = 1;
nodes = (
"419 446 OFFCURVE",
"497 472 OFFCURVE",
"497 533 CURVE SMOOTH",
"497 577 OFFCURVE",
"460 617 OFFCURVE",
"391 617 CURVE SMOOTH",
"346 617 OFFCURVE",
"307 592 OFFCURVE",
"290 571 CURVE",
"316 510 LINE",
"328 538 OFFCURVE",
"352 559 OFFCURVE",
"392 559 CURVE SMOOTH",
"417 559 OFFCURVE",
"435 552 OFFCURVE",
"435 531 CURVE SMOOTH",
"435 509 OFFCURVE",
"418 496 OFFCURVE",
"367 496 CURVE",
"367 444 LINE"
);
},
{
closed = 1;
nodes = (
"138 627 OFFCURVE",
"96 601 OFFCURVE",
"96 552 CURVE SMOOTH",
"96 517 OFFCURVE",
"121 489 OFFCURVE",
"152 489 CURVE SMOOTH",
"183 489 OFFCURVE",
"209 517 OFFCURVE",
"209 552 CURVE SMOOTH",
"209 556 OFFCURVE",
"209 561 OFFCURVE",
"208 565 CURVE",
"240 547 OFFCURVE",
"249 504 OFFCURVE",
"249 437 CURVE SMOOTH",
"249 390 OFFCURVE",
"224 362 OFFCURVE",
"176 362 CURVE SMOOTH",
"130 362 OFFCURVE",
"99 392 OFFCURVE",
"79 428 CURVE",
"20 404 LINE",
"49 344 OFFCURVE",
"92 304 OFFCURVE",
"176 304 CURVE SMOOTH",
"259 304 OFFCURVE",
"324 376 OFFCURVE",
"324 437 CURVE SMOOTH",
"324 553 OFFCURVE",
"281 627 OFFCURVE",
"183 627 CURVE SMOOTH"
);
}
);
width = 585;
}
);
category = Letter;
},
{
glyphname = Nya_nostem.icd;
lastChange = "2019-05-14 14:08:00 +0000";
layers = (
{
layerId = UUID0;
paths = (
{
closed = 1;
nodes = (
"487 275 LINE",
"460 321 OFFCURVE",
"420 399 OFFCURVE",
"377 399 CURVE SMOOTH",
"353 399 OFFCURVE",
"333 385 OFFCURVE",
"333 360 CURVE SMOOTH",
"333 331 OFFCURVE",
"359 312 OFFCURVE",
"385 312 CURVE SMOOTH",
"474 312 OFFCURVE",
"505 351 OFFCURVE",
"505 400 CURVE SMOOTH",
"505 437 OFFCURVE",
"486 472 OFFCURVE",
"425 484 CURVE",
"383 447 LINE",
"419 447 OFFCURVE",
"444 426 OFFCURVE",
"444 404 CURVE SMOOTH",
"444 380 OFFCURVE",
"425 361 OFFCURVE",
"382 361 CURVE",
"371 342 LINE",
"392 319 OFFCURVE",
"415 290 OFFCURVE",
"437 251 CURVE"
);
},
{
closed = 1;
nodes = (
"367 444 LINE",
"419 446 OFFCURVE",
"497 472 OFFCURVE",
"497 533 CURVE SMOOTH",
"497 577 OFFCURVE",
"460 617 OFFCURVE",
"391 617 CURVE SMOOTH",
"346 617 OFFCURVE",
"307 592 OFFCURVE",
"290 571 CURVE",
"316 510 LINE",
"328 538 OFFCURVE",
"352 559 OFFCURVE",
"392 559 CURVE SMOOTH",
"417 559 OFFCURVE",
"435 552 OFFCURVE",
"435 531 CURVE SMOOTH",
"435 509 OFFCURVE",
"418 496 OFFCURVE",
"367 496 CURVE"
);
},
{
closed = 1;
nodes = (
"138 627 OFFCURVE",
"96 601 OFFCURVE",
"96 552 CURVE SMOOTH",
"96 517 OFFCURVE",
"121 489 OFFCURVE",
"152 489 CURVE SMOOTH",
"183 489 OFFCURVE",
"209 517 OFFCURVE",
"209 552 CURVE SMOOTH",
"209 556 OFFCURVE",
"209 561 OFFCURVE",
"208 565 CURVE",
"240 547 OFFCURVE",
"249 504 OFFCURVE",
"249 437 CURVE SMOOTH",
"249 360 OFFCURVE",
"224 305 OFFCURVE",
"176 305 CURVE SMOOTH",
"130 305 OFFCURVE",
"99 355 OFFCURVE",
"79 411 CURVE",
"20 387 LINE",
"49 307 OFFCURVE",
"92 247 OFFCURVE",
"176 247 CURVE SMOOTH",
"279 247 OFFCURVE",
"324 338 OFFCURVE",
"324 437 CURVE SMOOTH",
"324 553 OFFCURVE",
"281 627 OFFCURVE",
"183 627 CURVE SMOOTH"
);
}
);
width = 559;
}
);
category = Letter;
},
{
glyphname = Nya.cd;
lastChange = "2019-05-14 14:08:00 +0000";
layers = (
{
layerId = UUID0;
paths = (
{
closed = 1;
nodes = (
"-72 -13 LINE",
"-99 27 OFFCURVE",
"-139 94 OFFCURVE",
"-182 94 CURVE SMOOTH",
"-206 94 OFFCURVE",
"-226 82 OFFCURVE",
"-226 60 CURVE SMOOTH",
"-226 35 OFFCURVE",
"-200 19 OFFCURVE",
"-174 19 CURVE SMOOTH",
"-85 19 OFFCURVE",
"-54 52 OFFCURVE",
"-54 94 CURVE SMOOTH",
"-54 126 OFFCURVE",
"-73 156 OFFCURVE",
"-134 166 CURVE",
"-176 135 LINE",
"-140 135 OFFCURVE",
"-115 117 OFFCURVE",
"-115 98 CURVE SMOOTH",
"-115 77 OFFCURVE",
"-134 61 OFFCURVE",
"-177 61 CURVE",
"-188 45 LINE",
"-167 25 OFFCURVE",
"-144 0 OFFCURVE",
"-122 -33 CURVE"
);
},
{
closed = 1;
nodes = (
"-192 132 LINE",
"-140 134 OFFCURVE",
"-62 156 OFFCURVE",
"-62 208 CURVE SMOOTH",
"-62 246 OFFCURVE",
"-99 280 OFFCURVE",
"-168 280 CURVE SMOOTH",
"-213 280 OFFCURVE",
"-252 259 OFFCURVE",
"-269 241 CURVE",
"-243 189 LINE",
"-231 213 OFFCURVE",
"-207 231 OFFCURVE",
"-167 231 CURVE SMOOTH",
"-142 231 OFFCURVE",
"-124 225 OFFCURVE",
"-124 207 CURVE SMOOTH",
"-124 188 OFFCURVE",
"-141 177 OFFCURVE",
"-192 177 CURVE"
);
},
{
closed = 1;
nodes = (
"-421 301 OFFCURVE",
"-463 279 OFFCURVE",
"-463 237 CURVE SMOOTH",
"-463 207 OFFCURVE",
"-438 183 OFFCURVE",
"-407 183 CURVE SMOOTH",
"-376 183 OFFCURVE",
"-350 207 OFFCURVE",
"-350 237 CURVE SMOOTH",
"-350 240 OFFCURVE",
"-350 244 OFFCURVE",
"-351 248 CURVE",
"-319 232 OFFCURVE",
"-310 196 OFFCURVE",
"-310 138 CURVE SMOOTH",
"-310 72 OFFCURVE",
"-335 25 OFFCURVE",
"-383 25 CURVE SMOOTH",
"-429 25 OFFCURVE",
"-460 68 OFFCURVE",
"-480 116 CURVE",
"-539 95 LINE",
"-510 27 OFFCURVE",
"-467 -25 OFFCURVE",
"-383 -25 CURVE SMOOTH",
"-280 -25 OFFCURVE",
"-235 53 OFFCURVE",
"-235 138 CURVE SMOOTH",
"-235 238 OFFCURVE",
"-278 301 OFFCURVE",
"-376 301 CURVE SMOOTH"
);
}
);
width = 0;
}
);
category = Mark;
subCategory = Nonspacing;
},
{
glyphname = Nya_stem.cd;
lastChange = "2019-05-14 14:08:00 +0000";
layers = (
{
layerId = UUID0;
paths = (
{
closed = 1;
nodes = (
"-38 -23 LINE",
"-65 16 OFFCURVE",
"-105 83 OFFCURVE",
"-148 83 CURVE SMOOTH",
"-172 83 OFFCURVE",
"-192 71 OFFCURVE",
"-192 50 CURVE SMOOTH",
"-192 25 OFFCURVE",
"-166 9 OFFCURVE",
"-140 9 CURVE SMOOTH",
"-51 9 OFFCURVE",
"-20 42 OFFCURVE",
"-20 84 CURVE SMOOTH",
"-20 116 OFFCURVE",
"-39 146 OFFCURVE",
"-100 156 CURVE",
"-142 124 LINE",
"-106 124 OFFCURVE",
"-81 106 OFFCURVE",
"-81 88 CURVE SMOOTH",
"-81 67 OFFCURVE",
"-100 51 OFFCURVE",
"-143 51 CURVE",
"-154 34 LINE",
"-133 15 OFFCURVE",
"-110 -10 OFFCURVE",
"-88 -44 CURVE"
);
},
{
closed = 1;
nodes = (
"-106 124 OFFCURVE",
"-28 146 OFFCURVE",
"-28 198 CURVE SMOOTH",
"-28 236 OFFCURVE",
"-65 270 OFFCURVE",
"-134 270 CURVE SMOOTH",
"-179 270 OFFCURVE",
"-218 249 OFFCURVE",
"-235 231 CURVE",
"-209 178 LINE",
"-197 202 OFFCURVE",
"-173 220 OFFCURVE",
"-133 220 CURVE SMOOTH",
"-108 220 OFFCURVE",
"-90 214 OFFCURVE",
"-90 196 CURVE SMOOTH",
"-90 178 OFFCURVE",
"-107 166 OFFCURVE",
"-158 166 CURVE",
"-158 122 LINE"
);
},
{
closed = 1;
nodes = (
"-201 222 LINE",
"-201 355 LINE",
"-282 355 LINE",
"-282 222 LINE"
);
},
{
closed = 1;
nodes = (
"-387 291 OFFCURVE",
"-429 268 OFFCURVE",
"-429 226 CURVE SMOOTH",
"-429 196 OFFCURVE",
"-404 172 OFFCURVE",
"-373 172 CURVE SMOOTH",
"-342 172 OFFCURVE",
"-316 196 OFFCURVE",
"-316 226 CURVE SMOOTH",
"-316 230 OFFCURVE",
"-316 234 OFFCURVE",
"-317 238 CURVE",
"-285 222 OFFCURVE",
"-276 185 OFFCURVE",
"-276 128 CURVE SMOOTH",
"-276 62 OFFCURVE",
"-301 15 OFFCURVE",
"-349 15 CURVE SMOOTH",
"-395 15 OFFCURVE",
"-426 58 OFFCURVE",
"-446 106 CURVE",
"-505 85 LINE",
"-476 16 OFFCURVE",
"-433 -35 OFFCURVE",
"-349 -35 CURVE SMOOTH",
"-246 -35 OFFCURVE",
"-201 43 OFFCURVE",
"-201 128 CURVE SMOOTH",
"-201 227 OFFCURVE",
"-244 291 OFFCURVE",
"-342 291 CURVE SMOOTH"
);
}
);
width = 0;
}
);
category = Mark;
},
{
glyphname = Nya_low.cd;
lastChange = "2019-05-14 14:08:00 +0000";
layers = (
{
layerId = UUID0;
paths = (
{
closed = 1;
nodes = (
"-38 -40 LINE",
"-65 0 OFFCURVE",
"-105 67 OFFCURVE",
"-148 67 CURVE SMOOTH",
"-172 67 OFFCURVE",
"-192 55 OFFCURVE",
"-192 33 CURVE SMOOTH",
"-192 9 OFFCURVE",
"-166 -8 OFFCURVE",
"-140 -8 CURVE SMOOTH",
"-51 -8 OFFCURVE",
"-20 26 OFFCURVE",
"-20 68 CURVE SMOOTH",
"-20 99 OFFCURVE",
"-39 129 OFFCURVE",
"-100 140 CURVE",
"-142 108 LINE",
"-106 108 OFFCURVE",
"-81 90 OFFCURVE",
"-81 71 CURVE SMOOTH",
"-81 51 OFFCURVE",
"-100 34 OFFCURVE",
"-143 34 CURVE",
"-154 18 LINE",
"-133 -2 OFFCURVE",
"-110 -27 OFFCURVE",
"-88 -60 CURVE"
);
},
{
closed = 1;
nodes = (
"-106 107 OFFCURVE",
"-28 129 OFFCURVE",
"-28 182 CURVE SMOOTH",
"-28 219 OFFCURVE",
"-65 254 OFFCURVE",
"-134 254 CURVE SMOOTH",
"-179 254 OFFCURVE",
"-218 232 OFFCURVE",
"-235 214 CURVE",
"-209 162 LINE",
"-197 186 OFFCURVE",
"-173 204 OFFCURVE",
"-133 204 CURVE SMOOTH",
"-108 204 OFFCURVE",
"-90 198 OFFCURVE",
"-90 180 CURVE SMOOTH",
"-90 161 OFFCURVE",
"-107 150 OFFCURVE",
"-158 150 CURVE",
"-158 105 LINE"
);
},
{
closed = 1;
nodes = (
"-387 300 OFFCURVE",
"-429 278 OFFCURVE",
"-429 236 CURVE SMOOTH",
"-429 206 OFFCURVE",
"-404 182 OFFCURVE",
"-373 182 CURVE SMOOTH",
"-342 182 OFFCURVE",
"-316 206 OFFCURVE",
"-316 236 CURVE SMOOTH",
"-316 239 OFFCURVE",
"-316 243 OFFCURVE",
"-317 247 CURVE",
"-285 231 OFFCURVE",
"-276 195 OFFCURVE",
"-276 137 CURVE SMOOTH",
"-276 71 OFFCURVE",
"-301 24 OFFCURVE",
"-349 24 CURVE SMOOTH",
"-395 24 OFFCURVE",
"-426 67 OFFCURVE",
"-446 115 CURVE",
"-505 94 LINE",
"-476 26 OFFCURVE",
"-433 -26 OFFCURVE",
"-349 -26 CURVE SMOOTH",
"-246 -26 OFFCURVE",
"-201 52 OFFCURVE",
"-201 137 CURVE SMOOTH",
"-201 237 OFFCURVE",
"-244 300 OFFCURVE",
"-342 300 CURVE SMOOTH"
);
}
);
width = 0;
}
);
category = Mark;
},
{
glyphname = Nya_stem.cd.alt;
lastChange = "2019-05-14 14:08:00 +0000";
layers = (
{
layerId = UUID0;
paths = (
{
closed = 1;
nodes = (
"-38 -23 LINE",
"-65 16 OFFCURVE",
"-105 83 OFFCURVE",
"-148 83 CURVE SMOOTH",
"-172 83 OFFCURVE",
"-192 71 OFFCURVE",
"-192 50 CURVE SMOOTH",
"-192 25 OFFCURVE",
"-166 9 OFFCURVE",
"-140 9 CURVE SMOOTH",
"-51 9 OFFCURVE",
"-20 42 OFFCURVE",
"-20 84 CURVE SMOOTH",
"-20 116 OFFCURVE",
"-39 146 OFFCURVE",
"-100 156 CURVE",
"-142 124 LINE",
"-106 124 OFFCURVE",
"-81 106 OFFCURVE",
"-81 88 CURVE SMOOTH",
"-81 67 OFFCURVE",
"-100 51 OFFCURVE",
"-143 51 CURVE",
"-154 34 LINE",
"-133 15 OFFCURVE",
"-110 -10 OFFCURVE",
"-88 -44 CURVE"
);
},
{
closed = 1;
nodes = (
"-106 124 OFFCURVE",
"-28 146 OFFCURVE",
"-28 198 CURVE SMOOTH",
"-28 236 OFFCURVE",
"-65 270 OFFCURVE",
"-134 270 CURVE SMOOTH",
"-179 270 OFFCURVE",
"-218 249 OFFCURVE",
"-235 231 CURVE",
"-209 178 LINE",
"-197 202 OFFCURVE",
"-173 220 OFFCURVE",
"-133 220 CURVE SMOOTH",
"-108 220 OFFCURVE",
"-90 214 OFFCURVE",
"-90 196 CURVE SMOOTH",
"-90 178 OFFCURVE",
"-107 166 OFFCURVE",
"-158 166 CURVE",
"-158 122 LINE"
);
},
{
closed = 1;
nodes = (
"-201 222 LINE",
"-201 355 LINE",
"-282 355 LINE",
"-282 222 LINE"
);
},
{
closed = 1;
nodes = (
"-387 291 OFFCURVE",
"-429 268 OFFCURVE",
"-429 226 CURVE SMOOTH",
"-429 196 OFFCURVE",
"-404 172 OFFCURVE",
"-373 172 CURVE SMOOTH",
"-342 172 OFFCURVE",
"-316 196 OFFCURVE",
"-316 226 CURVE SMOOTH",
"-316 230 OFFCURVE",
"-316 234 OFFCURVE",
"-317 238 CURVE",
"-285 222 OFFCURVE",
"-276 185 OFFCURVE",
"-276 128 CURVE SMOOTH",
"-276 62 OFFCURVE",
"-301 15 OFFCURVE",
"-349 15 CURVE SMOOTH",
"-395 15 OFFCURVE",
"-426 58 OFFCURVE",
"-446 106 CURVE",
"-505 85 LINE",
"-476 16 OFFCURVE",
"-433 -35 OFFCURVE",
"-349 -35 CURVE SMOOTH",
"-246 -35 OFFCURVE",
"-201 43 OFFCURVE",
"-201 128 CURVE SMOOTH",
"-201 227 OFFCURVE",
"-244 291 OFFCURVE",
"-342 291 CURVE SMOOTH"
);
}
);
width = 0;
}
);
category = Mark;
},
{
glyphname = Tta.icd;
lastChange = "2019-05-14 14:08:00 +0000";
layers = (
{
layerId = UUID0;
paths = (
{
closed = 1;
nodes = (
"483 622 LINE",
"0 622 LINE",
"0 551 LINE",
"483 551 LINE"
);
},
{
closed = 1;
nodes = (
"404 414 LINE",
"377 383 OFFCURVE",
"331 344 OFFCURVE",
"270 344 CURVE SMOOTH",
"217 344 OFFCURVE",
"166 384 OFFCURVE",
"150 424 CURVE",
"241 430 OFFCURVE",
"313 491 OFFCURVE",
"313 552 CURVE SMOOTH",
"313 579 LINE",
"232 579 LINE",
"232 550 LINE SMOOTH",
"232 508 OFFCURVE",
"163 460 OFFCURVE",
"67 457 CURVE",
"74 361 OFFCURVE",
"151 280 OFFCURVE",
"257 280 CURVE SMOOTH",
"347 280 OFFCURVE",
"406 332 OFFCURVE",
"435 361 CURVE"
);
}
);
width = 473;
}
);
category = Letter;
},
{
glyphname = Tta.icd.rt;
lastChange = "2019-05-14 14:08:00 +0000";
layers = (
{
layerId = UUID0;
paths = (
{
closed = 1;
nodes = (
"483 622 LINE",
"0 622 LINE",
"0 551 LINE",
"483 551 LINE"
);
},
{
closed = 1;
nodes = (
"404 414 LINE",
"377 383 OFFCURVE",
"331 344 OFFCURVE",
"270 344 CURVE SMOOTH",
"217 344 OFFCURVE",
"166 384 OFFCURVE",
"150 424 CURVE",
"241 430 OFFCURVE",
"313 491 OFFCURVE",
"313 552 CURVE SMOOTH",
"313 579 LINE",
"232 579 LINE",
"232 550 LINE SMOOTH",
"232 508 OFFCURVE",
"163 460 OFFCURVE",
"67 457 CURVE",
"74 361 OFFCURVE",
"151 280 OFFCURVE",
"257 280 CURVE SMOOTH",
"347 280 OFFCURVE",
"406 332 OFFCURVE",
"435 361 CURVE"
);
},
{
closed = 1;
nodes = (
"354 287 LINE",
"435 287 LINE",
"435 361 LINE",
"354 329 LINE"
);
}
);
width = 473;
}
);
rightMetricsKey = Tta.icd;
category = Letter;
},
{
glyphname = Tta.icd.nohd.rt;
lastChange = "2019-05-14 14:08:00 +0000";
layers = (
{
layerId = UUID0;
paths = (
{
closed = 1;
nodes = (
"384 425 LINE",
"363 398 OFFCURVE",
"316 355 OFFCURVE",
"254 355 CURVE SMOOTH",
"195 355 OFFCURVE",
"161 391 OFFCURVE",
"150 434 CURVE",
"241 447 OFFCURVE",
"313 487 OFFCURVE",
"313 557 CURVE SMOOTH",
"313 610 LINE",
"232 610 LINE",
"232 555 LINE SMOOTH",
"232 505 OFFCURVE",
"163 479 OFFCURVE",
"67 476 CURVE",
"74 382 OFFCURVE",
"127 293 OFFCURVE",
"247 293 CURVE SMOOTH",
"332 293 OFFCURVE",
"386 336 OFFCURVE",
"415 373 CURVE"
);
},
{
closed = 1;
nodes = (
"334 287 LINE",
"415 287 LINE",
"415 373 LINE",
"334 329 LINE"
);
}
);
width = 473;
}
);
rightMetricsKey = Tta.icd.nohd;
category = Letter;
},
{
glyphname = Tta.cd;
lastChange = "2019-05-14 14:08:00 +0000";
layers = (
{
layerId = UUID0;
paths = (
{
closed = 1;
nodes = (
"-111 86 LINE",
"-136 63 OFFCURVE",
"-179 47 OFFCURVE",
"-222 47 CURVE SMOOTH",
"-270 47 OFFCURVE",
"-303 68 OFFCURVE",
"-315 123 CURVE",
"-224 136 OFFCURVE",
"-152 179 OFFCURVE",
"-152 248 CURVE SMOOTH",
"-152 310 LINE",
"-233 310 LINE",
"-233 247 LINE SMOOTH",
"-233 196 OFFCURVE",
"-302 170 OFFCURVE",
"-398 168 CURVE",
"-391 74 OFFCURVE",
"-338 -16 OFFCURVE",
"-222 -16 CURVE SMOOTH",
"-163 -16 OFFCURVE",
"-109 6 OFFCURVE",
"-80 35 CURVE"
);
}
);
width = 0;
}
);
category = Mark;
},
{
glyphname = Ttha.icd;
lastChange = "2019-05-14 14:08:00 +0000";
layers = (
{
layerId = UUID0;
paths = (
{
closed = 1;
nodes = (
"60 353 OFFCURVE",
"134 286 OFFCURVE",
"236 286 CURVE SMOOTH",
"336 286 OFFCURVE",
"410 335 OFFCURVE",
"410 465 CURVE SMOOTH",
"410 590 OFFCURVE",
"342 631 OFFCURVE",
"262 631 CURVE SMOOTH",
"147 631 OFFCURVE",
"60 558 OFFCURVE",
"60 453 CURVE SMOOTH"
);
},
{
closed = 1;
nodes = (
"127 521 OFFCURVE",
"182 571 OFFCURVE",
"253 571 CURVE SMOOTH",
"315 571 OFFCURVE",
"335 526 OFFCURVE",
"335 460 CURVE SMOOTH",
"335 367 OFFCURVE",
"294 346 OFFCURVE",
"243 346 CURVE SMOOTH",
"188 346 OFFCURVE",
"127 382 OFFCURVE",
"127 454 CURVE SMOOTH"
);
}
);
width = 464;
}
);
category = Letter;
},
{
glyphname = Ttha.icd.rt;
lastChange = "2019-05-14 14:08:00 +0000";
layers = (
{
components = (
{
name = Ttha.icd;
}
);
layerId = UUID0;
paths = (
{
closed = 1;
nodes = (
"308 294 LINE",
"389 294 LINE",
"389 373 LINE",
"308 359 LINE"
);
}
);
width = 464;
}
);
category = Letter;
},
{
glyphname = Ttha.icd.center;
lastChange = "2019-05-14 14:08:00 +0000";
layers = (
{
layerId = UUID0;
paths = (
{
closed = 1;
nodes = (
"60 343 OFFCURVE",
"134 280 OFFCURVE",
"236 280 CURVE SMOOTH",
"336 280 OFFCURVE",
"412 343 OFFCURVE",
"412 453 CURVE SMOOTH",
"412 558 OFFCURVE",
"300 629 OFFCURVE",
"236 629 CURVE SMOOTH",
"177 629 OFFCURVE",
"60 558 OFFCURVE",
"60 453 CURVE SMOOTH"
);
},
{
closed = 1;
nodes = (
"127 525 OFFCURVE",
"200 569 OFFCURVE",
"234 569 CURVE SMOOTH",
"269 569 OFFCURVE",
"345 525 OFFCURVE",
"345 455 CURVE SMOOTH",
"345 376 OFFCURVE",
"292 340 OFFCURVE",
"234 340 CURVE SMOOTH",
"178 340 OFFCURVE",
"127 376 OFFCURVE",
"127 455 CURVE SMOOTH"
);
}
);
width = 472;
}
);
category = Letter;
},
{
glyphname = Ttha.cd;
lastChange = "2019-05-14 14:08:00 +0000";
layers = (
{
layerId = UUID0;
paths = (
{
closed = 1;
nodes = (
"-363 245 OFFCURVE",
"-443 202 OFFCURVE",
"-443 122 CURVE SMOOTH",
"-443 41 OFFCURVE",
"-361 -18 OFFCURVE",
"-240 -18 CURVE SMOOTH",
"-144 -18 OFFCURVE",
"-80 28 OFFCURVE",
"-80 100 CURVE SMOOTH",
"-80 135 LINE SMOOTH",
"-80 187 OFFCURVE",
"-130 245 OFFCURVE",
"-250 245 CURVE SMOOTH"
);
},
{
closed = 1;
nodes = (
"-161 98 LINE SMOOTH",
"-161 71 OFFCURVE",
"-173 42 OFFCURVE",
"-242 42 CURVE SMOOTH",
"-314 42 OFFCURVE",
"-376 74 OFFCURVE",
"-376 121 CURVE SMOOTH",
"-376 166 OFFCURVE",
"-318 186 OFFCURVE",
"-253 186 CURVE SMOOTH",
"-168 186 OFFCURVE",
"-161 153 OFFCURVE",
"-161 122 CURVE SMOOTH"
);
},
{
closed = 1;
nodes = (
"-161 194 LINE",
"-80 134 LINE",
"-80 310 LINE",
"-161 310 LINE"
);
}
);
width = 0;
}
);
category = Mark;
},
{
glyphname = Dda.icd;
lastChange = "2019-05-14 14:08:00 +0000";
layers = (
{
components = (
{
name = Dda.icd.nohd;
transform = "{1, 0, 0, 1, 20, 0}";
}
);
layerId = UUID0;
paths = (
{
closed = 1;
nodes = (
"462 551 LINE",
"462 622 LINE",
"0 622 LINE",
"0 551 LINE"
);
}
);
width = 452;
}
);
category = Letter;
},
{
glyphname = Dda.icd.rt;
lastChange = "2019-05-14 14:08:00 +0000";
layers = (
{
components = (
{
name = Dda.icd;
}
);
layerId = UUID0;
paths = (
{
closed = 1;
nodes = (
"301 287 LINE",
"382 287 LINE",
"382 413 LINE",
"301 379 LINE"
);
}
);
width = 452;
}
);
category = Letter;
},
{
glyphname = Dda.icd.nohd.rt;
lastChange = "2019-05-14 14:08:00 +0000";
layers = (
{
components = (
{
name = Dda.icd.nohd;
transform = "{1, 0, 0, 1, 20, 0}";
}
);
layerId = UUID0;
paths = (
{
closed = 1;
nodes = (
"301 287 LINE",
"382 287 LINE",
"382 413 LINE",
"301 379 LINE"
);
}
);
width = 452;
}
);
rightMetricsKey = Dda.icd.nohd;
category = Letter;
},
{
glyphname = Dda.cd;
lastChange = "2019-05-14 14:08:00 +0000";
layers = (
{
layerId = UUID0;
paths = (
{
closed = 1;
nodes = (
"-163 310 LINE",
"-244 310 LINE",
"-244 224 LINE",
"-163 224 LINE"
);
},
{
closed = 1;
nodes = (
"-261 239 OFFCURVE",
"-298 213 OFFCURVE",
"-298 175 CURVE SMOOTH",
"-298 145 OFFCURVE",
"-273 121 OFFCURVE",
"-242 121 CURVE SMOOTH",
"-211 121 OFFCURVE",
"-185 145 OFFCURVE",
"-185 175 CURVE SMOOTH",
"-185 179 OFFCURVE",
"-186 183 OFFCURVE",
"-187 188 CURVE",
"-155 176 OFFCURVE",
"-145 149 OFFCURVE",
"-145 123 CURVE SMOOTH",
"-145 74 OFFCURVE",
"-174 38 OFFCURVE",
"-233 38 CURVE SMOOTH",
"-287 38 OFFCURVE",
"-337 80 OFFCURVE",
"-368 149 CURVE",
"-417 125 LINE",
"-383 50 OFFCURVE",
"-314 -16 OFFCURVE",
"-231 -16 CURVE SMOOTH",
"-149 -16 OFFCURVE",
"-70 34 OFFCURVE",
"-70 119 CURVE SMOOTH",
"-70 187 OFFCURVE",
"-113 239 OFFCURVE",
"-211 239 CURVE SMOOTH"
);
}
);
width = 0;
}
);
category = Mark;
},
{
glyphname = Ddha.icd;
lastChange = "2019-05-14 14:08:00 +0000";
layers = (
{
components = (
{
name = Ddha.icd.nohd;
}
);
layerId = UUID0;
paths = (
{
closed = 1;
nodes = (
"493 622 LINE",
"0 622 LINE",
"0 551 LINE",
"493 551 LINE"
);
}
);
width = 483;
}
);
category = Letter;
},
{
glyphname = Ddha.icd.rt;
lastChange = "2019-05-14 14:08:00 +0000";
layers = (
{
components = (
{
name = Ddha.icd.nohd.rt;
}
);
layerId = UUID0;
paths = (
{
closed = 1;
nodes = (
"493 622 LINE",
"0 622 LINE",
"0 551 LINE",
"493 551 LINE"
);
}
);
width = 483;
}
);
category = Letter;
},
{
glyphname = Ddha.icd.nohd.rt;
lastChange = "2019-05-14 14:08:00 +0000";
layers = (
{
layerId = UUID0;
paths = (
{
closed = 1;
nodes = (
"189 346 OFFCURVE",
"160 382 OFFCURVE",
"148 443 CURVE",
"239 449 OFFCURVE",
"311 486 OFFCURVE",
"311 564 CURVE SMOOTH",
"311 610 LINE",
"230 610 LINE",
"230 562 LINE SMOOTH",
"230 503 OFFCURVE",
"161 477 OFFCURVE",
"65 475 CURVE",
"72 382 OFFCURVE",
"133 291 OFFCURVE",
"280 291 CURVE SMOOTH",
"386 291 OFFCURVE",
"445 344 OFFCURVE",
"445 406 CURVE SMOOTH",
"445 446 OFFCURVE",
"418 490 OFFCURVE",
"355 490 CURVE SMOOTH",
"294 490 OFFCURVE",
"261 441 OFFCURVE",
"261 403 CURVE SMOOTH",
"261 373 OFFCURVE",
"279 348 OFFCURVE",
"314 332 CURVE",
"374 358 LINE",
"322 365 OFFCURVE",
"315 393 OFFCURVE",
"315 406 CURVE SMOOTH",
"315 427 OFFCURVE",
"334 443 OFFCURVE",
"355 443 CURVE SMOOTH",
"378 443 OFFCURVE",
"392 423 OFFCURVE",
"392 403 CURVE SMOOTH",
"392 366 OFFCURVE",
"347 344 OFFCURVE",
"276 345 CURVE SMOOTH"
);
},
{
closed = 1;
nodes = (
"364 287 LINE",
"445 287 LINE",
"445 406 LINE",
"364 349 LINE"
);
}
);
width = 483;
}
);
category = Letter;
},
{
glyphname = Ddha.cd;
lastChange = "2019-05-14 14:08:00 +0000";
layers = (
{
layerId = UUID0;
paths = (
{
closed = 1;
nodes = (
"-286 46 OFFCURVE",
"-315 79 OFFCURVE",
"-325 132 CURVE",
"-236 146 OFFCURVE",
"-164 186 OFFCURVE",
"-164 264 CURVE SMOOTH",
"-164 310 LINE",
"-245 310 LINE",
"-245 262 LINE SMOOTH",
"-245 203 OFFCURVE",
"-314 177 OFFCURVE",
"-410 175 CURVE",
"-403 82 OFFCURVE",
"-342 -9 OFFCURVE",
"-195 -9 CURVE SMOOTH",
"-89 -9 OFFCURVE",
"-30 44 OFFCURVE",
"-30 106 CURVE SMOOTH",
"-30 146 OFFCURVE",
"-57 190 OFFCURVE",
"-120 190 CURVE SMOOTH",
"-181 190 OFFCURVE",
"-214 141 OFFCURVE",
"-214 103 CURVE SMOOTH",
"-214 73 OFFCURVE",
"-196 48 OFFCURVE",
"-161 32 CURVE",
"-101 58 LINE",
"-153 65 OFFCURVE",
"-160 93 OFFCURVE",
"-160 106 CURVE SMOOTH",
"-160 127 OFFCURVE",
"-141 143 OFFCURVE",
"-120 143 CURVE SMOOTH",
"-97 143 OFFCURVE",
"-83 123 OFFCURVE",
"-83 103 CURVE SMOOTH",
"-83 66 OFFCURVE",
"-128 44 OFFCURVE",
"-199 45 CURVE SMOOTH"
);
}
);
width = 0;
}
);
category = Mark;
},
{
glyphname = Nna.icd;
lastChange = "2019-05-14 14:08:00 +0000";
layers = (
{
layerId = UUID0;
paths = (
{
closed = 1;
nodes = (
"285 384 LINE",
"259 366 OFFCURVE",
"230 354 OFFCURVE",
"188 354 CURVE SMOOTH",
"165 354 OFFCURVE",
"129 363 OFFCURVE",
"129 400 CURVE SMOOTH",
"129 439 OFFCURVE",
"157 458 OFFCURVE",
"225 460 CURVE",
"225 503 LINE",
"127 502 OFFCURVE",
"59 468 OFFCURVE",
"59 400 CURVE SMOOTH",
"59 333 OFFCURVE",
"117 303 OFFCURVE",
"189 303 CURVE SMOOTH",
"248 303 OFFCURVE",
"289 321 OFFCURVE",
"314 337 CURVE"
);
},
{
closed = 1;
nodes = (
"401 545 LINE",
"348 606 OFFCURVE",
"276 632 OFFCURVE",
"208 632 CURVE SMOOTH",
"141 632 OFFCURVE",
"80 604 OFFCURVE",
"80 546 CURVE SMOOTH",
"80 500 OFFCURVE",
"127 469 OFFCURVE",
"172 469 CURVE",
"223 503 LINE",
"176 503 OFFCURVE",
"150 521 OFFCURVE",
"150 545 CURVE SMOOTH",
"150 568 OFFCURVE",
"176 578 OFFCURVE",
"213 578 CURVE SMOOTH",
"270 578 OFFCURVE",
"339 550 OFFCURVE",
"381 479 CURVE"
);
},
{
closed = 1;
nodes = (
"356 298 LINE",
"437 298 LINE",
"437 622 LINE",
"356 622 LINE"
);
}
);
width = 517;
}
);
category = Letter;
},
{
glyphname = Nna.half;
lastChange = "2019-05-14 14:08:00 +0000";
layers = (
{
layerId = UUID0;
paths = (
{
closed = 1;
nodes = (
"328 204 LINE",
"291 172 OFFCURVE",
"253 151 OFFCURVE",
"203 151 CURVE SMOOTH",
"162 151 OFFCURVE",
"104 179 OFFCURVE",
"104 252 CURVE SMOOTH",
"104 323 OFFCURVE",
"151 358 OFFCURVE",
"242 361 CURVE",
"242 425 LINE",
"111 422 OFFCURVE",
"25 354 OFFCURVE",
"25 251 CURVE SMOOTH",
"25 142 OFFCURVE",
"103 81 OFFCURVE",
"207 81 CURVE SMOOTH",
"267 81 OFFCURVE",
"327 108 OFFCURVE",
"368 148 CURVE"
);
},
{
closed = 1;
nodes = (
"477 481 LINE",
"407 586 OFFCURVE",
"311 632 OFFCURVE",
"219 632 CURVE SMOOTH",
"130 632 OFFCURVE",
"53 587 OFFCURVE",
"53 494 CURVE SMOOTH",
"53 419 OFFCURVE",
"112 368 OFFCURVE",
"171 369 CURVE",
"239 425 LINE",
"177 425 OFFCURVE",
"132 440 OFFCURVE",
"132 492 CURVE SMOOTH",
"132 537 OFFCURVE",
"176 559 OFFCURVE",
"226 559 CURVE SMOOTH",
"302 559 OFFCURVE",
"394 514 OFFCURVE",
"450 398 CURVE"
);
}
);
width = 464;
}
);
category = Letter;
},
{
glyphname = Nna.post;
lastChange = "2019-05-14 14:08:00 +0000";
layers = (
{
layerId = UUID0;
paths = (
{
closed = 1;
nodes = (
"-236 41 LINE",
"-236 81 OFFCURVE",
"-210 105 OFFCURVE",
"-181 105 CURVE SMOOTH",
"-159 105 OFFCURVE",
"-137 94 OFFCURVE",
"-137 57 CURVE SMOOTH",
"-137 18 OFFCURVE",
"-155 -8 OFFCURVE",
"-178 -36 CURVE",
"-121 -74 LINE",
"-84 -27 OFFCURVE",
"-69 7 OFFCURVE",
"-69 59 CURVE SMOOTH",
"-69 126 OFFCURVE",
"-117 168 OFFCURVE",
"-177 168 CURVE SMOOTH",
"-209 168 OFFCURVE",
"-244 155 OFFCURVE",
"-269 133 CURVE",
"-295 155 OFFCURVE",
"-329 168 OFFCURVE",
"-361 168 CURVE SMOOTH",
"-421 168 OFFCURVE",
"-469 126 OFFCURVE",
"-469 59 CURVE SMOOTH",
"-469 7 OFFCURVE",
"-449 -29 OFFCURVE",
"-413 -74 CURVE",
"-360 -36 LINE",
"-383 -8 OFFCURVE",
"-401 18 OFFCURVE",
"-401 57 CURVE SMOOTH",
"-401 94 OFFCURVE",
"-379 105 OFFCURVE",
"-356 105 CURVE SMOOTH",
"-327 105 OFFCURVE",
"-302 81 OFFCURVE",
"-302 41 CURVE"
);
},
{
closed = 1;
nodes = (
"-228 310 LINE",
"-309 310 LINE",
"-309 122 LINE",
"-228 122 LINE"
);
}
);
width = 0;
}
);
category = Mark;
},
{
glyphname = Nna.post.alt2;
lastChange = "2019-05-14 14:08:00 +0000";
layers = (
{
layerId = UUID0;
paths = (
{
closed = 1;
nodes = (
"-228 146 LINE",
"-309 146 LINE",
"-309 -20 LINE",
"-228 -20 LINE"
);
},
{
closed = 1;
nodes = (
"-236 -101 LINE",
"-236 -61 OFFCURVE",
"-210 -37 OFFCURVE",
"-181 -37 CURVE SMOOTH",
"-159 -37 OFFCURVE",
"-137 -48 OFFCURVE",
"-137 -85 CURVE SMOOTH",
"-137 -124 OFFCURVE",
"-155 -150 OFFCURVE",
"-178 -178 CURVE",
"-121 -216 LINE",
"-84 -169 OFFCURVE",
"-69 -135 OFFCURVE",
"-69 -83 CURVE SMOOTH",
"-69 -16 OFFCURVE",
"-117 26 OFFCURVE",
"-177 26 CURVE SMOOTH",
"-209 26 OFFCURVE",
"-244 13 OFFCURVE",
"-269 -9 CURVE",
"-295 13 OFFCURVE",
"-329 26 OFFCURVE",
"-361 26 CURVE SMOOTH",
"-421 26 OFFCURVE",
"-469 -16 OFFCURVE",
"-469 -83 CURVE SMOOTH",
"-469 -135 OFFCURVE",
"-449 -171 OFFCURVE",
"-413 -216 CURVE",
"-360 -178 LINE",
"-383 -150 OFFCURVE",
"-401 -124 OFFCURVE",
"-401 -85 CURVE SMOOTH",
"-401 -48 OFFCURVE",
"-379 -37 OFFCURVE",
"-356 -37 CURVE SMOOTH",
"-327 -37 OFFCURVE",
"-302 -61 OFFCURVE",
"-302 -101 CURVE"
);
}
);
width = 0;
}
);
category = Mark;
},
{
glyphname = Ta.icd;
lastChange = "2019-05-14 14:08:00 +0000";
layers = (
{
layerId = UUID0;
paths = (
{
closed = 1;
nodes = (
"521 622 LINE",
"0 622 LINE",
"0 551 LINE",
"521 551 LINE"
);
},
{
closed = 1;
nodes = (
"430 355 LINE SMOOTH",
"430 493 OFFCURVE",
"377 575 OFFCURVE",
"258 575 CURVE SMOOTH",
"144 575 OFFCURVE",
"90 502 OFFCURVE",
"90 389 CURVE SMOOTH",
"90 310 LINE",
"171 310 LINE",
"171 388 LINE SMOOTH",
"171 460 OFFCURVE",
"196 503 OFFCURVE",
"258 503 CURVE SMOOTH",
"345 503 OFFCURVE",
"349 414 OFFCURVE",
"349 348 CURVE SMOOTH",
"349 290 LINE",
"430 290 LINE"
);
}
);
width = 510;
}
);
category = Letter;
},
{
glyphname = Ta.half;
lastChange = "2019-05-14 14:08:00 +0000";
layers = (
{
layerId = UUID0;
paths = (
{
closed = 1;
nodes = (
"454 435 LINE",
"425 442 OFFCURVE",
"369 448 OFFCURVE",
"335 448 CURVE SMOOTH",
"193 448 OFFCURVE",
"119 354 OFFCURVE",
"119 247 CURVE SMOOTH",
"119 163 OFFCURVE",
"180 94 OFFCURVE",
"229 45 CURVE SMOOTH",
"334 -61 LINE",
"389 -11 LINE",
"290 95 LINE SMOOTH",
"251 137 OFFCURVE",
"203 185 OFFCURVE",
"203 259 CURVE SMOOTH",
"203 310 OFFCURVE",
"240 374 OFFCURVE",
"334 374 CURVE SMOOTH",
"365 374 OFFCURVE",
"400 369 OFFCURVE",
"429 360 CURVE"
);
}
);
width = 330;
}
);
category = Letter;
},
{
glyphname = Ta.post;
lastChange = "2019-05-14 14:08:00 +0000";
layers = (
{
layerId = UUID0;
paths = (
{
closed = 1;
nodes = (
"-80 223 LINE",
"-80 282 OFFCURVE",
"-59 323 OFFCURVE",
"1 323 CURVE SMOOTH",
"96 323 OFFCURVE",
"96 244 OFFCURVE",
"96 178 CURVE SMOOTH",
"96 0 LINE",
"177 0 LINE",
"177 185 LINE SMOOTH",
"177 323 OFFCURVE",
"127 395 OFFCURVE",
"15 395 CURVE SMOOTH",
"-38 395 OFFCURVE",
"-97 362 OFFCURVE",
"-112 301 CURVE"
);
},
{
closed = 1;
nodes = (
"-161 373 LINE",
"-161 190 LINE",
"-80 190 LINE",
"-80 373 LINE"
);
}
);
width = 257;
}
);
category = Letter;
},
{
glyphname = Tha.icd;
lastChange = "2019-05-14 14:08:00 +0000";
layers = (
{
layerId = UUID0;
paths = (
{
closed = 1;
nodes = (
"406 298 LINE",
"406 622 LINE",
"325 622 LINE",
"325 298 LINE"
);
},
{
closed = 1;
nodes = (
"373 437 LINE",
"342 393 OFFCURVE",
"286 368 OFFCURVE",
"235 368 CURVE SMOOTH",
"204 368 OFFCURVE",
"180 373 OFFCURVE",
"159 393 CURVE",
"207 417 OFFCURVE",
"251 453 OFFCURVE",
"251 526 CURVE SMOOTH",
"251 579 OFFCURVE",
"217 627 OFFCURVE",
"146 627 CURVE SMOOTH",
"72 627 OFFCURVE",
"40 579 OFFCURVE",
"40 538 CURVE SMOOTH",
"40 494 OFFCURVE",
"74 447 OFFCURVE",
"145 447 CURVE SMOOTH",
"170 447 OFFCURVE",
"183 453 OFFCURVE",
"199 467 CURVE",
"199 522 LINE",
"189 501 OFFCURVE",
"168 496 OFFCURVE",
"150 496 CURVE SMOOTH",
"132 496 OFFCURVE",
"112 511 OFFCURVE",
"112 537 CURVE SMOOTH",
"112 560 OFFCURVE",
"127 572 OFFCURVE",
"144 572 CURVE SMOOTH",
"170 572 OFFCURVE",
"179 546 OFFCURVE",
"179 526 CURVE SMOOTH",
"179 445 OFFCURVE",
"102 424 OFFCURVE",
"64 415 CURVE",
"79 345 OFFCURVE",
"154 312 OFFCURVE",
"230 312 CURVE SMOOTH",
"296 312 OFFCURVE",
"362 336 OFFCURVE",
"391 383 CURVE"
);
}
);
width = 486;
}
);
category = Letter;
},
{
glyphname = Tha.half;
lastChange = "2019-05-14 14:08:00 +0000";
layers = (
{
layerId = UUID0;
paths = (
{
closed = 1;
nodes = (
"505 257 LINE",
"464 197 OFFCURVE",
"370 169 OFFCURVE",
"305 169 CURVE SMOOTH",
"239 169 OFFCURVE",
"176 191 OFFCURVE",
"159 249 CURVE",
"221 289 OFFCURVE",
"307 348 OFFCURVE",
"307 484 CURVE SMOOTH",
"307 569 OFFCURVE",
"257 632 OFFCURVE",
"177 632 CURVE SMOOTH",
"91 632 OFFCURVE",
"45 568 OFFCURVE",
"45 507 CURVE SMOOTH",
"45 441 OFFCURVE",
"89 379 OFFCURVE",
"185 379 CURVE SMOOTH",
"210 379 OFFCURVE",
"228 388 OFFCURVE",
"250 409 CURVE",
"250 478 LINE",
"232 459 OFFCURVE",
"214 446 OFFCURVE",
"185 446 CURVE SMOOTH",
"153 446 OFFCURVE",
"120 469 OFFCURVE",
"120 511 CURVE SMOOTH",
"120 548 OFFCURVE",
"147 566 OFFCURVE",
"172 566 CURVE SMOOTH",
"208 566 OFFCURVE",
"232 532 OFFCURVE",
"232 482 CURVE SMOOTH",
"232 363 OFFCURVE",
"152 311 OFFCURVE",
"71 279 CURVE",
"85 167 OFFCURVE",
"179 98 OFFCURVE",
"299 98 CURVE SMOOTH",
"363 98 OFFCURVE",
"477 125 OFFCURVE",
"514 191 CURVE"
);
}
);
width = 475;
}
);
category = Letter;
},
{
glyphname = Tha.post;
lastChange = "2019-05-14 14:08:00 +0000";
layers = (
{
layerId = UUID0;
paths = (
{
closed = 1;
nodes = (
"-314 -34 LINE SMOOTH",
"-314 -124 OFFCURVE",
"-354 -150 OFFCURVE",
"-386 -150 CURVE SMOOTH",
"-408 -150 OFFCURVE",
"-425 -137 OFFCURVE",
"-425 -116 CURVE SMOOTH",
"-425 -88 OFFCURVE",
"-391 -31 OFFCURVE",
"-272 -31 CURVE SMOOTH",
"-176 -31 OFFCURVE",
"-150 -65 OFFCURVE",
"-150 -98 CURVE SMOOTH",
"-150 -136 OFFCURVE",
"-184 -150 OFFCURVE",
"-211 -150 CURVE SMOOTH",
"-243 -150 OFFCURVE",
"-262 -136 OFFCURVE",
"-276 -127 CURVE",
"-293 -177 LINE",
"-267 -197 OFFCURVE",
"-233 -209 OFFCURVE",
"-198 -209 CURVE SMOOTH",
"-125 -209 OFFCURVE",
"-86 -157 OFFCURVE",
"-86 -103 CURVE SMOOTH",
"-86 -49 OFFCURVE",
"-124 31 OFFCURVE",
"-272 31 CURVE SMOOTH",
"-435 31 OFFCURVE",
"-489 -58 OFFCURVE",
"-489 -115 CURVE SMOOTH",
"-489 -166 OFFCURVE",
"-452 -210 OFFCURVE",
"-392 -210 CURVE SMOOTH",
"-337 -210 OFFCURVE",
"-235 -184 OFFCURVE",
"-234 -40 CURVE SMOOTH",
"-233 100 LINE",
"-314 100 LINE"
);
}
);
width = 0;
}
);
category = Mark;
},
{
glyphname = Da.icd;
lastChange = "2019-05-14 14:08:00 +0000";
layers = (
{
components = (
{
name = Da.icd.nohd;
}
);
layerId = UUID0;
paths = (
{
closed = 1;
nodes = (
"477 622 LINE",
"0 622 LINE",
"0 551 LINE",
"477 551 LINE"
);
}
);
width = 467;
}
);
category = Letter;
},
{
glyphname = Da.icd.rt;
lastChange = "2019-05-14 14:08:00 +0000";
layers = (
{
components = (
{
name = Da.icd.nohd.rt;
}
);
layerId = UUID0;
paths = (
{
closed = 1;
nodes = (
"477 622 LINE",
"0 622 LINE",
"0 551 LINE",
"477 551 LINE"
);
}
);
width = 467;
}
);
category = Letter;
},
{
glyphname = Da.icd.nohd.rt;
lastChange = "2019-05-14 14:08:00 +0000";
layers = (
{
components = (
{
name = Da.icd.nohd;
}
);
layerId = UUID0;
paths = (
{
closed = 1;
nodes = (
"297 287 LINE",
"378 287 LINE",
"378 400 LINE",
"297 379 LINE"
);
}
);
width = 506;
}
);
category = Letter;
},
{
glyphname = Da.cd;
lastChange = "2019-05-14 14:08:00 +0000";
layers = (
{
layerId = UUID0;
paths = (
{
closed = 1;
nodes = (
"-105 -81 LINE",
"-118 -55 OFFCURVE",
"-130 -19 OFFCURVE",
"-136 20 CURVE",
"-95 38 OFFCURVE",
"-80 65 OFFCURVE",
"-80 93 CURVE SMOOTH",
"-80 133 OFFCURVE",
"-108 158 OFFCURVE",
"-147 158 CURVE SMOOTH",
"-187 158 OFFCURVE",
"-216 131 OFFCURVE",
"-216 91 CURVE SMOOTH",
"-216 83 OFFCURVE",
"-215 74 OFFCURVE",
"-213 64 CURVE",
"-228 61 OFFCURVE",
"-241 60 OFFCURVE",
"-251 60 CURVE SMOOTH",
"-304 60 OFFCURVE",
"-337 86 OFFCURVE",
"-346 143 CURVE",
"-258 154 OFFCURVE",
"-186 202 OFFCURVE",
"-186 281 CURVE SMOOTH",
"-186 310 LINE",
"-267 310 LINE",
"-267 280 LINE SMOOTH",
"-267 209 OFFCURVE",
"-336 183 OFFCURVE",
"-432 181 CURVE",
"-425 86 OFFCURVE",
"-372 -3 OFFCURVE",
"-256 -3 CURVE SMOOTH",
"-238 -3 OFFCURVE",
"-218 -2 OFFCURVE",
"-200 1 CURVE",
"-194 -30 OFFCURVE",
"-185 -62 OFFCURVE",
"-170 -97 CURVE"
);
}
);
width = 0;
}
);
category = Mark;
},
{
glyphname = Dha.icd;
lastChange = "2019-05-14 14:08:00 +0000";
layers = (
{
layerId = UUID0;
paths = (
{
closed = 1;
nodes = (
"316 298 LINE",
"397 298 LINE",
"397 622 LINE",
"316 622 LINE"
);
},
{
closed = 1;
nodes = (
"331 492 LINE",
"312 504 OFFCURVE",
"271 521 OFFCURVE",
"208 521 CURVE SMOOTH",
"107 521 OFFCURVE",
"51 482 OFFCURVE",
"51 415 CURVE SMOOTH",
"51 354 OFFCURVE",
"98 308 OFFCURVE",
"199 308 CURVE SMOOTH",
"253 308 OFFCURVE",
"289 321 OFFCURVE",
"318 339 CURVE",
"318 408 LINE",
"296 384 OFFCURVE",
"258 368 OFFCURVE",
"205 368 CURVE SMOOTH",
"155 368 OFFCURVE",
"121 382 OFFCURVE",
"121 416 CURVE SMOOTH",
"121 447 OFFCURVE",
"151 469 OFFCURVE",
"206 469 CURVE SMOOTH",
"267 469 OFFCURVE",
"296 456 OFFCURVE",
"325 441 CURVE"
);
},
{
closed = 1;
nodes = (
"40 622 LINE",
"40 564 LINE SMOOTH",
"40 504 OFFCURVE",
"78 468 OFFCURVE",
"124 459 CURVE",
"178 504 LINE",
"141 504 OFFCURVE",
"116 517 OFFCURVE",
"116 570 CURVE SMOOTH",
"116 622 LINE"
);
}
);
width = 477;
}
);
category = Letter;
},
{
glyphname = Dha.cd;
lastChange = "2019-05-14 14:08:00 +0000";
layers = (
{
layerId = UUID0;
paths = (
{
closed = 1;
nodes = (
"-166 0 LINE",
"-85 0 LINE",
"-85 310 LINE",
"-166 310 LINE"
);
},
{
closed = 1;
nodes = (
"-490 293 LINE",
"-484 250 OFFCURVE",
"-422 177 OFFCURVE",
"-328 180 CURVE",
"-284 220 LINE",
"-368 216 OFFCURVE",
"-406 253 OFFCURVE",
"-418 293 CURVE"
);
},
{
closed = 1;
nodes = (
"-151 191 LINE",
"-170 203 OFFCURVE",
"-221 220 OFFCURVE",
"-284 220 CURVE SMOOTH",
"-385 220 OFFCURVE",
"-441 181 OFFCURVE",
"-441 114 CURVE SMOOTH",
"-441 53 OFFCURVE",
"-394 7 OFFCURVE",
"-293 7 CURVE SMOOTH",
"-239 7 OFFCURVE",
"-193 20 OFFCURVE",
"-164 38 CURVE",
"-164 107 LINE",
"-186 83 OFFCURVE",
"-234 67 OFFCURVE",
"-287 67 CURVE SMOOTH",
"-337 67 OFFCURVE",
"-371 81 OFFCURVE",
"-371 115 CURVE SMOOTH",
"-371 146 OFFCURVE",
"-341 168 OFFCURVE",
"-286 168 CURVE SMOOTH",
"-225 168 OFFCURVE",
"-186 155 OFFCURVE",
"-157 140 CURVE"
);
}
);
width = 0;
}
);
category = Mark;
subCategory = Nonspacing;
},
{
glyphname = Dha.cd.alt;
lastChange = "2019-05-14 14:08:00 +0000";
layers = (
{
layerId = UUID0;
paths = (
{
closed = 1;
nodes = (
"-166 0 LINE",
"-85 0 LINE",
"-85 310 LINE",
"-166 310 LINE"
);
},
{
closed = 1;
nodes = (
"-530 273 LINE",
"-524 230 OFFCURVE",
"-468 177 OFFCURVE",
"-354 180 CURVE",
"-284 220 LINE",
"-408 216 OFFCURVE",
"-446 233 OFFCURVE",
"-458 273 CURVE"
);
},
{
closed = 1;
nodes = (
"-151 191 LINE",
"-170 203 OFFCURVE",
"-221 220 OFFCURVE",
"-284 220 CURVE SMOOTH",
"-385 220 OFFCURVE",
"-441 181 OFFCURVE",
"-441 114 CURVE SMOOTH",
"-441 53 OFFCURVE",
"-394 7 OFFCURVE",
"-293 7 CURVE SMOOTH",
"-239 7 OFFCURVE",
"-193 20 OFFCURVE",
"-164 38 CURVE",
"-164 107 LINE",
"-186 83 OFFCURVE",
"-234 67 OFFCURVE",
"-287 67 CURVE SMOOTH",
"-337 67 OFFCURVE",
"-371 81 OFFCURVE",
"-371 115 CURVE SMOOTH",
"-371 146 OFFCURVE",
"-341 168 OFFCURVE",
"-286 168 CURVE SMOOTH",
"-225 168 OFFCURVE",
"-186 155 OFFCURVE",
"-157 140 CURVE"
);
}
);
width = 0;
}
);
category = Mark;
subCategory = Nonspacing;
},
{
glyphname = Dha.half;
lastChange = "2019-05-14 14:08:00 +0000";
layers = (
{
layerId = UUID0;
paths = (
{
closed = 1;
nodes = (
"40 553 LINE SMOOTH",
"40 392 OFFCURVE",
"93 338 OFFCURVE",
"246 328 CURVE",
"309 385 LINE",
"140 386 OFFCURVE",
"121 437 OFFCURVE",
"121 562 CURVE SMOOTH",
"121 622 LINE",
"40 622 LINE"
);
},
{
closed = 1;
nodes = (
"311 386 LINE",
"294 387 OFFCURVE",
"277 388 OFFCURVE",
"261 388 CURVE SMOOTH",
"158 388 OFFCURVE",
"46 344 OFFCURVE",
"46 227 CURVE SMOOTH",
"46 119 OFFCURVE",
"144 81 OFFCURVE",
"243 81 CURVE SMOOTH",
"270 81 OFFCURVE",
"292 83 OFFCURVE",
"311 87 CURVE",
"311 158 LINE",
"292 153 OFFCURVE",
"270 151 OFFCURVE",
"245 151 CURVE SMOOTH",
"186 151 OFFCURVE",
"126 172 OFFCURVE",
"126 229 CURVE SMOOTH",
"126 299 OFFCURVE",
"197 318 OFFCURVE",
"264 318 CURVE SMOOTH",
"278 318 OFFCURVE",
"295 317 OFFCURVE",
"311 315 CURVE"
);
}
);
width = 300;
}
);
category = Letter;
},
{
glyphname = Na.icd;
lastChange = "2019-05-14 14:08:00 +0000";
layers = (
{
layerId = UUID0;
paths = (
{
closed = 1;
nodes = (
"383 291 LINE",
"383 602 LINE",
"302 602 LINE",
"302 291 LINE"
);
},
{
closed = 1;
nodes = (
"473 622 LINE",
"0 622 LINE",
"0 551 LINE",
"473 551 LINE"
);
},
{
closed = 1;
nodes = (
"159 481 OFFCURVE",
"40 451 OFFCURVE",
"40 360 CURVE SMOOTH",
"40 321 OFFCURVE",
"67 297 OFFCURVE",
"104 297 CURVE SMOOTH",
"141 297 OFFCURVE",
"170 321 OFFCURVE",
"170 360 CURVE SMOOTH",
"170 374 OFFCURVE",
"166 388 OFFCURVE",
"159 399 CURVE",
"183 410 OFFCURVE",
"214 415 OFFCURVE",
"246 415 CURVE SMOOTH",
"287 415 OFFCURVE",
"312 407 OFFCURVE",
"328 390 CURVE",
"342 461 LINE",
"319 474 OFFCURVE",
"287 481 OFFCURVE",
"249 481 CURVE SMOOTH"
);
}
);
width = 463;
}
);
category = Letter;
},
{
glyphname = Na.cd;
lastChange = "2019-05-14 14:08:00 +0000";
layers = (
{
layerId = UUID0;
paths = (
{
closed = 1;
nodes = (
"-80 0 LINE",
"-80 310 LINE",
"-161 310 LINE",
"-161 0 LINE"
);
},
{
closed = 1;
nodes = (
"-304 202 OFFCURVE",
"-423 174 OFFCURVE",
"-423 91 CURVE SMOOTH",
"-423 53 OFFCURVE",
"-395 25 OFFCURVE",
"-359 25 CURVE SMOOTH",
"-322 25 OFFCURVE",
"-293 54 OFFCURVE",
"-293 90 CURVE SMOOTH",
"-293 103 OFFCURVE",
"-297 116 OFFCURVE",
"-304 126 CURVE",
"-280 137 OFFCURVE",
"-249 141 OFFCURVE",
"-217 141 CURVE SMOOTH",
"-176 141 OFFCURVE",
"-151 134 OFFCURVE",
"-135 118 CURVE",
"-121 184 LINE",
"-144 196 OFFCURVE",
"-176 202 OFFCURVE",
"-214 202 CURVE SMOOTH"
);
}
);
width = 0;
}
);
category = Mark;
},
{
glyphname = Na.half;
lastChange = "2019-05-14 14:08:00 +0000";
layers = (
{
layerId = UUID0;
paths = (
{
closed = 1;
nodes = (
"460 622 LINE",
"0 622 LINE",
"0 551 LINE",
"460 551 LINE"
);
},
{
closed = 1;
nodes = (
"152 410 OFFCURVE",
"35 352 OFFCURVE",
"35 256 CURVE SMOOTH",
"35 205 OFFCURVE",
"71 164 OFFCURVE",
"118 164 CURVE SMOOTH",
"164 164 OFFCURVE",
"201 204 OFFCURVE",
"201 255 CURVE SMOOTH",
"201 278 OFFCURVE",
"193 299 OFFCURVE",
"181 315 CURVE",
"212 331 OFFCURVE",
"254 339 OFFCURVE",
"299 339 CURVE SMOOTH",
"352 339 OFFCURVE",
"385 327 OFFCURVE",
"404 307 CURVE",
"423 385 LINE",
"393 401 OFFCURVE",
"353 410 OFFCURVE",
"303 410 CURVE SMOOTH"
);
}
);
width = 450;
}
);
category = Letter;
},
{
glyphname = Pa.icd;
lastChange = "2019-05-14 14:08:00 +0000";
layers = (
{
layerId = UUID0;
paths = (
{
closed = 1;
nodes = (
"281 412 LINE",
"259 385 OFFCURVE",
"223 362 OFFCURVE",
"178 362 CURVE SMOOTH",
"134 362 OFFCURVE",
"109 375 OFFCURVE",
"109 420 CURVE SMOOTH",
"109 461 OFFCURVE",
"140 487 OFFCURVE",
"140 526 CURVE SMOOTH",
"140 544 OFFCURVE",
"138 571 OFFCURVE",
"123 593 CURVE",
"48 587 LINE",
"56 573 OFFCURVE",
"68 551 OFFCURVE",
"68 523 CURVE SMOOTH",
"68 489 OFFCURVE",
"36 462 OFFCURVE",
"36 412 CURVE SMOOTH",
"36 346 OFFCURVE",
"88 297 OFFCURVE",
"160 297 CURVE SMOOTH",
"207 297 OFFCURVE",
"259 313 OFFCURVE",
"281 331 CURVE"
);
},
{
closed = 1;
nodes = (
"354 296 LINE",
"354 602 LINE",
"273 602 LINE",
"273 296 LINE"
);
},
{
closed = 1;
nodes = (
"444 622 LINE",
"0 622 LINE",
"0 551 LINE",
"444 551 LINE"
);
}
);
width = 434;
}
);
category = Letter;
},
{
glyphname = Pa.cd;
lastChange = "2019-05-14 14:08:00 +0000";
layers = (
{
components = (
{
name = Pa.cd.nohd;
}
);
layerId = UUID0;
paths = (
{
closed = 1;
nodes = (
"506 551 LINE",
"506 622 LINE",
"0 622 LINE",
"0 551 LINE"
);
}
);
width = 496;
}
);
category = Letter;
},
{
glyphname = Pa.half;
lastChange = "2019-05-14 14:08:00 +0000";
layers = (
{
layerId = UUID0;
paths = (
{
closed = 1;
nodes = (
"395 622 LINE",
"0 622 LINE",
"0 551 LINE",
"395 551 LINE"
);
},
{
closed = 1;
nodes = (
"410 257 LINE",
"374 211 OFFCURVE",
"316 171 OFFCURVE",
"240 171 CURVE SMOOTH",
"167 171 OFFCURVE",
"125 209 OFFCURVE",
"125 285 CURVE SMOOTH",
"125 354 OFFCURVE",
"177 397 OFFCURVE",
"177 461 CURVE SMOOTH",
"177 500 OFFCURVE",
"166 537 OFFCURVE",
"140 574 CURVE",
"63 564 LINE",
"76 541 OFFCURVE",
"97 503 OFFCURVE",
"97 457 CURVE SMOOTH",
"97 400 OFFCURVE",
"45 363 OFFCURVE",
"45 279 CURVE SMOOTH",
"45 170 OFFCURVE",
"114 100 OFFCURVE",
"234 100 CURVE SMOOTH",
"312 100 OFFCURVE",
"370 130 OFFCURVE",
"407 159 CURVE"
);
}
);
width = 385;
}
);
category = Letter;
},
{
glyphname = Pha.icd;
lastChange = "2019-05-14 14:08:00 +0000";
layers = (
{
components = (
{
name = Pha.icd.nohd;
}
);
layerId = UUID0;
paths = (
{
closed = 1;
nodes = (
"0 622 LINE",
"0 551 LINE",
"495 551 LINE",
"495 622 LINE"
);
}
);
width = 485;
}
);
category = Letter;
},
{
glyphname = Pha.cd;
lastChange = "2019-05-14 14:08:00 +0000";
layers = (
{
layerId = UUID0;
paths = (
{
closed = 1;
nodes = (
"-260 152 LINE",
"-200 160 OFFCURVE",
"-135 204 OFFCURVE",
"-135 271 CURVE SMOOTH",
"-135 310 LINE",
"-216 310 LINE",
"-216 264 LINE SMOOTH",
"-216 214 OFFCURVE",
"-265 186 OFFCURVE",
"-341 184 CURVE",
"-341 160 LINE",
"-189 -7 LINE",
"-116 -7 LINE"
);
},
{
closed = 1;
nodes = (
"-153 127 LINE",
"-155 122 OFFCURVE",
"-155 114 OFFCURVE",
"-155 109 CURVE SMOOTH",
"-155 62 OFFCURVE",
"-118 26 OFFCURVE",
"-74 26 CURVE SMOOTH",
"-6 26 OFFCURVE",
"20 78 OFFCURVE",
"20 110 CURVE SMOOTH",
"20 151 OFFCURVE",
"-6 195 OFFCURVE",
"-74 195 CURVE SMOOTH",
"-135 195 OFFCURVE",
"-195 139 OFFCURVE",
"-215 53 CURVE",
"-173 10 LINE",
"-161 90 OFFCURVE",
"-110 145 OFFCURVE",
"-74 145 CURVE SMOOTH",
"-49 145 OFFCURVE",
"-38 132 OFFCURVE",
"-38 112 CURVE SMOOTH",
"-38 93 OFFCURVE",
"-52 76 OFFCURVE",
"-72 76 CURVE SMOOTH",
"-87 76 OFFCURVE",
"-108 88 OFFCURVE",
"-108 114 CURVE SMOOTH",
"-108 124 OFFCURVE",
"-105 136 OFFCURVE",
"-101 147 CURVE"
);
}
);
width = 0;
}
);
category = Mark;
},
{
glyphname = Ba.icd;
lastChange = "2019-05-14 14:08:00 +0000";
layers = (
{
components = (
{
name = Ba.icd.nohd;
transform = "{1, 0, 0, 1, 40, 0}";
}
);
layerId = UUID0;
paths = (
{
closed = 1;
nodes = (
"441 551 LINE",
"441 622 LINE",
"0 622 LINE",
"0 551 LINE"
);
}
);
width = 431;
}
);
category = Letter;
},
{
glyphname = Ba.cd;
lastChange = "2019-05-14 14:08:00 +0000";
layers = (
{
layerId = UUID0;
paths = (
{
closed = 1;
nodes = (
"-161 310 LINE",
"-161 0 LINE",
"-80 0 LINE",
"-80 310 LINE"
);
},
{
closed = 1;
nodes = (
"-145 221 LINE",
"-188 237 OFFCURVE",
"-233 244 OFFCURVE",
"-268 244 CURVE SMOOTH",
"-350 244 OFFCURVE",
"-411 206 OFFCURVE",
"-411 134 CURVE SMOOTH",
"-411 66 OFFCURVE",
"-357 19 OFFCURVE",
"-277 19 CURVE SMOOTH",
"-232 19 OFFCURVE",
"-168 33 OFFCURVE",
"-139 50 CURVE",
"-139 117 LINE",
"-161 93 OFFCURVE",
"-212 76 OFFCURVE",
"-255 76 CURVE SMOOTH",
"-299 76 OFFCURVE",
"-336 93 OFFCURVE",
"-336 133 CURVE SMOOTH",
"-336 170 OFFCURVE",
"-306 193 OFFCURVE",
"-257 193 CURVE SMOOTH",
"-224 193 OFFCURVE",
"-178 183 OFFCURVE",
"-156 174 CURVE"
);
}
);
width = 0;
}
);
category = Mark;
},
{
glyphname = Ba.half;
lastChange = "2019-05-14 14:08:00 +0000";
layers = (
{
layerId = UUID0;
paths = (
{
closed = 1;
nodes = (
"380 622 LINE",
"0 622 LINE",
"0 551 LINE",
"380 551 LINE"
);
},
{
closed = 1;
nodes = (
"328 176 LINE",
"307 170 OFFCURVE",
"285 167 OFFCURVE",
"260 167 CURVE SMOOTH",
"187 167 OFFCURVE",
"131 205 OFFCURVE",
"131 287 CURVE SMOOTH",
"131 357 OFFCURVE",
"184 401 OFFCURVE",
"272 401 CURVE SMOOTH",
"293 401 OFFCURVE",
"312 399 OFFCURVE",
"329 397 CURVE",
"329 466 LINE",
"311 469 OFFCURVE",
"290 470 OFFCURVE",
"269 470 CURVE SMOOTH",
"138 470 OFFCURVE",
"50 400 OFFCURVE",
"50 286 CURVE SMOOTH",
"50 175 OFFCURVE",
"132 98 OFFCURVE",
"257 98 CURVE SMOOTH",
"283 98 OFFCURVE",
"306 101 OFFCURVE",
"328 106 CURVE"
);
}
);
width = 370;
}
);
category = Letter;
},
{
glyphname = Bha.icd;
lastChange = "2019-05-14 14:08:00 +0000";
layers = (
{
layerId = UUID0;
paths = (
{
closed = 1;
nodes = (
"537 622 LINE",
"0 622 LINE",
"0 551 LINE",
"537 551 LINE"
);
},
{
closed = 1;
nodes = (
"147 302 OFFCURVE",
"188 354 OFFCURVE",
"207 415 CURVE SMOOTH",
"223 467 OFFCURVE",
"230 524 OFFCURVE",
"297 524 CURVE SMOOTH",
"338 524 OFFCURVE",
"366 498 OFFCURVE",
"366 453 CURVE SMOOTH",
"366 298 LINE",
"447 298 LINE",
"447 444 LINE SMOOTH",
"447 547 OFFCURVE",
"391 596 OFFCURVE",
"302 596 CURVE SMOOTH",
"181 596 OFFCURVE",
"161 506 OFFCURVE",
"142 452 CURVE SMOOTH",
"124 401 OFFCURVE",
"110 374 OFFCURVE",
"53 374 CURVE",
"53 302 LINE"
);
}
);
width = 527;
}
);
category = Letter;
},
{
glyphname = Bha.cd;
lastChange = "2019-05-14 14:08:00 +0000";
layers = (
{
layerId = UUID0;
paths = (
{
closed = 1;
nodes = (
"-277 146 LINE",
"-277 132 LINE",
"-248 132 OFFCURVE",
"-212 165 OFFCURVE",
"-176 203 CURVE SMOOTH",
"-149 231 OFFCURVE",
"-132 251 OFFCURVE",
"-98 251 CURVE SMOOTH",
"-65 251 OFFCURVE",
"-40 223 OFFCURVE",
"-40 171 CURVE SMOOTH",
"-40 149 LINE",
"41 149 LINE",
"41 164 LINE SMOOTH",
"41 259 OFFCURVE",
"-22 313 OFFCURVE",
"-90 313 CURVE SMOOTH",
"-161 313 OFFCURVE",
"-189 284 OFFCURVE",
"-228 248 CURVE SMOOTH",
"-264 214 OFFCURVE",
"-299 165 OFFCURVE",
"-346 165 CURVE",
"-346 108 LINE",
"-46 -74 LINE",
"-18 -15 LINE"
);
}
);
width = 0;
}
);
category = Mark;
},
{
glyphname = Bha.half;
lastChange = "2019-05-14 14:08:00 +0000";
layers = (
{
layerId = UUID0;
paths = (
{
closed = 1;
nodes = (
"185 252 LINE",
"246 297 LINE",
"80 503 LINE",
"20 457 LINE"
);
},
{
closed = 1;
nodes = (
"365 574 LINE",
"355 575 OFFCURVE",
"341 575 OFFCURVE",
"333 575 CURVE SMOOTH",
"219 575 OFFCURVE",
"165 502 OFFCURVE",
"165 389 CURVE SMOOTH",
"165 297 LINE",
"246 297 LINE",
"246 388 LINE SMOOTH",
"246 460 OFFCURVE",
"265 503 OFFCURVE",
"329 503 CURVE SMOOTH",
"339 503 OFFCURVE",
"353 503 OFFCURVE",
"365 502 CURVE"
);
},
{
closed = 1;
nodes = (
"365 622 LINE",
"0 622 LINE",
"0 551 LINE",
"365 551 LINE"
);
}
);
width = 355;
}
);
category = Letter;
},
{
glyphname = Ma.icd;
lastChange = "2019-05-14 14:08:00 +0000";
layers = (
{
components = (
{
name = Ma.icd.nohd;
}
);
layerId = UUID0;
paths = (
{
closed = 1;
nodes = (
"0 551 LINE",
"545 551 LINE",
"545 622 LINE",
"0 622 LINE"
);
}
);
width = 535;
}
);
category = Letter;
},
{
glyphname = Ma.cd;
lastChange = "2019-05-14 14:08:00 +0000";
layers = (
{
components = (
{
name = Ma.cd.nohd;
}
);
layerId = UUID0;
paths = (
{
closed = 1;
nodes = (
"0 551 LINE",
"578 551 LINE",
"578 622 LINE",
"0 622 LINE"
);
}
);
width = 568;
}
);
category = Letter;
},
{
glyphname = Ma.half;
lastChange = "2019-05-14 14:08:00 +0000";
layers = (
{
layerId = UUID0;
paths = (
{
closed = 1;
nodes = (
"461 622 LINE",
"0 622 LINE",
"0 551 LINE",
"105 551 LINE",
"105 305 LINE",
"55 291 OFFCURVE",
"20 260 OFFCURVE",
"20 206 CURVE SMOOTH",
"20 153 OFFCURVE",
"56 114 OFFCURVE",
"103 114 CURVE SMOOTH",
"149 114 OFFCURVE",
"186 154 OFFCURVE",
"186 205 CURVE SMOOTH",
"186 245 LINE",
"196 246 OFFCURVE",
"207 247 OFFCURVE",
"219 247 CURVE SMOOTH",
"282 247 OFFCURVE",
"366 222 OFFCURVE",
"411 180 CURVE",
"411 271 LINE",
"348 304 OFFCURVE",
"280 317 OFFCURVE",
"209 317 CURVE SMOOTH",
"186 317 LINE",
"186 551 LINE",
"461 551 LINE"
);
}
);
width = 451;
}
);
category = Letter;
},
{
glyphname = Ya.icd;
lastChange = "2019-05-14 14:08:00 +0000";
layers = (
{
layerId = UUID0;
paths = (
{
closed = 1;
nodes = (
"415 442 LINE",
"379 404 OFFCURVE",
"324 371 OFFCURVE",
"248 371 CURVE SMOOTH",
"196 371 OFFCURVE",
"157 380 OFFCURVE",
"136 426 CURVE",
"222 457 OFFCURVE",
"246 506 OFFCURVE",
"246 563 CURVE SMOOTH",
"246 588 LINE",
"165 579 LINE",
"165 559 LINE SMOOTH",
"165 509 OFFCURVE",
"165 483 OFFCURVE",
"48 452 CURVE",
"64 343 OFFCURVE",
"153 309 OFFCURVE",
"242 309 CURVE SMOOTH",
"320 309 OFFCURVE",
"378 334 OFFCURVE",
"415 359 CURVE"
);
},
{
closed = 1;
nodes = (
"439 290 LINE",
"439 551 LINE",
"529 551 LINE",
"529 622 LINE",
"0 622 LINE",
"0 551 LINE",
"358 551 LINE",
"358 290 LINE"
);
}
);
width = 519;
}
);
category = Letter;
},
{
glyphname = Ya.cd;
lastChange = "2019-05-14 14:08:00 +0000";
layers = (
{
components = (
{
name = Ya.cd.nohd;
}
);
layerId = UUID0;
paths = (
{
closed = 1;
nodes = (
"579 551 LINE",
"579 622 LINE",
"0 622 LINE",
"0 551 LINE"
);
}
);
width = 569;
}
);
category = Letter;
},
{
glyphname = Ya.half;
lastChange = "2019-05-14 14:08:00 +0000";
layers = (
{
layerId = UUID0;
paths = (
{
closed = 1;
nodes = (
"360 622 LINE",
"0 622 LINE",
"0 551 LINE",
"360 551 LINE"
);
},
{
closed = 1;
nodes = (
"312 181 LINE",
"291 175 OFFCURVE",
"268 171 OFFCURVE",
"244 171 CURVE SMOOTH",
"180 171 OFFCURVE",
"119 197 OFFCURVE",
"102 259 CURVE",
"152 289 OFFCURVE",
"251 366 OFFCURVE",
"251 490 CURVE SMOOTH",
"251 600 LINE",
"170 600 LINE",
"170 491 LINE SMOOTH",
"170 378 OFFCURVE",
"95 318 OFFCURVE",
"18 283 CURVE",
"34 159 OFFCURVE",
"131 100 OFFCURVE",
"240 100 CURVE SMOOTH",
"266 100 OFFCURVE",
"290 103 OFFCURVE",
"312 109 CURVE"
);
}
);
width = 350;
}
);
category = Letter;
},
